M48
; DRILL file {KiCad (5.1.10)-1} date 04/06/22 19:53:05
; FORMAT={-:-/ absolute / metric / decimal}
; #@! TF.CreationDate,2022-04-06T19:53:05-07:00
; #@! TF.GenerationSoftware,Kicad,Pcbnew,(5.1.10)-1
; #@! TF.FileFunction,Plated,1,4,PTH
FMAT,2
METRIC
T1C0.400
T2C0.730
T3C1.000
T4C1.100
T5C1.194
T6C1.200
T7C1.854
%
G90
G05
T1
X121.5Y-97.0
X122.8Y-114.15
X124.3Y-39.7
X126.9Y-33.7
X127.19Y-41.75
X128.45Y-106.5
X132.0Y-97.5
X132.7Y-52.3
X134.1Y-92.0
X136.0Y-115.9
X138.55Y-71.7
X138.9Y-100.6
X141.0Y-100.3
X142.06Y-92.0
X142.55Y-104.3
X147.25Y-111.5
X147.3Y-97.9
X150.9Y-73.5
X151.3Y-92.3
X153.2Y-99.5
X158.6Y-100.2
X162.35Y-55.5
X162.4Y-98.4
X168.18Y-90.68
X171.6Y-57.4
X173.825Y-73.5
X175.8Y-66.775
X175.85Y-59.8
X185.9Y-63.025
X190.65Y-47.825
X192.575Y-44.85
X194.84Y-54.49
X196.375Y-47.8
X198.5Y-40.325
X199.45Y-56.6
X204.825Y-50.05
X207.4Y-48.55
X210.8Y-43.7
X211.15Y-58.8
T2
X113.65Y-73.32
X113.65Y-75.82
X113.65Y-78.32
X113.65Y-80.82
X113.65Y-86.12
X113.65Y-88.62
X113.65Y-91.12
T3
X126.25Y-93.71
X126.25Y-96.25
X140.25Y-108.5
X142.79Y-108.5
X153.4Y-103.3
X153.4Y-105.84
X159.2Y-56.8
X168.8Y-64.3
X175.1Y-46.1
X179.12Y-50.58
T4
X144.66Y-115.63
X144.66Y-118.17
X147.2Y-115.63
X147.2Y-118.17
X149.74Y-115.63
X149.74Y-118.17
T5
X154.7Y-56.4
X154.7Y-66.56
X190.92Y-38.0
X201.08Y-38.0
T6
X113.2Y-53.4
X113.2Y-58.4
X113.2Y-101.4
X113.2Y-106.4
X118.2Y-53.4
X118.2Y-58.4
X118.2Y-101.4
X118.2Y-106.4
X163.0Y-114.6
X163.0Y-119.6
X168.0Y-114.6
X168.0Y-119.6
X223.5Y-59.5
X223.5Y-64.5
X223.6Y-45.1
X223.6Y-50.1
X228.5Y-59.5
X228.5Y-64.5
X228.6Y-45.1
X228.6Y-50.1
T7
X142.437Y-46.5
X153.563Y-46.5
T0
M30
