G04 #@! TF.GenerationSoftware,KiCad,Pcbnew,(5.1.10)-1*
G04 #@! TF.CreationDate,2022-04-05T17:30:23-07:00*
G04 #@! TF.ProjectId,RacingTeam,52616369-6e67-4546-9561-6d2e6b696361,rev?*
G04 #@! TF.SameCoordinates,Original*
G04 #@! TF.FileFunction,Soldermask,Bot*
G04 #@! TF.FilePolarity,Negative*
%FSLAX46Y46*%
G04 Gerber Fmt 4.6, Leading zero omitted, Abs format (unit mm)*
G04 Created by KiCad (PCBNEW (5.1.10)-1) date 2022-04-05 17:30:23*
%MOMM*%
%LPD*%
G01*
G04 APERTURE LIST*
%ADD10C,3.200000*%
%ADD11O,1.700000X1.700000*%
%ADD12R,1.700000X1.700000*%
%ADD13R,1.800000X1.800000*%
%ADD14C,1.800000*%
%ADD15O,3.581400X1.790700*%
%ADD16O,1.790700X3.581400*%
%ADD17C,2.781300*%
%ADD18R,2.781300X2.781300*%
%ADD19C,1.650000*%
%ADD20C,1.258000*%
%ADD21R,1.258000X1.258000*%
G04 APERTURE END LIST*
D10*
G04 #@! TO.C,REF\u002A\u002A*
X114500000Y-118500000D03*
G04 #@! TD*
G04 #@! TO.C,REF\u002A\u002A*
X114500000Y-36000000D03*
G04 #@! TD*
G04 #@! TO.C,REF\u002A\u002A*
X227000000Y-36000000D03*
G04 #@! TD*
G04 #@! TO.C,REF\u002A\u002A*
X227000000Y-118500000D03*
G04 #@! TD*
D11*
G04 #@! TO.C,JP2*
X153400000Y-103300000D03*
D12*
X153400000Y-105840000D03*
G04 #@! TD*
G04 #@! TO.C,JP1*
X140250000Y-108500000D03*
D11*
X142790000Y-108500000D03*
G04 #@! TD*
D12*
G04 #@! TO.C,J4*
X168800000Y-64300000D03*
G04 #@! TD*
D13*
G04 #@! TO.C,J6*
X228500000Y-59500000D03*
D14*
X228500000Y-64500000D03*
D13*
X223500000Y-59500000D03*
D14*
X223500000Y-64500000D03*
G04 #@! TD*
G04 #@! TO.C,J7*
X223600000Y-50100000D03*
D13*
X223600000Y-45100000D03*
D14*
X228600000Y-50100000D03*
D13*
X228600000Y-45100000D03*
G04 #@! TD*
D12*
G04 #@! TO.C,J2*
X179120000Y-50580000D03*
G04 #@! TD*
G04 #@! TO.C,J3*
X175100000Y-46100000D03*
G04 #@! TD*
D15*
G04 #@! TO.C,D1*
X201080000Y-38000000D03*
X190920000Y-38000000D03*
G04 #@! TD*
D16*
G04 #@! TO.C,D2*
X154700000Y-66560000D03*
X154700000Y-56400000D03*
G04 #@! TD*
D12*
G04 #@! TO.C,J5*
X159200000Y-56800000D03*
G04 #@! TD*
D17*
G04 #@! TO.C,J1*
X142437400Y-46500000D03*
D18*
X153562600Y-46500000D03*
G04 #@! TD*
D14*
G04 #@! TO.C,J8*
X118200000Y-53400000D03*
D13*
X118200000Y-58400000D03*
D14*
X113200000Y-53400000D03*
D13*
X113200000Y-58400000D03*
G04 #@! TD*
D14*
G04 #@! TO.C,J11*
X163000000Y-114600000D03*
D13*
X168000000Y-114600000D03*
D14*
X163000000Y-119600000D03*
D13*
X168000000Y-119600000D03*
G04 #@! TD*
D19*
G04 #@! TO.C,J9*
X149740000Y-118170000D03*
X149740000Y-115630000D03*
X147200000Y-118170000D03*
X147200000Y-115630000D03*
X144660000Y-118170000D03*
X144660000Y-115630000D03*
G04 #@! TD*
D13*
G04 #@! TO.C,J10*
X113200000Y-106400000D03*
D14*
X113200000Y-101400000D03*
D13*
X118200000Y-106400000D03*
D14*
X118200000Y-101400000D03*
G04 #@! TD*
D20*
G04 #@! TO.C,PS1*
X113415000Y-73320000D03*
X113415000Y-75860000D03*
X113415000Y-78400000D03*
X113415000Y-80940000D03*
X113415000Y-86020000D03*
X113415000Y-88560000D03*
D21*
X113415000Y-91100000D03*
G04 #@! TD*
M02*
