999
dxfrw 0.6.3
  0
SECTION
  2
HEADER
  9
$ACADVER
  1
AC1021
  9
$DWGCODEPAGE
  3
ANSI_1252
  9
$INSBASE
 10
0
 20
0
 30
0
  9
$EXTMIN
 10
-3741.336039557122
 20
-5773.372188306229
 30
0
  9
$EXTMAX
 10
6118.644070338235
 20
8030.495808259693
 30
0
  9
$LIMMIN
 10
0
 20
0
  9
$LIMMAX
 10
420
 20
297
  9
$ORTHOMODE
 70
    0
  9
$REGENMODE
 70
    1
  9
$FILLMODE
 70
    1
  9
$QTEXTMODE
 70
    0
  9
$MIRRTEXT
 70
    0
  9
$LTSCALE
 40
1
  9
$ATTMODE
 70
    0
  9
$TEXTSIZE
 40
2.5
  9
$TRACEWID
 40
15.68
  9
$TEXTSTYLE
  7
STANDARD
  9
$CLAYER
  8
0
  9
$CELTYPE
  6
BYLAYER
  9
$CECOLOR
 62
  256
  9
$CELTSCALE
 40
1
  9
$DISPSILH
 70
    0
  9
$DIMSCALE
 40
2.5
  9
$DIMASZ
 40
2.5
  9
$DIMEXO
 40
0.625
  9
$DIMDLI
 40
3.75
  9
$DIMRND
 40
0
  9
$DIMDLE
 40
0
  9
$DIMEXE
 40
1.25
  9
$DIMTP
 40
0
  9
$DIMTM
 40
0
  9
$DIMTXT
 40
2.5
  9
$DIMCEN
 40
2.5
  9
$DIMTSZ
 40
0
  9
$DIMTOL
 70
    0
  9
$DIMLIM
 70
    0
  9
$DIMTIH
 70
    0
  9
$DIMTOH
 70
    0
  9
$DIMSE1
 70
    0
  9
$DIMSE2
 70
    0
  9
$DIMTAD
 70
    1
  9
$DIMZIN
 70
    8
  9
$DIMBLK
  1

  9
$DIMASO
 70
    1
  9
$DIMSHO
 70
    1
  9
$DIMPOST
  1

  9
$DIMAPOST
  1

  9
$DIMALT
 70
    0
  9
$DIMALTD
 70
    3
  9
$DIMALTF
 40
0.03937
  9
$DIMLFAC
 40
1
  9
$DIMTOFL
 70
    1
  9
$DIMTVP
 40
0
  9
$DIMTIX
 70
    0
  9
$DIMSOXD
 70
    0
  9
$DIMSAH
 70
    0
  9
$DIMBLK1
  1

  9
$DIMBLK2
  1

  9
$DIMSTYLE
  2
Standard
  9
$DIMCLRD
 70
    0
  9
$DIMCLRE
 70
    0
  9
$DIMCLRT
 70
    0
  9
$DIMTFAC
 40
1
  9
$DIMGAP
 40
0.625
  9
$DIMJUST
 70
    0
  9
$DIMSD1
 70
    0
  9
$DIMSD2
 70
    0
  9
$DIMTOLJ
 70
    0
  9
$DIMTZIN
 70
    8
  9
$DIMALTZ
 70
    0
  9
$DIMALTTZ
 70
    0
  9
$DIMUPT
 70
    0
  9
$DIMDEC
 70
    2
  9
$DIMTDEC
 70
    2
  9
$DIMALTU
 70
    2
  9
$DIMALTTD
 70
    3
  9
$DIMTXSTY
  7
STANDARD
  9
$DIMAUNIT
 70
    0
  9
$DIMADEC
 70
    0
  9
$DIMALTRND
 40
0
  9
$DIMAZIN
 70
    0
  9
$DIMDSEP
 70
   44
  9
$DIMATFIT
 70
    3
  9
$DIMFRAC
 70
    0
  9
$DIMLDRBLK
  1
STANDARD
  9
$DIMLUNIT
 70
    2
  9
$DIMLWD
 70
   -2
  9
$DIMLWE
 70
   -2
  9
$DIMTMOVE
 70
    0
  9
$DIMFXL
 40
1
  9
$DIMFXLON
 70
    0
  9
$DIMJOGANG
 40
0.7854
  9
$DIMTFILL
 70
    0
  9
$DIMTFILLCLR
 70
    0
  9
$DIMARCSYM
 70
    0
  9
$DIMLTYPE
  6

  9
$DIMLTEX1
  6

  9
$DIMLTEX2
  6

  9
$LUNITS
 70
    2
  9
$LUPREC
 70
    4
  9
$SKETCHINC
 40
1
  9
$FILLETRAD
 40
0
  9
$AUNITS
 70
    0
  9
$AUPREC
 70
    2
  9
$MENU
  1
.
  9
$ELEVATION
 40
0
  9
$PELEVATION
 40
0
  9
$THICKNESS
 40
0
  9
$LIMCHECK
 70
    0
  9
$CHAMFERA
 40
0
  9
$CHAMFERB
 40
0
  9
$CHAMFERC
 40
0
  9
$CHAMFERD
 40
0
  9
$SKPOLY
 70
    0
  9
$USRTIMER
 70
    1
  9
$ANGBASE
 50
0
  9
$ANGDIR
 70
    0
  9
$PDMODE
 70
   34
  9
$PDSIZE
 40
0
  9
$PLINEWID
 40
0
  9
$SPLFRAME
 70
    0
  9
$SPLINETYPE
 70
    2
  9
$SPLINESEGS
 70
    8
  9
$HANDSEED
  5
20000
  9
$SURFTAB1
 70
    6
  9
$SURFTAB2
 70
    6
  9
$SURFTYPE
 70
    6
  9
$SURFU
 70
    6
  9
$SURFV
 70
    6
  9
$UCSBASE
  2

  9
$UCSNAME
  2

  9
$UCSORG
 10
0
 20
0
 30
0
  9
$UCSXDIR
 10
1
 20
0
 30
0
  9
$UCSYDIR
 10
0
 20
1
 30
0
  9
$UCSORTHOREF
  2

  9
$UCSORTHOVIEW
 70
    0
  9
$UCSORGTOP
 10
0
 20
0
 30
0
  9
$UCSORGBOTTOM
 10
0
 20
0
 30
0
  9
$UCSORGLEFT
 10
0
 20
0
 30
0
  9
$UCSORGRIGHT
 10
0
 20
0
 30
0
  9
$UCSORGFRONT
 10
0
 20
0
 30
0
  9
$UCSORGBACK
 10
0
 20
0
 30
0
  9
$PUCSBASE
  2

  9
$PUCSNAME
  2

  9
$PUCSORG
 10
0
 20
0
 30
0
  9
$PUCSXDIR
 10
1
 20
0
 30
0
  9
$PUCSYDIR
 10
0
 20
1
 30
0
  9
$PUCSORTHOREF
  2

  9
$PUCSORTHOVIEW
 70
    0
  9
$PUCSORGTOP
 10
0
 20
0
 30
0
  9
$PUCSORGBOTTOM
 10
0
 20
0
 30
0
  9
$PUCSORGLEFT
 10
0
 20
0
 30
0
  9
$PUCSORGRIGHT
 10
0
 20
0
 30
0
  9
$PUCSORGFRONT
 10
0
 20
0
 30
0
  9
$PUCSORGBACK
 10
0
 20
0
 30
0
  9
$USERI1
 70
    0
  9
$USERI2
 70
    0
  9
$USERI3
 70
    0
  9
$USERI4
 70
    0
  9
$USERI5
 70
    0
  9
$USERR1
 40
0
  9
$USERR2
 40
0
  9
$USERR3
 40
0
  9
$USERR4
 40
0
  9
$USERR5
 40
0
  9
$WORLDVIEW
 70
    1
  9
$SHADEDGE
 70
    3
  9
$SHADEDIF
 70
   70
  9
$TILEMODE
 70
    1
  9
$MAXACTVP
 70
   64
  9
$PINSBASE
 10
0
 20
0
 30
0
  9
$PLIMCHECK
 70
    0
  9
$PEXTMIN
 10
0
 20
0
 30
0
  9
$PEXTMAX
 10
0
 20
0
 30
0
  9
$SNAPSTYLE
 70
    0
  9
$PLIMMIN
 10
0
 20
0
  9
$PLIMMAX
 10
210
 20
297
  9
$UNITMODE
 70
    0
  9
$VISRETAIN
 70
    1
  9
$PLINEGEN
 70
    0
  9
$PSLTSCALE
 70
    1
  9
$TREEDEPTH
 70
 3020
  9
$CMLSTYLE
  2
Standard
  9
$CMLJUST
 70
    0
  9
$CMLSCALE
 40
20
  9
$PROXYGRAPHICS
 70
    1
  9
$MEASUREMENT
 70
    1
  9
$CELWEIGHT
370
   -1
  9
$ENDCAPS
280
    0
  9
$JOINSTYLE
280
    0
  9
$LWDISPLAY
290
    0
  9
$INSUNITS
 70
    4
  9
$HYPERLINKBASE
  1

  9
$STYLESHEET
  1

  9
$XEDIT
290
    1
  9
$CEPSNTYPE
380
    0
  9
$PSTYLEMODE
290
    1
  9
$EXTNAMES
290
    1
  9
$PSVPSCALE
 40
1
  9
$OLESTARTUP
290
    0
  9
$SORTENTS
280
  127
  9
$INDEXCTL
280
    0
  9
$HIDETEXT
280
    1
  9
$XCLIPFRAME
290
    0
  9
$HALOGAP
280
    0
  9
$OBSCOLOR
 70
  257
  9
$OBSLTYPE
280
    0
  9
$INTERSECTIONDISPLAY
280
    0
  9
$INTERSECTIONCOLOR
 70
  257
  9
$DIMASSOC
280
    1
  9
$PROJECTNAME
  1

  9
$CAMERADISPLAY
290
    0
  9
$LENSLENGTH
 40
50
  9
$CAMERAHEIGHT
 40
0
  9
$STEPSPERSEC
 40
2
  9
$STEPSIZE
 40
50
  9
$3DDWFPREC
 40
2
  9
$PSOLWIDTH
 40
5
  9
$PSOLHEIGHT
 40
80
  9
$LOFTANG1
 40
1.570796326794897
  9
$LOFTANG2
 40
1.570796326794897
  9
$LOFTMAG1
 40
0
  9
$LOFTMAG2
 40
0
  9
$LOFTPARAM
 70
    7
  9
$LOFTNORMALS
280
    1
  9
$LATITUDE
 40
1
  9
$LONGITUDE
 40
1
  9
$NORTHDIRECTION
 40
0
  9
$TIMEZONE
 70
-8000
  9
$LIGHTGLYPHDISPLAY
280
    1
  9
$TILEMODELIGHTSYNCH
280
    1
  9
$SOLIDHIST
280
    1
  9
$SHOWHIST
280
    1
  9
$DWFFRAME
280
    2
  9
$DGNFRAME
280
    0
  9
$REALWORLDSCALE
290
    1
  9
$INTERFERECOLOR
 62
    1
  9
$CSHADOW
280
    0
  9
$SHADOWPLANELOCATION
 40
0
  0
ENDSEC
  0
SECTION
  2
CLASSES
  0
ENDSEC
  0
SECTION
  2
TABLES
  0
TABLE
  2
VPORT
  5
8
330
0
100
AcDbSymbolTable
 70
    1
  0
VPORT
  5
31
330
2
100
AcDbSymbolTableRecord
100
AcDbViewportTableRecord
  2
*ACTIVE
 70
    0
 10
0
 20
0
 11
1
 21
1
 12
10798.60879874293
 22
5984.771141471988
 13
0
 23
0
 14
10
 24
10
 15
10
 25
10
 16
0
 26
0
 36
1
 17
0
 27
0
 37
0
 40
21568.30565960436
 41
1.993297587131367
 42
50
 43
0
 44
0
 50
0
 51
0
 71
    0
 72
  100
 73
    1
 74
    3
 75
    0
 76
    1
 77
    0
 78
    0
281
    0
 65
    1
110
0
120
0
130
0
111
1
121
0
131
0
112
0
122
1
132
0
 79
    0
146
0
348
10020
 60
    7
 61
    5
292
1
282
    1
141
0
142
0
 63
  250
421
3358443
  0
ENDTAB
  0
TABLE
  2
LTYPE
  5
5
330
0
100
AcDbSymbolTable
 70
    4
  0
LTYPE
  5
14
330
5
100
AcDbSymbolTableRecord
100
AcDbLinetypeTableRecord
  2
ByBlock
 70
    0
  3

 72
   65
 73
    0
 40
0
  0
LTYPE
  5
15
330
5
100
AcDbSymbolTableRecord
100
AcDbLinetypeTableRecord
  2
ByLayer
 70
    0
  3

 72
   65
 73
    0
 40
0
  0
LTYPE
  5
16
330
5
100
AcDbSymbolTableRecord
100
AcDbLinetypeTableRecord
  2
Continuous
 70
    0
  3
Solid line
 72
   65
 73
    0
 40
0
  0
LTYPE
  5
32
330
5
100
AcDbSymbolTableRecord
100
AcDbLinetypeTableRecord
  2
DOT
 70
    0
  3
Dot . . . . . . . . . . . . . . . . . . . . . .
 72
   65
 73
    2
 40
6.35
 49
0
 74
    0
 49
-6.35
 74
    0
  0
LTYPE
  5
33
330
5
100
AcDbSymbolTableRecord
100
AcDbLinetypeTableRecord
  2
DOTTINY
 70
    0
  3
Dot (.15x) .....................................
 72
   65
 73
    2
 40
0.9525
 49
0
 74
    0
 49
-0.9525
 74
    0
  0
LTYPE
  5
34
330
5
100
AcDbSymbolTableRecord
100
AcDbLinetypeTableRecord
  2
DOT2
 70
    0
  3
Dot (.5x) .....................................
 72
   65
 73
    2
 40
3.175
 49
0
 74
    0
 49
-3.175
 74
    0
  0
LTYPE
  5
35
330
5
100
AcDbSymbolTableRecord
100
AcDbLinetypeTableRecord
  2
DOTX2
 70
    0
  3
Dot (2x) .  .  .  .  .  .  .  .  .  .  .  .  .
 72
   65
 73
    2
 40
12.7
 49
0
 74
    0
 49
-12.7
 74
    0
  0
LTYPE
  5
36
330
5
100
AcDbSymbolTableRecord
100
AcDbLinetypeTableRecord
  2
DASHED
 70
    0
  3
Dashed _ _ _ _ _ _ _ _ _ _ _ _ _ _ _ _ _
 72
   65
 73
    2
 40
19.05
 49
12.7
 74
    0
 49
-6.35
 74
    0
  0
LTYPE
  5
37
330
5
100
AcDbSymbolTableRecord
100
AcDbLinetypeTableRecord
  2
DASHEDTINY
 70
    0
  3
Dashed (.15x) _ _ _ _ _ _ _ _ _ _ _ _ _ _ _ _ _
 72
   65
 73
    2
 40
2.8575
 49
1.905
 74
    0
 49
-0.9525
 74
    0
  0
LTYPE
  5
38
330
5
100
AcDbSymbolTableRecord
100
AcDbLinetypeTableRecord
  2
DASHED2
 70
    0
  3
Dashed (.5x) _ _ _ _ _ _ _ _ _ _ _ _ _ _ _ _ _
 72
   65
 73
    2
 40
9.524999999999999
 49
6.35
 74
    0
 49
-3.175
 74
    0
  0
LTYPE
  5
39
330
5
100
AcDbSymbolTableRecord
100
AcDbLinetypeTableRecord
  2
DASHEDX2
 70
    0
  3
Dashed (2x) ____  ____  ____  ____  ____  ___
 72
   65
 73
    2
 40
38.09999999999999
 49
25.4
 74
    0
 49
-12.7
 74
    0
  0
LTYPE
  5
3A
330
5
100
AcDbSymbolTableRecord
100
AcDbLinetypeTableRecord
  2
DASHDOT
 70
    0
  3
Dash dot __ . __ . __ . __ . __ . __ . __ . __
 72
   65
 73
    4
 40
25.4
 49
12.7
 74
    0
 49
-6.35
 74
    0
 49
0
 74
    0
 49
-6.35
 74
    0
  0
LTYPE
  5
3B
330
5
100
AcDbSymbolTableRecord
100
AcDbLinetypeTableRecord
  2
DASHDOTTINY
 70
    0
  3
Dash dot (.15x) _._._._._._._._._._._._._._._.
 72
   65
 73
    4
 40
3.81
 49
1.905
 74
    0
 49
-0.9525
 74
    0
 49
0
 74
    0
 49
-0.9525
 74
    0
  0
LTYPE
  5
3C
330
5
100
AcDbSymbolTableRecord
100
AcDbLinetypeTableRecord
  2
DASHDOT2
 70
    0
  3
Dash dot (.5x) _._._._._._._._._._._._._._._.
 72
   65
 73
    4
 40
12.7
 49
6.35
 74
    0
 49
-3.175
 74
    0
 49
0
 74
    0
 49
-3.175
 74
    0
  0
LTYPE
  5
3D
330
5
100
AcDbSymbolTableRecord
100
AcDbLinetypeTableRecord
  2
DASHDOTX2
 70
    0
  3
Dash dot (2x) ____  .  ____  .  ____  .  ___
 72
   65
 73
    4
 40
50.8
 49
25.4
 74
    0
 49
-12.7
 74
    0
 49
0
 74
    0
 49
-12.7
 74
    0
  0
LTYPE
  5
3E
330
5
100
AcDbSymbolTableRecord
100
AcDbLinetypeTableRecord
  2
DIVIDE
 70
    0
  3
Divide ____ . . ____ . . ____ . . ____ . . ____
 72
   65
 73
    6
 40
31.75
 49
12.7
 74
    0
 49
-6.35
 74
    0
 49
0
 74
    0
 49
-6.35
 74
    0
 49
0
 74
    0
 49
-6.35
 74
    0
  0
LTYPE
  5
3F
330
5
100
AcDbSymbolTableRecord
100
AcDbLinetypeTableRecord
  2
DIVIDETINY
 70
    0
  3
Divide (.15x) __..__..__..__..__..__..__..__.._
 72
   65
 73
    6
 40
4.7625
 49
1.905
 74
    0
 49
-0.9525
 74
    0
 49
0
 74
    0
 49
-0.9525
 74
    0
 49
0
 74
    0
 49
-0.9525
 74
    0
  0
LTYPE
  5
40
330
5
100
AcDbSymbolTableRecord
100
AcDbLinetypeTableRecord
  2
DIVIDE2
 70
    0
  3
Divide (.5x) __..__..__..__..__..__..__..__.._
 72
   65
 73
    6
 40
15.875
 49
6.35
 74
    0
 49
-3.175
 74
    0
 49
0
 74
    0
 49
-3.175
 74
    0
 49
0
 74
    0
 49
-3.175
 74
    0
  0
LTYPE
  5
41
330
5
100
AcDbSymbolTableRecord
100
AcDbLinetypeTableRecord
  2
DIVIDEX2
 70
    0
  3
Divide (2x) ________  .  .  ________  .  .  _
 72
   65
 73
    6
 40
63.5
 49
25.4
 74
    0
 49
-12.7
 74
    0
 49
0
 74
    0
 49
-12.7
 74
    0
 49
0
 74
    0
 49
-12.7
 74
    0
  0
LTYPE
  5
42
330
5
100
AcDbSymbolTableRecord
100
AcDbLinetypeTableRecord
  2
BORDER
 70
    0
  3
Border __ __ . __ __ . __ __ . __ __ . __ __ .
 72
   65
 73
    6
 40
44.45
 49
12.7
 74
    0
 49
-6.35
 74
    0
 49
12.7
 74
    0
 49
-6.35
 74
    0
 49
0
 74
    0
 49
-6.35
 74
    0
  0
LTYPE
  5
43
330
5
100
AcDbSymbolTableRecord
100
AcDbLinetypeTableRecord
  2
BORDERTINY
 70
    0
  3
Border (.15x) __.__.__.__.__.__.__.__.__.__.__.
 72
   65
 73
    6
 40
6.6675
 49
1.905
 74
    0
 49
-0.9525
 74
    0
 49
1.905
 74
    0
 49
-0.9525
 74
    0
 49
0
 74
    0
 49
-0.9525
 74
    0
  0
LTYPE
  5
44
330
5
100
AcDbSymbolTableRecord
100
AcDbLinetypeTableRecord
  2
BORDER2
 70
    0
  3
Border (.5x) __.__.__.__.__.__.__.__.__.__.__.
 72
   65
 73
    6
 40
22.225
 49
6.35
 74
    0
 49
-3.175
 74
    0
 49
6.35
 74
    0
 49
-3.175
 74
    0
 49
0
 74
    0
 49
-3.175
 74
    0
  0
LTYPE
  5
45
330
5
100
AcDbSymbolTableRecord
100
AcDbLinetypeTableRecord
  2
BORDERX2
 70
    0
  3
Border (2x) ____  ____  .  ____  ____  .  ___
 72
   65
 73
    6
 40
88.89999999999999
 49
25.4
 74
    0
 49
-12.7
 74
    0
 49
25.4
 74
    0
 49
-12.7
 74
    0
 49
0
 74
    0
 49
-12.7
 74
    0
  0
LTYPE
  5
46
330
5
100
AcDbSymbolTableRecord
100
AcDbLinetypeTableRecord
  2
CENTER
 70
    0
  3
Center ____ _ ____ _ ____ _ ____ _ ____ _ ____
 72
   65
 73
    4
 40
50.8
 49
31.75
 74
    0
 49
-6.35
 74
    0
 49
6.35
 74
    0
 49
-6.35
 74
    0
  0
LTYPE
  5
47
330
5
100
AcDbSymbolTableRecord
100
AcDbLinetypeTableRecord
  2
CENTERTINY
 70
    0
  3
Center (.15x) ___ _ ___ _ ___ _ ___ _ ___ _ ___
 72
   65
 73
    4
 40
7.62
 49
4.7625
 74
    0
 49
-0.9525
 74
    0
 49
0.9525
 74
    0
 49
-0.9525
 74
    0
  0
LTYPE
  5
48
330
5
100
AcDbSymbolTableRecord
100
AcDbLinetypeTableRecord
  2
CENTER2
 70
    0
  3
Center (.5x) ___ _ ___ _ ___ _ ___ _ ___ _ ___
 72
   65
 73
    4
 40
28.575
 49
19.05
 74
    0
 49
-3.175
 74
    0
 49
3.175
 74
    0
 49
-3.175
 74
    0
  0
LTYPE
  5
49
330
5
100
AcDbSymbolTableRecord
100
AcDbLinetypeTableRecord
  2
CENTERX2
 70
    0
  3
Center (2x) ________  __  ________  __  _____
 72
   65
 73
    4
 40
101.6
 49
63.5
 74
    0
 49
-12.7
 74
    0
 49
12.7
 74
    0
 49
-12.7
 74
    0
  0
ENDTAB
  0
TABLE
  2
LAYER
  5
2
330
0
100
AcDbSymbolTable
 70
    1
  0
LAYER
  5
10
330
2
100
AcDbSymbolTableRecord
100
AcDbLayerTableRecord
  2
0
 70
    0
 62
    7
  6
CONTINUOUS
370
    0
390
F
  0
ENDTAB
  0
TABLE
  2
STYLE
  5
3
330
0
100
AcDbSymbolTable
 70
    3
  0
STYLE
  5
4A
330
2
100
AcDbSymbolTableRecord
100
AcDbTextStyleTableRecord
  2
Standard
 70
    0
 40
0
 41
1
 50
0
 71
    0
 42
1
  3
txt
  4

  0
ENDTAB
  0
TABLE
  2
VIEW
  5
6
330
0
100
AcDbSymbolTable
 70
    0
  0
ENDTAB
  0
TABLE
  2
UCS
  5
7
330
0
100
AcDbSymbolTable
 70
    0
  0
ENDTAB
  0
TABLE
  2
APPID
  5
9
330
0
100
AcDbSymbolTable
 70
    1
  0
APPID
  5
12
330
9
100
AcDbSymbolTableRecord
100
AcDbRegAppTableRecord
  2
ACAD
 70
    0
  0
APPID
  5
4B
330
9
100
AcDbSymbolTableRecord
100
AcDbRegAppTableRecord
  2
LibreCad
 70
    0
  0
ENDTAB
  0
TABLE
  2
DIMSTYLE
  5
A
330
0
100
AcDbSymbolTable
 70
    1
100
AcDbDimStyleTable
 71
    1
  0
DIMSTYLE
105
4C
330
A
100
AcDbSymbolTableRecord
100
AcDbDimStyleTableRecord
  2
Standard
 70
    0
 40
1
 41
2.5
 42
0.625
 43
0.38
 44
1.25
 45
0
 46
0
 47
0
 48
0
 49
1
140
2.5
141
0.09
142
2.5
143
25.4
144
1
145
0
146
1
147
0.625
148
0
 71
    0
 72
    0
 73
    0
 74
    1
 75
    0
 76
    0
 77
    0
 78
    1
 79
    0
170
    0
171
    2
172
    0
173
    0
174
    0
175
    0
176
    0
177
    0
178
    0
179
    0
271
    2
272
    4
273
    2
274
    2
275
    0
276
    0
277
    2
278
    0
279
    0
280
    0
281
    0
282
    0
283
    1
284
    0
285
    0
286
    0
288
    0
289
    3
340
standard
341

371
   -2
372
   -2
  0
ENDTAB
  0
TABLE
  2
BLOCK_RECORD
  5
1
330
0
100
AcDbSymbolTable
 70
    2
  0
BLOCK_RECORD
  5
1F
330
1
100
AcDbSymbolTableRecord
100
AcDbBlockTableRecord
  2
*Model_Space
 70
    0
280
    1
281
    0
  0
BLOCK_RECORD
  5
1E
330
1
100
AcDbSymbolTableRecord
100
AcDbBlockTableRecord
  2
*Paper_Space
 70
    0
280
    1
281
    0
  0
ENDTAB
  0
ENDSEC
  0
SECTION
  2
BLOCKS
  0
BLOCK
  5
20
330
1F
100
AcDbEntity
  8
0
100
AcDbBlockBegin
  2
*Model_Space
 70
    0
 10
0
 20
0
 30
0
  3
*Model_Space
  1

  0
ENDBLK
  5
21
330
1F
100
AcDbEntity
  8
0
100
AcDbBlockEnd
  0
BLOCK
  5
1C
330
1B
100
AcDbEntity
  8
0
100
AcDbBlockBegin
  2
*Paper_Space
 70
    0
 10
0
 20
0
 30
0
  3
*Paper_Space
  1

  0
ENDBLK
  5
1D
330
1F
100
AcDbEntity
  8
0
100
AcDbBlockEnd
  0
ENDSEC
  0
SECTION
  2
ENTITIES
  0
LWPOLYLINE
  5
4D
100
AcDbEntity
  8
0
  6
ByLayer
 62
  256
370
   -1
100
AcDbPolyline
 90
   64
 70
    1
 43
0
 10
-1281.355929661765
 20
7675.527756693772
 10
-2223.771699661765
 20
7539.66043169377
 10
-3017.332494661765
 20
7425.253041693772
 10
-3739.075284661765
 20
7321.19941669377
 42
0.000445999999999999
 10
-3740.105929661765
 20
7321.049891693772
 42
0.372231000000281
 10
-3740.621449661765
 20
7320.453921693772
 10
-3740.982854661997
 20
6542.116321693298
 42
7.399999999997902e-005
 10
-3741.253749660216
 20
5686.254061694311
 42
4.400000000001696e-005
 10
-3741.335889661685
 20
4669.617401696682
 42
8.700000000006916e-005
 10
-3740.988424662013
 20
2751.790101694776
 42
0.002008000000000014
 10
-3738.598159661758
 20
2204.992741693766
 42
0.007286000000000053
 10
-3731.833459661766
 20
1910.411301693774
 42
0.01509300000000013
 10
-3716.265844661764
 20
1680.867401693774
 42
0.02489100000000019
 10
-3582.955409661765
 20
784.7000116937693
 42
0.02235899999999994
 10
-3357.763689661764
 20
-126.9924383062207
 42
0.02229299999999996
 10
-3051.183629661766
 20
-1017.845843306223
 42
0.0243260000000001
 10
-2674.160374661767
 20
-1851.632598306227
 42
0.01536900000000006
 10
-2374.052704661764
 20
-2395.734528306229
 42
0.01694699999999998
 10
-2050.172534661762
 20
-2902.514433306234
 42
0.01701199999999987
 10
-1693.889974661766
 20
-3384.470288306226
 42
0.01573599999999988
 10
-1296.633469661769
 20
-3854.132598306227
 42
0.009661999999999862
 10
-1187.763859661769
 20
-3970.327058306228
 42
0.002785999999999923
 10
-1015.054004661775
 20
-4145.695558306223
 42
0.002776000000000008
 10
-840.5755796617657
 20
-4318.961628306229
 42
0.009859999999999987
 10
-725.9628046617709
 20
-4427.16520830622
 42
0.01379900000000008
 10
-308.8987496617674
 20
-4785.155733306223
 42
0.01521499999999987
 10
114.2083703382295
 20
-5107.674973306226
 42
0.0150909999999999
 10
559.3039703382274
 20
-5406.140813306225
 42
0.01313600000000002
 10
1042.394070338233
 20
-5691.954148306228
 10
1188.644070338235
 20
-5773.372188306229
 10
1334.894070338234
 20
-5691.97344830623
 42
0.01318000000000005
 10
1817.509355338237
 20
-5406.449728306228
 42
0.01507399999999987
 10
2262.810670338227
 20
-5107.819708306234
 42
0.01519300000000014
 10
2686.255725338232
 20
-4785.067453306231
 42
0.01381899999999996
 10
3103.250945338227
 20
-4427.165208306234
 42
0.01053100000000009
 10
3268.557750338228
 20
-4270.682183306233
 42
0.005380000000000167
 10
3469.747375338234
 20
-4067.711628306226
 42
0.00537900000000003
 10
3668.412020338233
 20
-3858.470353306229
 42
0.009610999999999981
 10
3826.506500338232
 20
-3681.632598306231
 42
0.0192929999999999
 10
4266.26958533823
 20
-3128.480348306236
 42
0.01934999999999999
 10
4661.628525338234
 20
-2543.606723306232
 42
0.01917200000000006
 10
5013.915090338234
 20
-1924.576458306229
 42
0.01814999999999998
 10
5324.688980338233
 20
-1269.132598306238
 42
0.01147200000000011
 10
5484.520450338232
 20
-873.0080283062375
 42
0.01031100000000003
 10
5632.107325338235
 20
-455.7140033062292
 42
0.01025099999999975
 10
5763.254070338229
 20
-29.9785183062404
 42
0.01095500000000003
 10
5873.756970338231
 20
391.4911166937586
 42
0.009709000000000158
 10
5958.870640338233
 20
781.086611693768
 42
0.00992399999999999
 10
6028.117900338233
 20
1170.864796693772
 42
0.01027299999999986
 10
6079.555525338235
 20
1548.343791693766
 42
0.01280500000000005
 10
6111.112490338237
 20
1900.867401693769
 42
0.01455799999999998
 10
6115.535555338254
 20
2028.809731693775
 42
0.0006819999999999243
 10
6117.298390338314
 20
2461.087146693652
 42
0.0005969999999998468
 10
6118.375150337815
 20
3170.038091693181
 42
7.899999999997355e-005
 10
6118.624030338145
 20
4669.390836692939
 10
6118.644070338235
 20
7320.41427169377
 10
6102.394070338234
 20
7323.31441669377
 42
0.008476000000000034
 10
6050.874770343304
 20
7331.610561668873
 42
2.000000000060178e-006
 10
3630.769935335741
 20
7679.33195668907
 10
1188.801800338235
 20
8030.18368669377
 42
0.06051299999999878
 10
1181.397710338235
 20
8030.345266693768
 42
0.01100699999999979
 10
1177.087955338235
 20
8029.820901693769
 10
455.7967003367376
 20
7925.90224169381
 42
1.4999999999891e-005
 10
-338.6671446608379
 20
7811.417366690934
 42
8.99999999994669e-006
  0
LWPOLYLINE
  5
4E
100
AcDbEntity
  8
0
  6
ByLayer
 62
  256
370
   -1
100
AcDbPolyline
 90
   44
 70
    1
 43
0
 10
3560.250685337815
 20
7235.68726169318
 42
-4.900000000010222e-005
 10
4467.880010338558
 20
7105.092841693666
 42
-8.099999999995314e-005
 10
5232.998825345188
 20
6994.799676686525
 42
-9.999999999180667e-007
 10
5927.136310321987
 20
6894.621111673126
 42
-0.0474949999999985
 10
5932.394070338235
 20
6893.34418669377
 42
-0.3103009999999643
 10
5935.902125338234
 20
6888.591616693772
 42
-0.002454999999999988
 10
5937.352855338237
 20
6838.91412669377
 42
-0.005065999999999995
 10
5938.382340338238
 20
6766.178941693766
 42
-0.001004999999999973
 10
5938.644070338232
 20
6636.024326693759
 42
-0.00131599999999984
 10
5938.386535338233
 20
6538.184351693774
 42
-0.002195000000000121
 10
5937.591325338246
 20
6455.819746693711
 42
-0.0001939999999997691
 10
5936.530355338239
 20
6382.315871693802
 42
-0.409878999999952
 10
5935.060260338235
 20
6380.86740169377
 42
-0.03568700000000094
 10
5932.124845338236
 20
6381.077181693771
 10
5238.38249033934
 20
6480.742401693016
 42
-3.300000000016037e-005
 10
4474.783000332071
 20
6590.495976695791
 42
-1.999999999991111e-005
 10
3568.423845338286
 20
6720.867401693016
 42
9.300000000000988e-005
 10
2661.166620338365
 20
6851.232006693259
 42
0.0001539999999999382
 10
1894.604335340206
 20
6960.992401696742
 42
6.999999999982556e-006
 10
1202.23924033566
 20
7059.901316693808
 42
0.03548600000000014
 10
1188.644070338235
 20
7060.86740169377
 42
0.03548599999999958
 10
1175.048900339752
 20
7059.901316694915
 42
6.999999999982556e-006
 10
482.6838053365645
 20
6960.99240169581
 42
0.0001539999999999382
 10
-283.8784796619439
 20
6851.23200669419
 42
9.300000000000988e-005
 10
-1191.135704670101
 20
6720.867401696742
 42
-1.999999999991111e-005
 10
-2097.494859665399
 20
6590.495976697654
 42
-3.300000000016037e-005
 10
-2861.094349664451
 20
6480.742401693073
 10
-3554.836704661765
 20
6381.077181693771
 42
-0.03568699999999961
 10
-3557.772119661765
 20
6380.867401693771
 42
-0.4098789999999136
 10
-3559.242214661761
 20
6382.315871693784
 42
-0.0001939999999999912
 10
-3560.303184661767
 20
6455.819746693783
 42
-0.002195000000000121
 10
-3561.098394661762
 20
6538.184351693782
 42
-0.001316000000000062
 10
-3561.355929661764
 20
6636.024326693779
 42
-0.001006000000000062
 10
-3561.094189661768
 20
6766.177196693779
 42
-0.00506499999999992
 10
-3560.064689661765
 20
6838.914171693771
 42
-0.002456000000000062
 10
-3558.613904661765
 20
6888.593296693773
 42
-0.3100879999999757
 10
-3555.105929661765
 20
6893.349621693771
 42
-0.04776600000000018
 10
-3541.783944651484
 20
6896.588366746902
 42
-9.999999999180667e-007
 10
-1190.686229705811
 20
7235.163766741753
 42
-2.000000000060178e-006
 10
1154.430985349939
 20
7572.866896685968
 42
-0.02514600000000003
 10
1180.250685338235
 20
7575.268166693771
 42
-0.04607100000000025
 10
1191.739220340736
 20
7574.697601690888
 42
-6.00000000002249e-006
 10
1885.194665336545
 20
7475.763461693889
 42
-0.0001690000000000869
 10
2652.083110338252
 20
7366.079246693756
 42
-0.0001020000000000654
  0
LWPOLYLINE
  5
4F
100
AcDbEntity
  8
0
  6
ByLayer
 62
  256
370
   -1
100
AcDbPolyline
 90
   72
 70
    1
 43
0
 10
1591.144070338235
 20
6475.594736693773
 42
-0.002563000000000012
 10
1661.531830338235
 20
6472.967926693775
 42
-0.001520999999999964
 10
1745.409695338238
 20
6469.151431693772
 42
-0.001522000000000024
 10
1829.048680338235
 20
6464.835651693774
 42
-0.002622000000000023
 10
1898.644070338235
 20
6460.665911693771
 42
-0.02173499999999997
 10
2907.557345338235
 20
6350.715361693771
 42
-0.02062800000000003
 10
3921.088880338236
 20
6152.359706693773
 42
-0.02056400000000004
 10
4918.041740338233
 20
5870.38487169377
 42
-0.02125400000000004
 10
5877.329695338234
 20
5510.114806693772
 10
5928.515320338235
 20
5488.367401693771
 10
5928.579695338849
 20
3740.782071693877
 42
-0.0001549999999999675
 10
5928.263505338575
 20
2584.387701693639
 42
-0.002081999999999821
 10
5926.249895338226
 20
2160.241016693775
 42
-0.00574599999999973
 10
5921.384095338235
 20
1921.784811693774
 42
-0.01446200000000003
 10
5910.824565338236
 20
1748.367401693771
 42
-0.02141900000000013
 10
5816.354895338235
 20
1039.938926693766
 42
-0.01835699999999998
 10
5657.937350338233
 20
304.3125166937689
 42
-0.01811299999999993
 10
5443.165380338232
 20
-428.6383733062362
 42
-0.01924999999999993
 10
5179.687720338234
 20
-1129.132598306233
 42
-0.01890700000000008
 10
4871.674915338232
 20
-1790.124538306231
 42
-0.01960099999999998
 10
4518.003315338232
 20
-2417.865143306231
 42
-0.0197999999999999
 10
4119.974190338235
 20
-3009.93690830623
 42
-0.02024600000000007
 10
3679.148650338235
 20
-3564.132598306229
 42
-0.00996900000000025
 10
3475.394580338231
 20
-3790.727313306232
 42
-0.008275000000000032
 10
3249.921065338232
 20
-4023.78521830623
 42
-0.008262999999999899
 10
3016.456600338232
 20
-4249.653143306229
 42
-0.009840000000000055
 10
2788.644070338232
 20
-4454.618633306231
 42
-0.01173900000000018
 10
2479.899045338232
 20
-4709.176683306231
 42
-0.01125600000000003
 10
2155.252610338232
 20
-4952.666138306229
 42
-0.01115800000000008
 10
1817.04399533823
 20
-5183.395218306231
 42
-0.0110340000000001
 10
1467.635360338225
 20
-5399.694508306236
 42
-0.002713000000000009
 10
1367.607490338228
 20
-5457.875003306232
 42
-0.003953999999999919
 10
1278.764270338228
 20
-5507.976813306237
 42
-0.00118400000000001
 10
1200.360380338226
 20
-5551.135723306234
 42
-0.1258669999999998
 10
1188.644070338235
 20
-5554.132598306229
 42
-0.1258669999999996
 10
1176.927760338227
 20
-5551.135723306226
 42
-0.00118400000000001
 10
1098.523870338222
 20
-5507.976813306226
 42
-0.003953999999999919
 10
1009.680650338237
 20
-5457.875003306229
 42
-0.002713000000000231
 10
909.6527803382241
 20
-5399.694508306223
 42
-0.01100699999999979
 10
559.9441303382318
 20
-5183.235538306226
 42
-0.01118399999999989
 10
221.9913803382315
 20
-4952.707678306226
 42
-0.01128299999999996
 10
-102.3768946617674
 20
-4709.398573306225
 42
-0.01171200000000005
 10
-411.3559296617668
 20
-4454.618633306228
 42
-0.009840000000000277
 10
-639.1684596617715
 20
-4249.653143306223
 42
-0.008263000000000121
 10
-872.6329246617779
 20
-4023.785218306216
 42
-0.00827499999999981
 10
-1098.106439661768
 20
-3790.727313306223
 42
-0.009968999999999806
 10
-1301.860509661765
 20
-3564.132598306227
 42
-0.02783000000000002
 10
-1895.951589661767
 20
-2793.561063306224
 42
-0.02675900000000004
 10
-2409.258129661771
 20
-1951.884023306221
 42
-0.02639999999999982
 10
-2835.964049661763
 20
-1048.663383306234
 42
-0.02541700000000019
 10
-3171.187154661766
 20
-94.13259830622201
 42
-0.01251299999999998
 10
-3310.095969661767
 20
424.0978366937748
 42
-0.01303500000000012
 10
-3420.837589661765
 20
941.6425666937812
 42
-0.01353700000000002
 10
-3500.573304661763
 20
1443.200291693775
 42
-0.01682100000000004
 10
-3546.289814661764
 20
1913.282071693772
 42
-0.01494799999999995
 10
-3548.650849661906
 20
1983.912736694159
 42
-0.0001959999999999381
 10
-3550.029304661846
 20
2424.416626694232
 42
-0.0004899999999997992
 10
-3551.012079661712
 20
2984.022571694296
 42
-0.0002029999999998816
 10
-3551.291554661836
 20
3740.782071693872
 10
-3551.227179661765
 20
5488.367401693771
 10
-3500.041554661766
 20
5510.114806693773
 42
-0.016992
 10
-2740.960614661768
 20
5802.599336693771
 42
-0.01638599999999999
 10
-1954.588429661769
 20
6046.742381693773
 42
-0.01633400000000003
 10
-1151.354149661765
 20
6239.563136693771
 42
-0.01661300000000009
 10
-341.7553496617633
 20
6378.29309169377
 42
-0.006798999999999935
 10
-71.59112966176554
 20
6411.661066693771
 42
-0.005351999999999966
 10
221.848010338236
 20
6440.684456693774
 42
-0.005430000000000014
 10
508.7918753382356
 20
6462.829451693771
 42
-0.008245999999999991
 10
758.6440703382349
 20
6475.249781693768
 42
-0.006267999999999909
 10
924.3107153382313
 20
6478.669831693773
 42
-0.001923000000000002
 10
1174.542645338231
 20
6479.735711693775
 42
-0.001925000000000063
 10
1424.877110338235
 20
6478.875706693774
 42
-0.00622300000000007
  0
LWPOLYLINE
  5
50
100
AcDbEntity
  8
0
  6
ByLayer
 62
  256
370
   -1
100
AcDbPolyline
 90
  602
 70
    1
 43
0
 10
566.1440703381295
 20
4880.574131693778
 42
-0.000733999999999935
 10
123.4075203381517
 20
4862.918911693763
 42
-0.000723000000000006
 10
-321.5132796618373
 20
4846.475376693736
 42
-0.0007269999999998627
 10
-713.3890446617573
 20
4833.130541693768
 42
-0.002471999999999826
 10
-968.8559296617593
 20
4826.066996693777
 42
0.002052000000000055
 10
-1052.160259661766
 20
4823.833686693773
 42
0.002636000000000029
 10
-1128.753964661764
 20
4821.061371693773
 42
0.002021999999999924
 10
-1192.915434661764
 20
4818.140316693774
 42
0.02274399999999999
 10
-1218.296054661765
 20
4815.721366693772
 42
0.01933300000000002
 10
-1255.041729661765
 20
4809.066606693772
 42
0.01353999999999995
 10
-1295.864359661765
 20
4798.864346693772
 42
0.01365199999999997
 10
-1335.355474661765
 20
4786.67945669377
 42
0.02245499999999993
 10
-1367.923664661765
 20
4773.991786693772
 42
0.04244899999999992
 10
-1412.920354661765
 20
4749.33774169377
 42
0.03143899999999988
 10
-1458.137559661766
 20
4715.039016693772
 42
0.03212200000000003
 10
-1496.646834661765
 20
4677.245516693771
 42
0.06479399999999975
 10
-1520.658904661764
 20
4642.23368169377
 42
-0.01158900000000028
 10
-1525.051599661764
 20
4634.09493169377
 42
-0.01441700000000014
 10
-1529.523044661765
 20
4626.751321693772
 42
-0.01271199999999999
 10
-1533.570879661766
 20
4620.849631693773
 42
-0.09796499999998526
 10
-1536.014009661766
 20
4618.578721693774
 42
-0.1164349999999972
 10
-1540.158819661766
 20
4617.197126693784
 42
-0.0002710000000000536
 10
-1604.476339661776
 20
4611.433056693768
 42
-0.001757000000000146
 10
-1677.065284661771
 20
4605.224356693769
 42
-0.001090000000000033
 10
-1762.335459661767
 20
4598.419716693767
 42
0.001356999999999964
 10
-1918.007499661766
 20
4585.913231693767
 42
0.008497999999999966
 10
-1997.444054661765
 20
4577.952941693776
 42
0.016679
 10
-2047.451294661765
 20
4570.383436693773
 42
0.03696200000000002
 10
-2084.722844661765
 20
4560.569141693772
 42
0.06598899999999983
 10
-2148.244964661766
 20
4528.847436693773
 42
0.06000200000000034
 10
-2203.618779661766
 20
4480.787966693771
 42
0.06073300000000007
 10
-2245.413979661765
 20
4421.597616693773
 42
0.07129099999999997
 10
-2269.022649661765
 20
4357.153751693771
 42
0.03029299999999993
 10
-2272.359039661765
 20
4334.814011693771
 42
0.01047800000000001
 10
-2274.534759661765
 20
4302.256896693771
 42
0.008001000000000019
 10
-2275.838524661765
 20
4258.47793169377
 42
0.003267999999999977
 10
-2276.269109661765
 20
4198.953986693771
 10
-2276.355929661765
 20
4074.540566693771
 10
-2237.583049661765
 20
4111.583956693771
 42
-0.03433800000000003
 10
-2187.237894661765
 20
4153.470276693772
 42
-0.03283800000000002
 10
-2130.901474661764
 20
4188.762091693771
 42
-0.03437099999999996
 10
-2073.675649661765
 20
4214.68039169377
 42
-0.05197399999999995
 10
-2020.771989661765
 20
4228.341426693772
 10
-1997.826829661765
 20
4231.782261693772
 10
-1981.476939661765
 20
4202.574831693772
 42
0.03793499999999992
 10
-1948.168699661765
 20
4152.412331693772
 42
0.03142300000000024
 10
-1905.646024661765
 20
4104.398196693772
 42
0.03223599999999988
 10
-1859.119029661765
 20
4063.69746169377
 42
0.0502330000000001
 10
-1813.855929661765
 20
4035.704656693771
 42
0.03869300000000011
 10
-1769.742634661765
 20
4018.282181693771
 42
0.04668199999999999
 10
-1726.147464661766
 20
4009.19508669377
 42
0.0209480000000001
 10
-1660.028389661774
 20
4004.538296693776
 42
0.002165000000000082
 10
-1503.855929661758
 20
4000.774581693782
 42
-0.0006139999999999989
 10
-1275.082234661755
 20
3995.970876693785
 42
-0.006281999999999973
 10
-1180.364779661765
 20
3992.674546693771
 42
-0.01512900000000007
 10
-1125.975219661765
 20
3988.444991693771
 42
-0.04401199999999988
 10
-1089.035629661765
 20
3981.117161693772
 42
-0.03573399999999997
 10
-1030.851389661765
 20
3959.532306693772
 42
-0.04361400000000001
 10
-980.3023796617653
 20
3931.001406693771
 42
-0.04875199999999993
 10
-940.812194661765
 20
3897.844041693771
 42
-0.08119900000000001
 10
-915.8882546617652
 20
3862.401316693771
 42
-0.1128349999999997
 10
-906.6167196617653
 20
3822.100036693771
 42
-0.06558599999999978
 10
-913.0627396617649
 20
3772.634131693772
 42
-0.06361499999999998
 10
-932.6280946617641
 20
3724.713016693771
 42
-0.08726200000000013
 10
-962.1663696617649
 20
3688.83367169377
 42
-0.04218400000000024
 10
-973.6334946617651
 20
3680.584226693772
 42
-0.01172300000000018
 10
-992.9141796617656
 20
3669.650476693772
 42
-0.01174600000000002
 10
-1015.405684661765
 20
3658.255911693771
 42
-0.01206999999999991
 10
-1038.206374661765
 20
3648.038301693771
 42
0.02217399999999997
 10
-1172.491749661765
 20
3584.573746693772
 42
0.02482000000000003
 10
-1295.507689661765
 20
3511.590386693771
 42
0.025643
 10
-1406.999664661764
 20
3429.206831693772
 42
0.02747900000000004
 10
-1506.796039661766
 20
3337.608491693772
 42
0.019823
 10
-1566.224824661766
 20
3271.683231693772
 42
0.02769399999999999
 10
-1613.519559661765
 20
3207.976011693772
 42
0.03035800000000002
 10
-1650.011089661765
 20
3144.614786693771
 42
0.03427499999999997
 10
-1676.918284661765
 20
3079.767211693772
 42
0.03451899999999997
 10
-1692.838254661765
 20
3018.888956693771
 42
0.03842299999999998
 10
-1699.500144661765
 20
2958.548511693771
 42
0.03477499999999999
 10
-1697.115479661765
 20
2893.011841693771
 42
0.0210199999999998
 10
-1685.661144661765
 20
2816.145406693773
 42
0.01485399999999992
 10
-1673.026714661766
 20
2759.557471693774
 42
0.007376000000000012
 10
-1653.831639661766
 20
2688.581426693774
 42
0.005982000000000035
 10
-1633.739859661765
 20
2621.458836693771
 42
0.04214000000000009
 10
-1620.881804661765
 20
2589.912696693772
 42
0.03054600000000003
 10
-1580.208429661765
 20
2520.865491693772
 42
0.01771900000000016
 10
-1523.558864661766
 20
2442.980971693771
 42
0.01536800000000002
 10
-1451.782754661766
 20
2356.898306693771
 42
0.01026300000000001
 10
-1364.653704661764
 20
2262.67024669377
 42
-0.001915999999999874
 10
-1340.387029661766
 20
2237.289816693772
 42
-0.003094000000000117
 10
-1319.949649661765
 20
2215.481106693772
 42
-0.0005550000000000585
 10
-1302.076659661763
 20
2196.127706693771
 42
-0.188314999999988
 10
-1301.355929661765
 20
2194.281941693771
 42
-0.2603419999999895
 10
-1305.883209661765
 20
2186.176376693772
 42
-0.006715999999999947
 10
-1342.930139661765
 20
2164.03916669377
 42
-0.01308300000000001
 10
-1379.451239661765
 20
2144.134226693769
 42
-0.06549100000000035
 10
-1401.359499661765
 20
2136.333736693771
 42
-0.06123200000000005
 10
-1432.864269661765
 20
2133.523941693771
 42
-0.089619000000001
 10
-1460.014364661766
 20
2139.370981693771
 42
-0.04497899999999989
 10
-1494.949924661766
 20
2157.593386693773
 42
-0.005858999999999836
 10
-1565.160949661766
 20
2203.833881693773
 42
0.006384999999999957
 10
-1745.904029661765
 20
2322.597611693771
 42
0.01045099999999998
 10
-1902.341969661765
 20
2418.009956693771
 42
0.01199099999999994
 10
-2031.693304661764
 20
2489.144271693771
 42
0.03641900000000002
 10
-2123.855929661765
 20
2528.763836693772
 42
0.08937700000000026
 10
-2179.208744661765
 20
2537.408146693771
 42
0.07898100000000031
 10
-2236.694514661765
 20
2526.888126693772
 42
0.08214200000000003
 10
-2286.103994661765
 20
2499.731801693771
 42
0.1109590000000001
 10
-2318.193254661765
 20
2460.318001693771
 42
0.08363500000000021
 10
-2330.899004661766
 20
2418.567821693771
 42
0.07481200000000003
 10
-2329.956054661765
 20
2373.248091693771
 42
0.08143499999999988
 10
-2316.324224661765
 20
2333.792741693772
 42
0.1395169999999997
 10
-2292.201344661765
 20
2309.03524169377
 42
0.08161300000000088
 10
-2270.090039661765
 20
2300.75607669377
 42
0.03930499999999971
 10
-2239.950384661765
 20
2297.218516693772
 42
0.03666699999999985
 10
-2206.305924661765
 20
2298.39770169377
 42
0.03676800000000018
 10
-2173.226049661765
 20
2304.480066693771
 42
-0.008138000000000025
 10
-2159.168669661765
 20
2307.906196693771
 42
-0.01115999999999999
 10
-2146.411534661765
 20
2310.498416693771
 42
-0.008071999999999956
 10
-2135.752829661765
 20
2312.240446693771
 42
-0.117437999999995
 10
-2131.976049661766
 20
2311.907441693771
 42
-0.2451759999999834
 10
-2129.647944661765
 20
2309.497746693772
 42
-0.02907799999999991
 10
-2127.903364661765
 20
2302.018971693771
 42
-0.02757899999999998
 10
-2126.716369661765
 20
2291.822316693771
 42
-0.01495300000000006
 10
-2126.326969661765
 20
2279.200736693771
 42
0.02831700000000001
 10
-2123.639674661765
 20
2232.563351693771
 42
0.04484199999999999
 10
-2115.543194661765
 20
2193.38741169377
 42
0.05528800000000021
 10
-2103.086029661765
 20
2164.239991693771
 42
0.1481579999999992
 10
-2086.931704661765
 20
2148.816221693772
 42
0.08546099999999902
 10
-2076.598379661765
 20
2145.647086693772
 42
0.009656000000000027
 10
-2052.155214661765
 20
2143.002721693771
 42
0.009554999999999933
 10
-2018.792129661767
 20
2140.685426693772
 42
0.004019000000000082
 10
-1973.855929661766
 20
2138.788026693772
 42
-0.003789000000000079
 10
-1934.247279661765
 20
2137.133801693771
 42
-0.004910000000000056
 10
-1897.957664661765
 20
2134.98517669377
 42
-0.003737999999999971
 10
-1867.624269661765
 20
2132.66211169377
 42
-0.04344799999999985
 10
-1855.904384661765
 20
2130.641231693773
 42
-0.06306600000000076
 10
-1835.220149661765
 20
2122.294236693772
 42
-0.009509999999999914
 10
-1796.555089661766
 20
2099.715406693771
 42
-0.01130599999999998
 10
-1757.868954661765
 20
2074.90937169377
 42
-0.0302849999999999
 10
-1731.889339661765
 20
2055.022476693771
 42
-0.03088100000000009
 10
-1705.895004661766
 20
2029.531111693771
 42
-0.2759679999999967
 10
-1702.922474661765
 20
2014.472591693771
 42
-0.2644919999999929
 10
-1714.809329661765
 20
2004.255176693771
 42
-0.02898599999999998
 10
-1751.855124661765
 20
1999.226501693772
 42
0.03266499999999995
 10
-1813.847919661765
 20
1990.346901693771
 42
0.08919400000000001
 10
-1854.733839661765
 20
1973.755581693771
 42
0.1322429999999992
 10
-1877.932334661765
 20
1948.573741693771
 42
0.1209509999999999
 10
-1886.355929661765
 20
1914.260921693771
 42
0.02318299999999994
 10
-1885.722849661765
 20
1900.614266693771
 42
0.07172500000000018
 10
-1883.571794661765
 20
1891.666306693772
 42
0.07855999999999923
 10
-1879.103564661765
 20
1884.142741693771
 42
0.03169000000000002
 10
-1870.884709661766
 20
1875.427216693771
 42
0.06586200000000034
 10
-1856.134154661765
 20
1864.90055669377
 42
0.032759
 10
-1835.154074661765
 20
1855.46098169377
 42
0.02963299999999989
 10
-1810.091914661765
 20
1847.761766693772
 42
0.02472400000000002
 10
-1782.734039661765
 20
1842.518271693772
 42
-0.131548
 10
-1764.051359661765
 20
1834.585836693771
 42
-0.02250100000000001
 10
-1734.476429661765
 20
1809.262386693771
 42
-0.009487000000000023
 10
-1683.244554661753
 20
1759.377406693777
 42
-0.0007750000000000443
 10
-1551.968049661758
 20
1626.195356693765
 42
0.002313999999999941
 10
-1402.941884661778
 20
1475.933681693775
 42
0.01934600000000001
 10
-1332.670149661765
 20
1410.964391693771
 42
0.04214999999999981
 10
-1281.556064661765
 20
1374.220486693772
 42
0.04493699999999996
 10
-1226.055904661765
 20
1347.465116693772
 42
0.0305280000000001
 10
-1178.186334661765
 20
1332.743496693771
 42
0.03746299999999997
 10
-1132.040504661765
 20
1325.181441693772
 42
0.03087000000000001
 10
-1078.651199661766
 20
1323.80268669377
 42
0.01305300000000018
 10
-1007.073019661765
 20
1328.24656169377
 42
0.008195999999999964
 10
-715.3160296617649
 20
1358.846541693771
 42
0.01087899999999983
 10
-451.1810346617685
 20
1396.782721693772
 42
0.01183100000000003
 10
-209.0959146617654
 20
1442.855301693774
 42
0.01420199999999991
 10
16.09518533823439
 20
1497.994236693771
 42
-0.0009870000000000816
 10
41.18561533823618
 20
1504.845331693769
 42
-0.001555000000000016
 10
62.75446033823482
 20
1510.617156693772
 42
-0.0003649999999999549
 10
81.67343533823505
 20
1515.602116693771
 42
-0.06431499999999445
 10
83.72731533823514
 20
1515.86740169377
 42
-0.3813489999999339
 10
84.7015553382346
 20
1514.997901693771
 42
-0.01754700000000001
 10
85.07932033823502
 20
1510.189661693771
 42
-0.02168399999999978
 10
85.07904033823522
 20
1503.950061693771
 42
-0.01291900000000011
 10
84.56506033823541
 20
1496.538926693771
 42
0.1067499999999997
 10
91.3266053382352
 20
1439.315916693771
 42
0.0500759999999999
 10
122.5796703382343
 20
1371.238246693771
 42
0.04047800000000014
 10
175.9066803382353
 20
1295.159416693771
 42
0.02395199999999984
 10
250.7143553382355
 20
1213.258506693772
 42
0.02251499999999988
 10
353.0861603382348
 20
1120.211941693772
 42
0.01685800000000002
 10
473.5840003382334
 20
1026.889646693774
 42
0.01367300000000007
 10
623.7584303382309
 20
924.6069566937749
 42
0.006860000000000105
 10
818.6440703382364
 20
803.2747516937716
 42
-0.003741999999999909
 10
932.0290953382344
 20
733.6607966937727
 42
-0.009789999999999984
 10
1012.093715338235
 20
681.469496693772
 42
-0.01181099999999998
 10
1080.911145338235
 20
632.2480066937728
 42
-0.008276999999999961
 10
1156.144070338235
 20
573.7313416937704
 42
-0.01462399999999997
 10
1207.103780338235
 20
530.2073566937722
 42
-0.008143000000000063
 10
1266.721675338236
 20
474.4002766937706
 42
-0.008142999999999952
 10
1323.863510338234
 20
417.3077466937716
 42
-0.01624499999999997
 10
1366.816470338236
 20
369.9874166937723
 42
-0.036797
 10
1463.138580338235
 20
238.1583216937714
 42
-0.04596399999999996
 10
1531.160840338234
 20
102.7693866937705
 42
-0.05246499999999996
 10
1565.843430338236
 20
-23.09415330622831
 42
-0.1050980000000002
 10
1561.185730338236
 20
-125.666108306229
 42
-0.03025700000000001
 10
1551.595745338234
 20
-155.0668433062283
 42
-0.03091799999999995
 10
1538.584690338233
 20
-182.8762133062283
 42
-0.02303300000000014
 10
1519.087835338234
 20
-215.0010033062297
 42
-0.00811899999999976
 10
1488.309440338235
 20
-259.2470533062285
 42
0.01766000000000002
 10
1414.291545338234
 20
-370.106303306228
 42
0.02506400000000004
 10
1357.124540338235
 20
-473.9420783062289
 42
0.02839000000000008
 10
1316.673675338236
 20
-570.5900133062287
 42
0.04167300000000006
 10
1293.329560338236
 20
-659.6603133062285
 42
0.02852699999999989
 10
1288.194695338236
 20
-703.733813306229
 42
0.02070799999999987
 10
1287.328480338235
 20
-753.1287533062282
 42
0.0210299999999999
 10
1290.442675338234
 20
-800.2961633062288
 42
0.04171600000000004
 10
1297.565850338234
 20
-837.0635433062287
 42
0.08215700000000022
 10
1348.838340338234
 20
-946.3430883062287
 42
0.07020500000000021
 10
1434.967630338234
 20
-1040.137703306229
 42
0.05906799999999985
 10
1557.974600338234
 20
-1118.945748306228
 42
0.03537600000000013
 10
1719.315705338235
 20
-1183.58812330623
 42
0.02704299999999988
 10
1865.660410338233
 20
-1221.936018306229
 42
0.01628699999999998
 10
2042.557015338234
 20
-1252.23456330623
 42
0.01576099999999981
 10
2230.552410338231
 20
-1272.150028306228
 42
0.0179770000000001
 10
2411.343575338236
 20
-1279.036648306228
 42
-0.01440100000000002
 10
2430.830820338235
 20
-1279.639448306228
 42
-0.01111500000000008
 10
2452.019625338235
 20
-1281.379828306229
 42
-0.01126999999999999
 10
2471.752525338235
 20
-1283.893863306229
 42
-0.02626699999999997
 10
2486.343575338235
 20
-1286.878688306229
 42
-0.05857699999999996
 10
2534.107210338233
 20
-1305.477298306228
 42
-0.003308000000000016
 10
2673.985570338238
 20
-1380.980738306229
 42
-0.001046000000000007
 10
2823.844760338241
 20
-1463.564923306231
 42
-0.2727340000000038
 10
2831.144070338234
 20
-1475.951283306229
 42
-0.1970089999999746
 10
2829.033160338234
 20
-1481.100748306229
 42
-0.004970999999999782
 10
2810.782225338236
 20
-1499.256478306228
 42
-0.009913000000000182
 10
2788.392040338234
 20
-1520.24154830623
 42
-0.006509000000000028
 10
2761.827150338234
 20
-1543.548843306229
 10
2692.510230338235
 20
-1602.786613306229
 10
2621.827150338235
 20
-1606.319358306229
 42
0.0155990000000001
 10
2479.953130338235
 20
-1617.855548306229
 42
0.01191599999999998
 10
2325.636600338235
 20
-1638.99834330623
 42
0.01025399999999996
 10
2187.243865338235
 20
-1664.253198306229
 42
0.06339499999999984
 10
2118.922880338235
 20
-1687.47402830623
 42
0.0619619999999999
 10
2087.972270338235
 20
-1707.664223306228
 42
0.01489500000000002
 10
2042.287170338236
 20
-1748.677888306228
 42
0.01593899999999995
 10
1997.956415338234
 20
-1793.708818306229
 42
0.03860800000000011
 10
1969.045360338235
 20
-1830.313008306229
 42
0.04737899999999994
 10
1945.108290338235
 20
-1874.481423306228
 42
0.1347990000000011
 10
1940.474745338235
 20
-1908.860678306229
 42
0.1690229999999986
 10
1954.205005338235
 20
-1935.964783306229
 42
0.08605200000000018
 10
1986.212305338235
 20
-1957.643958306228
 42
0.09781299999999973
 10
2010.884050338235
 20
-1963.385693306229
 42
0.004514999999999844
 10
2097.421725338232
 20
-1965.516563306228
 42
0.003116000000000028
 10
2250.06655033826
 20
-1966.94486830628
 42
0.0002540000000000337
 10
2650.029215338311
 20
-1967.992258306245
 10
3293.914365338235
 20
-1969.351918306229
 10
3365.029215338235
 20
-1902.992258306228
 42
0.008275999999999938
 10
3472.046130338234
 20
-1799.765413306228
 42
0.008507999999999795
 10
3574.587130338232
 20
-1693.986593306231
 42
0.009001000000000141
 10
3663.539855338236
 20
-1595.55180330623
 42
0.01944700000000012
 10
3727.551900338234
 20
-1516.061098306229
 42
0.03060600000000011
 10
3802.502800338235
 20
-1401.128138306228
 42
0.08333900000000014
 10
3835.737725338236
 20
-1310.188668306229
 42
0.1433199999999995
 10
3828.949615338235
 20
-1242.948408306229
 42
0.1798429999999996
 10
3786.948965338235
 20
-1197.060298306229
 42
0.02858999999999991
 10
3768.294625338234
 20
-1188.806753306229
 42
0.04520600000000002
 10
3751.446155338235
 20
-1184.161223306229
 42
0.02706300000000001
 10
3728.762075338235
 20
-1181.320638306229
 42
0.004494000000000015
 10
3684.833895338235
 20
-1178.61679830623
 42
-0.01184900000000011
 10
3529.062410338232
 20
-1166.726628306229
 42
-0.01013899999999998
 10
3365.683220338233
 20
-1147.000133306227
 42
-0.01044400000000001
 10
3211.294215338234
 20
-1121.875063306228
 42
-0.01778399999999995
 10
3083.644070338233
 20
-1093.627993306229
 42
-0.02616499999999995
 10
2961.793760338235
 20
-1055.178538306229
 42
-0.04815499999999989
 10
2868.440735338235
 20
-1009.597843306229
 42
-0.06430700000000007
 10
2808.021185338235
 20
-960.8500933062279
 42
-0.1932199999999998
 10
2788.644070338235
 20
-912.5796083062287
 42
-0.1188089999999996
 10
2793.711855338235
 20
-891.5533033062292
 42
-0.0603679999999997
 10
2809.018805338235
 20
-868.8694783062284
 42
-0.03611400000000001
 10
2837.320720338234
 20
-840.6238783062292
 42
-0.009741000000000046
 10
2886.144070338234
 20
-800.1040383062298
 42
0.01225000000000003
 10
2974.457885338235
 20
-726.0583883062303
 42
0.01860799999999999
 10
3047.093295338236
 20
-657.0973283062301
 42
0.02087800000000012
 10
3107.613230338236
 20
-589.7942433062293
 42
0.02426100000000011
 10
3159.166590338235
 20
-520.858253306229
 42
0.02026699999999998
 10
3180.782410338235
 20
-485.8443333062286
 42
0.01577499999999976
 10
3201.485160338234
 20
-446.175278306229
 42
0.01603199999999999
 10
3218.428455338236
 20
-407.9674683062293
 42
0.03731599999999979
 10
3227.998015338235
 20
-378.1684983062289
 42
0.05041299999999974
 10
3230.631615338234
 20
-358.8364433062303
 42
0.003218000000000004
 10
3232.244280338234
 20
-301.7052883062303
 42
0.003886999999999862
 10
3233.327205338233
 20
-224.4089183062314
 42
0.001538999999999887
 10
3233.662565338234
 20
-118.1684983062357
 10
3233.681055338236
 20
118.3674016937712
 10
3265.017560338235
 20
134.5693516937711
 42
0.03371600000000002
 10
3298.349010338236
 20
154.7576116937704
 42
0.02573700000000001
 10
3331.960165338235
 20
181.0300566937712
 42
0.02403399999999993
 10
3365.056755338236
 20
212.6748566937705
 42
0.02051400000000003
 10
3396.845650338234
 20
249.0117066937714
 42
0.01339199999999997
 10
3423.282820338234
 20
283.7206716937717
 42
0.006094000000000069
 10
3456.058545338236
 20
330.4198866937718
 42
0.00345800000000003
 10
3487.423075338236
 20
376.9751166937717
 42
0.0661449999999998
 10
3495.076310338235
 20
392.6641166937717
 42
-0.5245669999999644
 10
3497.064080338235
 20
393.2418066937719
 42
-0.007956000000000078
 10
3507.895425338234
 20
384.1317066937709
 42
-0.01338000000000006
 10
3521.073315338235
 20
372.0514866937713
 42
-0.007556000000000037
 10
3536.425640338235
 20
356.7469916937707
 10
3576.144070338235
 20
315.9371516937713
 10
3683.418620338235
 20
283.3271266937718
 42
0.002053999999999995
 10
3724.832455338234
 20
270.923446693771
 42
0.003268999999999974
 10
3760.367065338235
 20
260.6915616937677
 42
0.000739999999999967
 10
3791.553715338235
 20
251.98184169377
 42
0.1492460000000123
 10
3794.729910338234
 20
252.0626816937698
 42
0.5426849999997256
 10
3795.194465338236
 20
253.8475366937746
 42
0.0005539999999999802
 10
3762.375135338232
 20
289.7257466937717
 42
0.00352800000000006
 10
3724.588590338235
 20
330.36294669377
 42
0.002082000000000043
 10
3678.91736533823
 20
378.3878316937707
 42
-0.001872999999999951
 10
3632.970670338233
 20
426.6620816937725
 42
-0.003028000000000007
 10
3594.275830338232
 20
468.1234016937779
 42
-0.0005319999999999275
 10
3560.409895338238
 20
504.9324566937679
 42
-0.188198999999971
 10
3559.074955338235
 20
508.3674016937712
 42
-0.1004430000000095
 10
3559.782830338234
 20
511.8311516937706
 42
-0.002681000000000083
 10
3565.992080338235
 20
526.2288266937708
 42
-0.005500000000000005
 10
3573.595750338237
 20
543.0953666937708
 42
-0.003726000000000008
 10
3582.612950338235
 20
562.1509766937711
 10
3606.144070338235
 20
610.9345566937716
 10
3816.485060338235
 20
394.6509766937711
 10
4026.826050338235
 20
178.3674016937712
 10
4138.399715338235
 20
144.4487216937714
 42
0.001364000000000034
 10
4181.264285338233
 20
131.5453866937719
 42
0.002254000000000101
 10
4217.542260338232
 20
120.9103916937747
 42
0.0002219999999998777
 10
4249.958855338212
 20
111.581401693778
 42
0.2986840000000218
 10
4251.143235338236
 20
111.9487216937704
 42
0.3794189999998771
 10
4251.102980338503
 20
113.0754816938424
 42
2.300000000005411e-005
 10
4174.283880338226
 20
193.731916693876
 42
0.0007479999999999567
 10
4089.17495533824
 20
282.8170416937573
 42
0.0004490000000000035
 10
3987.851590338236
 20
388.3674016937439
 42
-0.0003230000000002578
 10
3884.17228533818
 20
496.3176566938491
 42
-0.0004500000000000219
 10
3791.513260338194
 20
593.092466693779
 42
-0.0002719999999999648
 10
3713.584635338223
 20
674.7180566937677
 42
-0.005821999999999971
 10
3690.837250338235
 20
699.1335866937711
 10
3658.284405338235
 20
734.8997716937711
 10
3676.574350338235
 20
780.5968816937711
 42
-0.008168000000000019
 10
3683.877095338235
 20
798.012476693771
 42
-0.01349300000000006
 10
3690.676130338235
 20
812.4406216937715
 42
-0.007095000000000035
 10
3696.717765338235
 20
824.0018966937719
 42
-0.3716080000000874
 10
3698.896660338235
 20
824.8306966937705
 42
-0.114574999999991
 10
3701.759450338781
 20
822.9703316937666
 42
-2.000000000002213e-005
 10
3829.551850338947
 20
690.2108316934755
 42
-0.0004679999999999837
 10
3970.902485338243
 20
543.0790916938568
 42
-0.0002830000000000275
 10
4138.017830338213
 20
368.6051466938516
 42
0.0004219999999999962
 10
4393.44052033819
 20
102.0834016938279
 42
0.00386799999999997
 10
4505.407765338228
 20
-12.76040330622573
 42
0.004457999999999989
 10
4573.097095338233
 20
-79.9142733062245
 42
0.1216189999999987
 10
4594.625355338235
 20
-92.54141330622906
 42
-0.001902000000000016
 10
4607.093955338235
 20
-96.29233830623343
 42
-0.0003230000000000357
 10
4630.827475338232
 20
-103.5474283062322
 42
-0.0003529999999999899
 10
4658.69504033823
 20
-112.1074783062286
 42
-0.0003140000000001165
 10
4687.648850338241
 20
-121.0434983062271
 42
0.003970999999999935
 10
4714.969010338234
 20
-129.2570033062293
 42
0.006974000000000102
 10
4737.707070338235
 20
-135.5537333062289
 42
0.002506000000000046
 10
4756.726650338235
 20
-140.4344583062284
 42
0.6116670000000973
 10
4757.648850338235
 20
-139.3810283062291
 42
0.09333099999999975
 10
4755.896465338767
 20
-136.6164883072488
 42
1.100000000009385e-005
 10
4608.242350338143
 20
21.52970169433684
 42
0.0003119999999999637
 10
4444.885380338237
 20
196.2680266937823
 42
0.0001889999999999956
 10
4251.144070338225
 20
403.0917416938464
 42
-0.0002560000000000237
 10
4057.386350338231
 20
609.9891116938234
 42
-0.0004239999999999764
 10
3893.969095338136
 20
784.9648366938345
 42
-1.800000000001911e-005
 10
3746.53417033773
 20
943.1078666936939
 42
-0.1004449999999972
 10
3744.378205338235
 20
946.6234266937705
 42
-0.1726520000000021
 10
3744.323140338237
 20
953.5377766937718
 42
-0.001693000000000006
 10
3761.038320338236
 20
1001.191471693772
 42
-0.002822000000000013
 10
3777.599185338236
 20
1047.074636693771
 42
-0.09026800000000133
 10
3783.623670338235
 20
1057.308036693772
 42
-0.438803999999989
 10
3786.506210338091
 20
1057.399341693614
 42
-3.300000000004935e-005
 10
3969.274960338553
 20
870.9335516936771
 42
-0.0009049999999999913
 10
4171.399075338239
 20
663.94568169376
 42
-0.0005419999999999612
 10
4410.851240338236
 20
417.3080366937884
 10
5034.677140338234
 20
-226.6325983062288
 10
5167.841350338231
 20
-267.5351883062285
 42
0.00105099999999998
 10
5218.99029033823
 20
-283.1284083062319
 42
0.001737999999999979
 10
5262.256170338242
 20
-296.0550433062308
 42
0.0001380000000000295
 10
5301.062380338251
 20
-307.4908383062358
 42
0.2745259999999745
 10
5302.256945338235
 20
-307.1863883062288
 42
0.406913999999821
 10
5302.269975341856
 20
-306.143763307482
 42
3.000000000095267e-006
 10
5092.24913533483
 20
-85.35817830194719
 42
0.0002660000000000386
 10
4860.779905338248
 20
157.7133316937834
 42
0.0001589999999999851
 10
4585.579460338224
 20
446.2162016937509
 42
-2.100000000002713e-005
 10
4309.495405337773
 20
735.4846066946629
 42
-3.399999999986817e-005
 10
4075.130615334958
 20
981.0948616974056
 42
-2.999999999984245e-006
 10
3865.462775336822
 20
1200.855716696764
 42
-0.003306000000000203
 10
3856.036690338236
 20
1210.867401693772
 10
3844.422790338234
 20
1223.367401693771
 10
3859.958595338234
 20
1260.157951693771
 42
-0.01774400000000003
 10
3867.023225338235
 20
1275.359106693771
 42
-0.01586599999999996
 10
3875.399835338236
 20
1290.610351693771
 42
-0.01612999999999996
 10
3883.801805338236
 20
1303.827496693771
 42
-0.04675700000000001
 10
3890.708275338236
 20
1312.162371693771
 42
-0.04857899999999975
 10
3906.976785338235
 20
1325.543361693771
 42
-0.04214900000000024
 10
3926.291115338235
 20
1336.270656693772
 42
-0.04328099999999976
 10
3946.493335338235
 20
1343.331291693771
 42
-0.06107899999999977
 10
3965.388020338235
 20
1345.757591693772
 42
-0.126571000000002
 10
3986.537145338235
 20
1340.445156693772
 42
-0.111134000000001
 10
4003.705445338235
 20
1325.40981669377
 42
-0.09338099999999916
 10
4014.857720338235
 20
1301.961866693771
 42
-0.064522
 10
4018.644070338236
 20
1272.742401693771
 42
0.05767999999999883
 10
4019.685945338235
 20
1263.740901693771
 42
0.3841180000000666
 10
4023.089425338235
 20
1261.378051693772
 42
0.2237969999999873
 10
4027.815665338235
 20
1264.387231693771
 42
0.03297800000000015
 10
4033.372040338235
 20
1274.617401693771
 42
0.1018319999999999
 10
4042.830295338234
 20
1315.257566693771
 42
0.05894699999999987
 10
4038.200640338235
 20
1365.404606693771
 42
0.05107200000000006
 10
4020.369550338235
 20
1420.713071693771
 42
0.03898900000000003
 10
3990.315430338235
 20
1476.806596693771
 42
-0.08958400000000058
 10
3986.368425338235
 20
1486.378466693771
 42
-0.1481329999999978
 10
3987.076245338236
 20
1495.022146693771
 42
-0.04949599999999985
 10
3993.506810338236
 20
1507.534201693771
 42
-0.003199000000000023
 10
4015.963710338237
 20
1541.80659669377
 42
-0.01953999999999994
 10
4134.862145338237
 20
1706.42029169377
 42
-0.01638399999999999
 10
4273.174225338235
 20
1871.510541693771
 42
-0.016826
 10
4411.157460338236
 20
2015.592716693771
 42
-0.03787400000000005
 10
4527.013580338235
 20
2112.714111693772
 42
-0.05580500000000003
 10
4581.809185338235
 20
2143.397116693771
 42
-0.05701000000000004
 10
4641.643775338234
 20
2160.93119669377
 42
-0.06496499999999972
 10
4694.370295338234
 20
2163.11624169377
 42
-0.1858609999999976
 10
4726.751110338234
 20
2147.23989169377
 42
-0.1051249999999995
 10
4734.577625338236
 20
2134.121751693771
 42
-0.05816200000000044
 10
4738.524275338235
 20
2115.808021693771
 42
-0.05131500000000012
 10
4738.385755338236
 20
2094.423426693771
 42
-0.04259600000000013
 10
4733.993100338236
 20
2072.084391693772
 42
0.03332400000000005
 10
4731.317860338235
 20
2059.695691693772
 42
0.4575889999999054
 10
4733.973125338234
 20
2056.620456693773
 42
0.2051399999999924
 10
4739.766790338234
 20
2059.100111693771
 42
0.01555700000000008
 10
4751.397000338236
 20
2072.079836693771
 42
0.04206999999999985
 10
4769.193565338235
 20
2097.251346693771
 42
0.06678199999999967
 10
4779.407270338234
 20
2121.547006693771
 42
0.05063700000000004
 10
4784.460950338235
 20
2152.198086693771
 42
0.01499500000000021
 10
4785.994925338235
 20
2199.771966693771
 10
4786.144070338235
 20
2266.176531693772
 10
4838.644070338235
 20
2283.063821693771
 42
-0.02911399999999997
 10
4931.576275338235
 20
2307.090401693771
 42
-0.03667699999999997
 10
5019.760040338235
 20
2317.854761693772
 42
-0.03790500000000006
 10
5106.113105338236
 20
2315.468306693772
 42
-0.03496000000000007
 10
5193.541955338235
 20
2300.163816693772
 42
-0.02171100000000002
 10
5229.226070338235
 20
2289.647126693771
 42
-0.01441299999999995
 10
5269.194800338235
 20
2274.655606693769
 42
-0.01451500000000008
 10
5306.956810338235
 20
2257.941706693771
 42
-0.02926899999999996
 10
5335.448260338235
 20
2242.219466693771
 42
0.01367499999999985
 10
5342.740970338235
 20
2237.893326693773
 42
0.03055599999999937
 10
5348.551860338235
 20
2235.107991693773
 42
0.05913799999999909
 10
5352.136295338235
 20
2234.124671693772
 42
0.5667410000001605
 10
5352.948260338235
 20
2235.110086693772
 42
0.08472499999999966
 10
5345.162405338235
 20
2248.994621693771
 42
0.00479000000000003
 10
5313.707630338235
 20
2287.130016693772
 42
0.007963999999999926
 10
5281.321525338235
 20
2324.414911693771
 42
0.02319600000000007
 10
5257.399590338236
 20
2348.717141693772
 42
0.03789800000000002
 10
5179.273275338235
 20
2410.758126693772
 42
0.0512170000000001
 10
5099.864275338235
 20
2453.424036693772
 42
0.05286799999999994
 10
5015.500245338236
 20
2478.145471693772
 42
0.04436099999999998
 10
4922.628680338235
 20
2486.596851693772
 42
0.02892400000000001
 10
4859.324825338234
 20
2483.064301693771
 42
0.03255000000000004
 10
4799.348650338235
 20
2472.233836693772
 42
0.03100900000000007
 10
4738.877365338235
 20
2453.147576693773
 42
0.02233099999999996
 10
4674.017575338235
 20
2424.773601693772
 42
0.03698699999999998
 10
4607.298840338235
 20
2385.594451693772
 42
0.02332799999999994
 10
4535.442535338236
 20
2330.791636693771
 42
0.01598799999999996
 10
4445.572130338234
 20
2250.33564169377
 42
0.005200999999999919
 10
4317.955555338234
 20
2125.955326693773
 10
4199.767040338235
 20
2008.342116693771
 10
4167.955555338235
 20
2016.768571693771
 42
0.0389710000000001
 10
4130.154435338235
 20
2023.687786693771
 42
0.02834200000000006
 10
4087.433635338235
 20
2025.67437169377
 42
0.02886299999999999
 10
4046.731665338235
 20
2022.906011693771
 42
0.05816599999999995
 10
4015.545080338235
 20
2015.213871693772
 42
0.04990100000000027
 10
3994.233675338235
 20
2004.715006693771
 42
0.0247509999999999
 10
3969.455345338235
 20
1987.50905669377
 42
0.07162599999999925
 10
3958.773175338235
 20
1976.52225169377
 42
0.7313749999999454
 10
3961.144070338235
 20
1973.301841693769
 42
-0.03114699999999983
 10
3966.614595338235
 20
1974.783481693771
 42
-0.007935999999999964
 10
3975.647065338235
 20
1976.486426693771
 42
-0.008058000000000029
 10
3986.042650338235
 20
1978.103981693771
 42
-0.008084999999999981
 10
3996.473410338234
 20
1979.383706693772
 42
-0.08107399999999994
 10
4027.892105338236
 20
1977.626021693771
 42
-0.1550639999999988
 10
4049.535585338234
 20
1965.079341693771
 42
-0.1432869999999989
 10
4061.025880338235
 20
1941.481196693772
 42
-0.06559699999999979
 10
4062.321060338234
 20
1906.943421693772
 42
-0.04601499999999989
 10
4055.556710338235
 20
1870.894801693772
 42
-0.04710699999999982
 10
4042.343345338234
 20
1836.988491693771
 42
-0.0332619999999998
 10
4019.085635338235
 20
1797.49713169377
 42
-0.01044600000000017
 10
3979.227175338235
 20
1741.622351693768
 42
0.005426999999999978
 10
3910.596470338237
 20
1647.428081693769
 42
0.009180000000000051
 10
3855.428070338236
 20
1566.86723169377
 42
0.01005899999999999
 10
3806.933405338233
 20
1489.855741693771
 42
0.008609000000000051
 10
3758.916995338234
 20
1406.888751693771
 42
-0.006363999999999996
 10
3746.575665338235
 20
1385.341726693771
 42
-0.01039799999999973
 10
3735.506275338234
 20
1367.435056693771
 42
-0.004323000000000084
 10
3725.793560338234
 20
1352.710516693772
 42
-0.3418400000000281
 10
3723.315995338235
 20
1351.888751693771
 42
-0.117605999999999
 10
3720.328990334645
 20
1353.814501700923
 42
-5.999999999800445e-006
 10
3484.41266034299
 20
1600.050236692827
 42
-0.0002700000000000182
 10
3224.201615337632
 20
1871.943701694254
 42
-0.0001619999999998607
 10
2915.925890338006
 20
2194.617401693844
 10
2112.735760338235
 20
3035.867401693771
 10
1850.689915338233
 20
3035.86740169378
 42
0.0007040000000000364
 10
1750.208250338235
 20
3035.725861693774
 42
0.001174999999999932
 10
1665.620035338251
 20
3035.288796693785
 42
5.599999999997489e-005
 10
1589.44789533821
 20
3034.707746693834
 42
0.4119490000001926
 10
1588.644070338235
 20
3033.897676693771
 42
0.1929850000000382
 10
1589.204255327582
 20
3032.500356703997
 42
1.000000000140111e-006
 10
1880.738335365313
 20
2727.340656664805
 42
0.0001479999999999432
 10
2201.721635336988
 20
2391.555856694467
 42
8.900000000007222e-005
 10
2583.007535337568
 20
1993.065311694458
 10
3577.370995338235
 20
954.2026766937706
 10
3564.724910338235
 20
906.2850366937705
 42
-0.004265999999999989
 10
3559.633970338235
 20
887.641011693771
 42
-0.006203999999999901
 10
3554.800000338234
 20
871.2931366937713
 42
-0.003322999999999916
 10
3550.461480338234
 20
857.5868016937709
 42
-0.1001679999999918
 10
3548.696310338235
 20
854.4522666937717
 42
-0.4411039999999153
 10
3545.833285337314
 20
854.3738216953352
 42
-1.099999999998282e-005
 10
3238.864410337206
 20
1172.657586694171
 42
-0.0005319999999999275
 10
2900.268870337983
 20
1524.498871694028
 42
-0.0003190000000000883
 10
2498.699320337949
 20
1943.202266694037
 10
1452.084845338235
 20
3035.867401693771
 10
1224.947790338234
 20
3035.867401693769
 42
0.001753999999999905
 10
1137.965505338236
 20
3035.56221669377
 42
0.00295899999999999
 10
1065.021830338236
 20
3034.61868169377
 42
0.0003789999999999566
 10
1000.638095338233
 20
3033.356021693766
 42
0.5219079999998112
 10
999.4774053382353
 20
3031.616446693771
 42
0.09647100000000182
 10
1001.452905330807
 20
3028.50706172362
 42
2.999999999984245e-006
 10
1353.154485324747
 20
2657.244516724604
 42
0.0001529999999999949
 10
1740.894025337417
 20
2248.19530169433
 42
9.19999999999735e-005
 10
2201.144070337701
 20
1763.128241694358
 42
-0.0002990000000000315
 10
2661.251965338335
 20
1277.809676693782
 42
-0.0004960000000000054
 10
3048.565815338865
 20
867.9705766951665
 42
-1.399999999998498e-005
 10
3398.793100337973
 20
496.6167366952265
 42
-0.2001749999999775
 10
3400.877680338233
 20
491.094871693771
 42
-0.1409169999999985
 10
3394.933235338234
 20
472.7989366937705
 42
-0.01026599999999983
 10
3364.058800338234
 20
429.0604966937718
 42
-0.01532399999999993
 10
3328.280045338233
 20
383.5121416937722
 42
-0.02216199999999991
 10
3293.739770338235
 20
345.7454066937715
 42
-0.01697999999999975
 10
3261.773685338234
 20
315.8632266937717
 42
-0.02759399999999983
 10
3232.477975338234
 20
293.005011693772
 42
-0.03079500000000004
 10
3203.403655338235
 20
275.345271693771
 42
-0.03024699999999987
 10
3172.208940338235
 20
261.2722666937721
 42
-0.2981819999999891
 10
3155.606200338229
 20
264.9197216937755
 42
-0.001302999999999993
 10
3022.195790338217
 20
401.8549016937832
 42
-0.002081999999999821
 10
2794.773430338129
 20
638.4694066944066
 42
-0.0001240000000000626
 10
2109.849920330569
 20
1357.397731700912
 42
-1.099999999976078e-005
 10
1704.309905340895
 20
1783.301491691731
 42
-1.700000000001709e-005
 10
1354.638200335205
 20
2150.573381699622
 42
-4.999999999852378e-006
 10
1049.805845345145
 20
2470.77728168975
 42
-0.0005950000000001217
 10
1011.567180338225
 20
2511.040761693783
 42
-0.007334000000000026
 10
949.1805153382354
 20
2578.852736693772
 42
-0.008362999999999924
 10
891.5327103382347
 20
2645.602501693773
 42
-0.008209000000000029
 10
835.2386603382333
 20
2715.327866693774
 42
-0.006590999999999982
 10
776.9091353382344
 20
2792.117401693773
 10
733.4917153382348
 20
2850.867401693771
 10
785.6567553382353
 20
2850.867401693771
 10
837.8217953382351
 20
2850.867401693771
 10
1899.48293533735
 20
1739.939341694117
 42
-2.399999999996907e-005
 10
2307.773610337637
 20
1312.660821693949
 42
-3.900000000002228e-005
 10
2654.421735342592
 20
949.8003266938031
 42
-4.000000000025334e-006
 10
2964.434310343825
 20
625.2330466935508
 42
-0.00374499999999997
 10
2978.644070338235
 20
610.131036693771
 42
0.05911799999999996
 10
2992.501790338235
 20
598.3346016937712
 42
0.04912199999999998
 10
3009.602890338234
 20
589.2359616937716
 42
0.02174500000000002
 10
3038.060980338234
 20
578.9346316937717
 42
0.002543999999999942
 10
3102.637945338232
 20
559.047861693771
 10
3209.131825338235
 20
526.8449366937707
 10
3192.637945338235
 20
546.0995366937711
 42
0.01332099999999992
 10
3178.910425337031
 20
561.2865366954356
 42
1.099999999998282e-005
 10
2834.421125338762
 20
922.5547366944375
 42
0.0001229999999999916
 10
2449.859595338115
 20
1325.630871693138
 42
7.5000000000007e-005
 10
1996.338035338161
 20
1800.610771693404
 10
816.532005338235
 20
3035.867401693771
 10
716.216790338235
 20
3035.867401693771
 10
615.901580338235
 20
3035.867401693771
 10
572.8979053382359
 20
3114.617401693771
 42
-0.01444600000000026
 10
501.1431903382363
 20
3255.548951693772
 42
-0.008484000000000064
 10
423.1180103382358
 20
3427.912326693774
 42
-0.008478999999999879
 10
350.8181103382353
 20
3603.22623169377
 42
-0.01415399999999988
 10
296.7109203382354
 20
3753.367401693769
 42
-0.01625900000000015
 10
258.2994403382339
 20
3884.442821693772
 42
-0.05212500000000003
 10
244.8594353382351
 20
3974.344641693771
 42
-0.06599099999999995
 10
251.7695453382348
 20
4053.072041693771
 42
-0.039056
 10
279.445280338235
 20
4143.367401693771
 42
-0.04414699999999997
 10
355.8505353382345
 20
4296.150111693771
 42
-0.03227399999999999
 10
465.5815303382353
 20
4451.00346669377
 42
-0.03292899999999999
 10
587.252420338235
 20
4582.437721693773
 42
-0.07264700000000011
 10
698.8672153382341
 20
4660.960416693773
 42
-0.03046800000000012
 10
714.1667803382353
 20
4667.557876693772
 42
-0.007798999999999894
 10
739.678010338235
 20
4676.31351669377
 42
-0.007915000000000012
 10
769.1628353382359
 20
4685.407821693771
 42
-0.007958999999999947
 10
798.8672153382352
 20
4693.546741693766
 42
0.007862999999999903
 10
884.4480653382348
 20
4716.978051693768
 42
0.05790700000000046
 10
923.4330153382357
 20
4733.398766693768
 42
0.06364300000000013
 10
956.1388203382347
 20
4757.823606693769
 42
0.0105590000000002
 10
1011.583910338236
 20
4813.746071693771
 42
0.005238999999999818
 10
1039.303365338234
 20
4843.529706693767
 42
0.008529000000000163
 10
1062.128520338235
 20
4869.450296693771
 42
0.002984000000000057
 10
1081.010445338235
 20
4891.915261693773
 42
0.3221370000000074
 10
1081.271935338235
 20
4895.660506693772
 42
0.2622049999999684
 10
1073.591850338235
 20
4899.899706693768
 42
0.005192000000000029
 10
1027.236540338235
 20
4899.023791693769
 42
0.002925000000000061
 10
938.4719103382449
 20
4895.904396693921
 42
8.700000000006916e-005
  0
LWPOLYLINE
  5
51
100
AcDbEntity
  8
0
  6
ByLayer
 62
  256
370
   -1
100
AcDbPolyline
 90
   20
 70
    1
 43
0
 10
-836.4047746617648
 20
4744.617401693772
 42
-0.1104680000000007
 10
-842.4686196617643
 20
4718.048266693771
 42
-0.03933200000000023
 10
-862.0316696617651
 20
4684.121266693771
 42
-0.0394409999999997
 10
-886.7972446617666
 20
4653.528176693771
 42
-0.1042909999999986
 10
-909.8672196617653
 20
4637.62262169377
 42
-0.07033000000000135
 10
-930.0341896617647
 20
4632.358041693768
 42
-0.03618800000000036
 10
-956.1646546617649
 20
4631.24476169377
 42
-0.0348940000000002
 10
-983.9152996617661
 20
4634.015811693765
 42
-0.04220000000000066
 10
-1009.244024661765
 20
4640.58147169377
 42
-0.0498399999999997
 10
-1048.855644661764
 20
4659.113001693775
 42
-0.0216680000000001
 10
-1097.507699661765
 20
4691.023641693771
 42
-0.01299700000000014
 10
-1141.992004661765
 20
4724.828846693771
 42
-0.4466839999999997
 10
-1142.636824661766
 20
4736.586506693773
 42
-0.1795230000000116
 10
-1134.410094661767
 20
4740.360811693768
 42
-0.0008569999999999972
 10
-1040.158869661768
 20
4747.268471693767
 42
-0.004426999999999972
 10
-950.8252796617655
 20
4752.86725169377
 42
-0.009805999999999994
 10
-882.6059296617651
 20
4755.19613169377
 42
-0.003751000000000087
 10
-852.9388446617652
 20
4755.40410669377
 42
-0.0562090000000005
 10
-842.6718646617649
 20
4754.241141693772
 42
-0.2050230000000254
 10
-838.1263646617641
 20
4750.93019669377
 42
-0.1361220000000049
  0
LWPOLYLINE
  5
52
100
AcDbEntity
  8
0
  6
ByLayer
 62
  256
370
   -1
100
AcDbPolyline
 90
   24
 70
    1
 43
0
 10
535.4441153382352
 20
4594.058141693771
 42
0.04174900000000002
 10
474.3985603382348
 20
4540.157341693773
 42
0.023961
 10
409.8954053382355
 20
4466.03389169377
 42
0.02235300000000001
 10
346.9926353382343
 20
4378.572426693771
 42
0.02086099999999996
 10
290.5870703382338
 20
4283.84829669377
 42
-0.003427000000000036
 10
279.4950953382345
 20
4263.65130169377
 42
-0.005806999999999826
 10
269.8971503382345
 20
4246.91488669377
 42
-0.001411999999999877
 10
261.4329553382349
 20
4232.637186693772
 42
-0.4886919999996618
 10
260.3431453382353
 20
4232.501661693771
 42
-0.3013430000000374
 10
259.2953753382353
 20
4237.669911693772
 42
-0.001381000000000012
 10
281.2386103382373
 20
4291.339836693773
 42
-0.006683000000000047
 10
303.5160153382345
 20
4343.413626693771
 42
-0.01133499999999999
 10
323.7199903382351
 20
4386.298446693771
 42
-0.01938700000000002
 10
359.767005338235
 20
4452.01338169377
 42
-0.02710700000000004
 10
397.2951353382352
 20
4507.498061693772
 42
-0.03080199999999987
 10
435.5820503382354
 20
4551.999296693773
 42
-0.04906400000000009
 10
473.9277853382338
 20
4584.342556693773
 42
-0.03106700000000017
 10
493.3697703382344
 20
4596.010536693772
 42
-0.02535700000000004
 10
515.4531803382348
 20
4606.077266693771
 42
-0.02598600000000005
 10
536.6567353382349
 20
4613.222831693773
 42
-0.06329900000000035
 10
552.944115338235
 20
4615.628721693771
 42
-0.1917090000000118
 10
556.5195803382354
 20
4614.288626693771
 42
-0.3979540000001129
 10
556.726580338235
 20
4611.566411693771
 42
-0.05660500000000013
 10
550.8825853382343
 20
4605.829876693772
 42
-0.005790000000000147
  0
LWPOLYLINE
  5
53
100
AcDbEntity
  8
0
  6
ByLayer
 62
  256
370
   -1
100
AcDbPolyline
 90
   16
 70
    1
 43
0
 10
-2080.471504661766
 20
4477.117401693773
 42
-0.00180400000000012
 10
-2147.144554661769
 20
4405.750766693766
 42
-0.005418999999999889
 10
-2193.370524661767
 20
4357.681791693769
 42
-0.001742999999999905
 10
-2229.164579661765
 20
4321.512076693769
 42
-0.4072960000000629
 10
-2233.448144661766
 20
4321.453931693772
 42
-0.2061559999999921
 10
-2234.462509661765
 20
4323.825361693771
 42
-0.01814099999999998
 10
-2234.204309661765
 20
4330.493951693772
 42
-0.02140000000000004
 10
-2233.230639661765
 20
4338.723116693771
 42
-0.01497499999999996
 10
-2231.461979661765
 20
4347.894181693771
 42
-0.06972900000000007
 10
-2212.443654661765
 20
4398.467421693771
 42
-0.05857799999999994
 10
-2179.332339661765
 20
4445.247211693772
 42
-0.05634000000000026
 10
-2134.827074661766
 20
4484.697761693771
 42
-0.05477600000000012
 10
-2082.231224661765
 20
4513.654061693771
 42
-0.01114899999999992
 10
-2049.359959661765
 20
4526.461136693772
 42
-0.5054190000001278
 10
-2044.137329661765
 20
4522.989021693772
 42
-0.1967280000000055
 10
-2047.584394661765
 20
4513.255701693773
 42
-0.004735000000000112
  0
LWPOLYLINE
  5
54
100
AcDbEntity
  8
0
  6
ByLayer
 62
  256
370
   -1
100
AcDbPolyline
 90
   24
 70
    1
 43
0
 10
220.329230338235
 20
3851.741781693772
 42
0.02190200000000006
 10
264.1404653382351
 20
3692.815846693771
 42
0.01564599999999995
 10
326.3855503382342
 20
3519.107371693773
 42
0.01507700000000007
 10
402.5978703382352
 20
3341.585771693771
 42
0.01558699999999993
 10
488.5854703382352
 20
3170.97517169377
 42
-0.00294399999999994
 10
513.2516203382352
 20
3124.966841693772
 42
-0.02054499999999999
 10
524.231115338235
 20
3101.953536693772
 42
-0.05234700000000019
 10
528.0226853382356
 20
3089.673456693771
 42
-0.488501000000148
 10
524.894070338235
 20
3086.06240169377
 42
-0.2117010000000065
 10
520.8930253382346
 20
3088.090741693772
 42
-0.007325000000000035
 10
509.7849903382345
 20
3102.119886693772
 42
-0.006748999999999897
 10
492.158305338231
 20
3125.717331693775
 42
-0.0008830000000001159
 10
455.4362603382262
 20
3176.476386693779
 42
-0.01773099999999998
 10
380.3490703382345
 20
3288.846671693771
 42
-0.01773900000000013
 10
313.4246503382342
 20
3406.238526693772
 42
-0.01866199999999989
 10
258.9419603382355
 20
3520.379576693772
 42
-0.02914400000000004
 10
221.6371503382345
 20
3622.654761693772
 42
-0.01049700000000001
 10
205.8129853382343
 20
3679.723456693771
 42
-0.02421699999999983
 10
196.9248453382351
 20
3723.330716693771
 42
-0.025421
 10
192.5354303382348
 20
3766.294681693772
 42
-0.01274599999999988
 10
191.144070338235
 20
3820.86740169377
 42
-0.004864000000000038
 10
191.8722053382349
 20
3895.713381693772
 42
-0.1865769999999981
 10
198.1099353382359
 20
3910.959036693771
 42
-0.5868349999999948
 10
206.128995338235
 20
3908.92978669377
 42
-0.009096999999999963
  0
LWPOLYLINE
  5
55
100
AcDbEntity
  8
0
  6
ByLayer
 62
  256
370
   -1
100
AcDbPolyline
 90
   28
 70
    1
 43
0
 10
-1359.726399661765
 20
3374.271911693771
 42
-0.00597299999999998
 10
-1362.098399661766
 20
3370.413736693771
 42
-0.0004309999999999678
 10
-1368.799489661767
 20
3359.820601693773
 42
-0.0006039999999999634
 10
-1376.817594661761
 20
3347.203386693772
 42
-0.0004560000000002289
 10
-1385.651459661765
 20
3333.367401693764
 42
0.02683100000000005
 10
-1453.469109661766
 20
3213.673071693772
 42
0.02174800000000006
 10
-1513.426084661766
 20
3078.816256693771
 42
0.02200899999999993
 10
-1560.581744661765
 20
2941.526731693771
 42
0.03042700000000001
 10
-1589.762479661766
 20
2814.617401693771
 42
-0.007167999999999872
 10
-1593.153954661765
 20
2795.927421693771
 42
-0.01168099999999985
 10
-1596.627449661765
 20
2780.187716693771
 42
-0.005417000000000034
 10
-1599.957934661765
 20
2767.220016693771
 42
-0.3393339999998478
 10
-1601.721484661765
 20
2765.867401693772
 42
-0.3099730000000405
 10
-1603.526344661765
 20
2767.105256693772
 42
-0.01012499999999986
 10
-1606.675944661765
 20
2775.781461693771
 42
-0.01614300000000003
 10
-1609.995929661765
 20
2786.680181693771
 42
-0.01012099999999981
 10
-1613.205349661765
 20
2799.617401693772
 42
-0.06495799999999984
 10
-1624.251674661764
 20
2917.805031693772
 42
-0.06125199999999997
 10
-1605.093584661765
 20
3037.361686693771
 42
-0.05715300000000002
 10
-1555.631069661765
 20
3155.859811693771
 42
-0.04489899999999996
 10
-1477.060564661765
 20
3270.867401693772
 42
-0.01829300000000007
 10
-1446.130139661765
 20
3305.73264669377
 42
-0.01121800000000001
 10
-1407.306779661766
 20
3344.611631693771
 42
-0.003667000000000038
 10
-1367.718249661766
 20
3381.964181693771
 42
-0.3376680000000282
 10
-1360.267319661764
 20
3382.694601693772
 42
-0.141413000000035
 10
-1358.985209661764
 20
3381.279866693772
 42
-0.09810300000000245
 10
-1358.427689661765
 20
3379.181686693771
 42
-0.08343199999999788
 10
-1358.680784661765
 20
3376.717346693771
 42
-0.06771900000000057
  0
LWPOLYLINE
  5
56
100
AcDbEntity
  8
0
  6
ByLayer
 62
  256
370
   -1
100
AcDbPolyline
 90
   24
 70
    1
 43
0
 10
5006.475775338235
 20
2430.397631693771
 42
-0.01128800000000001
 10
5029.146860338235
 20
2425.68641169377
 42
-0.04545299999999979
 10
5042.565460338235
 20
2421.264801693771
 42
-0.2434699999999677
 10
5045.589295338234
 20
2417.555916693771
 42
-0.3891739999999813
 10
5043.644070338235
 20
2414.280616693771
 42
-0.03568800000000089
 10
5038.305410338234
 20
2413.079801693769
 42
-0.001414999999999917
 10
5018.519070338233
 20
2410.148696693773
 42
-0.002494000000000032
 10
4995.049280338234
 20
2406.859231693771
 42
-0.001760000000000038
 10
4968.644070338234
 20
2403.387126693769
 42
0.01131600000000006
 10
4899.948510338236
 20
2393.014986693771
 42
0.007451999999999989
 10
4821.418680338235
 20
2378.12452669377
 42
0.007466999999999988
 10
4743.733430338234
 20
2360.978576693771
 42
0.01177200000000003
 10
4677.681350338235
 20
2343.71072169377
 42
-0.003133000000000011
 10
4618.268060338235
 20
2327.076721693772
 42
-0.1312450000000006
 10
4605.134725338236
 20
2327.001641693771
 42
-0.6553920000000732
 10
4604.349980338235
 20
2332.017271693771
 42
-0.008890999999999989
 10
4639.739180338235
 20
2353.612706693772
 42
-0.02681500000000006
 10
4689.464680338235
 20
2379.279991693772
 42
-0.01855599999999998
 10
4748.129115338234
 20
2403.105641693771
 42
-0.01875000000000002
 10
4806.776160338235
 20
2421.968296693772
 42
-0.03387600000000006
 10
4856.144070338234
 20
2432.282291693773
 42
-0.02892000000000002
 10
4886.513410338234
 20
2434.729511693772
 42
-0.008779999999999953
 10
4932.718500338235
 20
2434.961661693773
 42
-0.008510000000000023
 10
4978.561325338235
 20
2433.606351693771
 42
-0.03394799999999994
  0
LWPOLYLINE
  5
57
100
AcDbEntity
  8
0
  6
ByLayer
 62
  256
370
   -1
100
AcDbPolyline
 90
   26
 70
    1
 43
0
 10
-1317.009984661764
 20
1498.814066693772
 42
0.03643999999999997
 10
-1249.912289661765
 20
1464.581806693772
 42
0.02346099999999989
 10
-1167.906189661766
 20
1434.461171693771
 42
0.02361899999999996
 10
-1086.139864661766
 20
1412.897046693771
 42
0.04887900000000014
 10
-1020.570509661765
 20
1405.459531693771
 10
-993.855929661765
 20
1405.051661693771
 10
-1011.355929661765
 20
1396.820111693771
 42
-0.05679700000000007
 10
-1023.227264661765
 20
1392.804276693772
 42
-0.02825799999999984
 10
-1038.934489661765
 20
1390.330306693772
 42
-0.01890900000000017
 10
-1060.902859661766
 20
1388.968586693772
 42
-0.005936000000000029
 10
-1093.855929661766
 20
1388.565836693773
 42
-0.005685000000000077
 10
-1133.438069661766
 20
1389.002096693772
 42
-0.03105299999999989
 10
-1154.762069661765
 20
1390.807821693772
 42
-0.04254400000000026
 10
-1172.640274661766
 20
1395.02412169377
 42
-0.01677799999999993
 10
-1196.407214661766
 20
1403.70492169377
 42
-0.01574700000000004
 10
-1213.044149661766
 20
1411.03967669377
 42
-0.00985299999999985
 10
-1232.056614661765
 20
1420.612201693771
 42
-0.009886999999999948
 10
-1250.430734661765
 20
1430.791496693771
 42
-0.01771899999999994
 10
-1265.035289661765
 20
1439.970571693771
 42
-0.02176399999999984
 10
-1291.459219661765
 20
1459.647391693773
 42
-0.01179299999999978
 10
-1322.270109661765
 20
1485.979576693773
 42
-0.005715999999999988
 10
-1350.819159661766
 20
1512.162706693772
 42
-0.6645119999999644
 10
-1349.509984661765
 20
1515.685086693772
 42
-0.1246530000000062
 10
-1346.693969661765
 20
1515.096346693771
 42
-0.006172999999999958
 10
-1338.170404661765
 20
1510.804431693771
 42
-0.009649999999999962
 10
-1328.111969661765
 20
1505.334046693771
 42
-0.006799000000000046
  0
LWPOLYLINE
  5
58
100
AcDbEntity
  8
0
  6
ByLayer
 62
  256
370
   -1
100
AcDbPolyline
 90
   44
 70
    1
 43
0
 10
271.1440703382323
 20
1422.772316693774
 42
0.004125000000000064
 10
437.7238853382314
 20
1287.046726693778
 42
0.002644999999999935
 10
633.2264703382207
 20
1132.111856693777
 42
0.002351999999999934
 10
815.9952453382236
 20
990.2189116937711
 42
0.01181600000000011
 10
920.4632103382349
 20
913.7584116937721
 42
0.005006000000000013
 10
941.3895703382336
 20
899.4979216937736
 42
0.002945000000000132
 10
966.6784403382344
 20
882.8471516937716
 42
0.002944999999999909
 10
992.1511953382342
 20
866.5021416937698
 42
0.005024999999999762
 10
1013.644070338234
 20
853.1896516937707
 42
-0.01276799999999994
 10
1056.107375338235
 20
825.9695666937699
 42
-0.0165529999999999
 10
1093.510405338234
 20
798.7741716937689
 42
-0.0159149999999999
 10
1130.160825338234
 20
768.302366693771
 42
-0.01048299999999996
 10
1170.415970338235
 20
731.0706566937713
 42
-0.01135099999999997
 10
1201.822070338235
 20
699.3700516937718
 42
-0.004648999999999984
 10
1243.065970338235
 20
654.9852116937723
 42
-0.004687000000000018
 10
1284.774150338234
 20
608.3854516937706
 42
-0.008176000000000062
 10
1318.344500338236
 20
568.8783716937704
 42
-0.93954800000053
 10
1317.993840338235
 20
568.5514966937717
 42
-0.002569999999999943
 10
1304.024820338233
 20
581.9168816937738
 42
-0.002475999999999862
 10
1284.019785338231
 20
601.4479666937741
 42
-0.00120299999999992
 10
1258.644070338236
 20
626.589806693773
 42
0.01071300000000001
 10
1208.858290338235
 20
674.0748066937717
 42
0.01171699999999995
 10
1158.519610338234
 20
717.9491866937711
 42
0.01252600000000009
 10
1112.031965338236
 20
754.6590216937711
 42
0.02832500000000008
 10
1074.701765338236
 20
779.4769866937728
 42
0.01435699999999999
 10
1062.096165338235
 20
786.3860516937707
 42
0.002954000000000019
 10
1039.455780338234
 20
797.7944416937708
 42
0.003106000000000077
 10
1012.984615338235
 20
810.7332766937718
 42
0.002917999999999969
 10
985.8003153382339
 20
823.6173166937715
 42
-0.01196600000000001
 10
888.1033203382344
 20
872.1048116937695
 42
-0.007911000000000184
 10
778.1593103382315
 20
932.2302916937729
 42
-0.007912999999999814
 10
670.2170853382361
 20
995.7784916937721
 42
-0.01200699999999991
 10
578.644070338235
 20
1054.722861693772
 42
-0.02039899999999986
 10
440.5484353382336
 20
1156.840496693772
 42
-0.03033500000000008
 10
329.3608203382338
 20
1257.992316693772
 42
-0.03543299999999984
 10
247.7487603382343
 20
1354.66175169377
 42
-0.07064500000000001
 10
200.7906603382339
 20
1442.858811693771
 42
-0.01166200000000027
 10
194.4245653382344
 20
1461.760476693771
 42
-0.05859800000000009
 10
192.3811303382351
 20
1472.711156693771
 42
-0.1610040000000066
 10
193.8666753382339
 20
1478.484456693771
 42
-0.2595170000000549
 10
198.2274053382348
 20
1480.820776693772
 42
-0.1649809999999788
 10
200.276055338235
 20
1480.089171693771
 42
-0.0005840000000000249
 10
220.8498003382358
 20
1463.74981169377
 42
-0.00301699999999999
 10
244.0986053382362
 20
1445.01128669377
 42
-0.001878999999999881
  0
LWPOLYLINE
  5
59
100
AcDbEntity
  8
0
  6
ByLayer
 62
  256
370
   -1
100
AcDbPolyline
 90
   28
 70
    1
 43
0
 10
1410.790535338234
 20
-512.3386633062293
 42
0.0275910000000001
 10
1406.951035338235
 20
-533.0895083062292
 42
0.0110570000000001
 10
1403.904005338234
 20
-561.8151433062288
 42
0.009183000000000042
 10
1401.550110338235
 20
-597.8671233062282
 42
0.005058000000000029
 10
1399.927920338235
 20
-642.0265233062288
 42
0.009719999999999882
 10
1399.425005338235
 20
-712.2263483062279
 42
0.01614999999999995
 10
1402.061570338236
 20
-771.3397833062272
 42
0.01671000000000012
 10
1408.415365338234
 20
-828.7179633062275
 42
0.01140400000000004
 10
1419.291230338233
 20
-893.4298783062284
 42
-0.005142000000000022
 10
1422.916670338236
 20
-913.4632783062287
 42
-0.008096999999999991
 10
1425.572870338234
 20
-930.7395633062287
 42
-0.003119000000000019
 10
1427.501970338236
 20
-945.4811533062289
 42
-0.231319000000074
 10
1426.738385338234
 20
-947.7049533062291
 42
-0.3690100000000142
 10
1425.010115338235
 20
-947.8406933062294
 42
-0.01793699999999992
 10
1420.124455338235
 20
-944.0135033062284
 42
-0.02201999999999984
 10
1414.229220338236
 20
-938.5827683062283
 42
-0.01323200000000004
 10
1407.702330338235
 20
-931.6588683062289
 42
-0.08336299999999988
 10
1364.332635338235
 20
-862.955128306229
 42
-0.07179300000000016
 10
1342.901115338234
 20
-780.198573306229
 42
-0.062914
 10
1344.386535338234
 20
-684.9765733062288
 42
-0.04307299999999998
 10
1368.786390338235
 20
-579.5105433062292
 42
-0.01308600000000005
 10
1382.638820338236
 20
-540.3025233062294
 42
-0.01411400000000001
 10
1398.205125338235
 20
-502.8614433062292
 42
-0.009228000000000061
 10
1412.694805338235
 20
-472.1388783062284
 42
-0.6542630000000583
 10
1416.934520338235
 20
-472.3386633062294
 42
-0.1205960000000024
 10
1417.413575338235
 20
-476.1528683062293
 42
-0.009330000000000017
 10
1416.029085338236
 20
-486.4424183062293
 42
-0.01233400000000019
 10
1413.819990338235
 20
-498.7871483062289
 42
-0.00909599999999995
  0
LWPOLYLINE
  5
5A
100
AcDbEntity
  8
0
  6
ByLayer
 62
  256
370
   -1
100
AcDbPolyline
 90
   32
 70
    1
 43
0
 10
3754.745850338235
 20
-1252.364298306229
 42
-0.06484000000000041
 10
3765.910440338234
 20
-1259.95837830623
 42
-0.09203199999999674
 10
3773.259535338235
 20
-1269.418973306229
 42
-0.08042500000000033
 10
3777.336035338235
 20
-1281.870628306229
 42
-0.03899099999999991
 10
3778.644070338235
 20
-1298.618788306229
 42
-0.1213529999999995
 10
3764.489405338235
 20
-1356.08000830623
 42
-0.03342199999999997
 10
3715.476250338235
 20
-1436.04586330623
 42
-0.02723899999999997
 10
3638.520905338235
 20
-1532.95056330623
 42
-0.01381000000000013
 10
3531.941535338234
 20
-1646.615713306231
 42
-0.002784000000000015
 10
3497.888710338232
 20
-1680.59890830623
 42
-0.005075999999999969
 10
3469.654830338234
 20
-1707.902893306228
 42
-0.002254000000000101
 10
3446.475125338234
 20
-1729.67075830623
 42
-0.7690400000001845
 10
3445.164830338235
 20
-1728.846233306229
 42
-0.07189199999999986
 10
3447.681470338235
 20
-1723.576713306228
 42
-0.001877999999999946
 10
3462.269255338234
 20
-1701.923113306229
 42
-0.003924000000000062
 10
3479.733480338235
 20
-1676.63801830623
 42
-0.002668000000000011
 10
3499.986170338235
 20
-1648.127103306229
 42
0.005901999999999844
 10
3543.207145338233
 20
-1586.441098306231
 42
0.01006799999999999
 10
3577.648210338234
 20
-1533.784278306229
 42
0.0114749999999998
 10
3606.529500338233
 20
-1485.178918306229
 42
0.01203399999999998
 10
3632.675970338234
 20
-1436.05613830623
 42
0.01909300000000006
 10
3658.957910338235
 20
-1378.274413306228
 42
0.04120699999999982
 10
3673.680590338235
 20
-1331.725703306229
 42
0.05580699999999998
 10
3677.846505338236
 20
-1294.839608306229
 42
0.1210090000000022
 10
3671.113265338236
 20
-1267.311063306228
 42
-0.01075199999999986
 10
3668.253365338235
 20
-1261.527438306229
 42
-0.01311200000000005
 10
3665.838145338235
 20
-1255.993178306229
 42
-0.01166400000000006
 10
3664.050840338235
 20
-1251.272683306229
 42
-0.08485799999999943
 10
3663.644070338235
 20
-1248.893173306229
 42
-0.3988890000000011
 10
3669.871925338234
 20
-1242.328788306229
 42
-0.02267500000000005
 10
3700.430625338235
 20
-1242.106943306229
 42
-0.02956999999999999
 10
3732.706980338235
 20
-1245.254318306229
 42
-0.07802799999999985
  0
LWPOLYLINE
  5
5B
100
AcDbEntity
  8
0
  6
ByLayer
 62
  256
370
   -1
100
AcDbPolyline
 90
   16
 70
    1
 43
0
 10
2263.644070338203
 20
-1721.869858306236
 42
-0.0001850000000001094
 10
2195.454045338131
 20
-1739.909383306251
 42
-0.0003039999999999495
 10
2137.737665337627
 20
-1755.117653306224
 42
-1.899999999983509e-005
 10
2085.772785338088
 20
-1768.774438306051
 42
-0.04851700000000225
 10
2084.281845338235
 20
-1769.015043306229
 42
-0.6766430000003233
 10
2083.271765338234
 20
-1766.892043306229
 42
-0.03220199999999989
 10
2091.213065338236
 20
-1759.332973306229
 42
-0.02456399999999998
 10
2103.342365338234
 20
-1750.164863306228
 42
-0.02799400000000011
 10
2115.809580338235
 20
-1742.655103306228
 42
-0.02837699999999996
 10
2155.730285338236
 20
-1724.373628306229
 42
-0.02385099999999999
 10
2199.828865338235
 20
-1709.514323306229
 42
-0.02085100000000007
 10
2250.669450338235
 20
-1697.308663306229
 42
-0.01297100000000004
 10
2311.144070338234
 20
-1687.053388306229
 42
-0.002082999999999996
 10
2415.469665338234
 20
-1672.577653306228
 42
-0.7772200000001874
 10
2417.274790338235
 20
-1677.056568306229
 42
-0.09270600000000072
 10
2399.447190338225
 20
-1685.61633830623
 42
-0.0009399999999999268
  0
LWPOLYLINE
  5
5C
100
AcDbEntity
  8
0
  6
ByLayer
 62
  256
370
   -1
100
AcDbPolyline
 90
  110
 70
    1
 43
0
 10
-3388.855929661765
 20
3592.785431693771
 42
0.06854299999999887
 10
-3403.337334661765
 20
3587.18210169377
 42
0.08854399999999965
 10
-3414.377509661765
 20
3578.205111693771
 42
0.09324099999999964
 10
-3421.242749661764
 20
3566.367146693771
 42
0.08510199999999933
 10
-3423.628654661765
 20
3552.450726693772
 42
0.1097330000000001
 10
-3418.558324661765
 20
3529.625781693772
 42
0.0524729999999998
 10
-3402.979689661765
 20
3503.755981693771
 42
0.03842000000000011
 10
-3376.616619661766
 20
3473.920136693771
 42
0.01696600000000009
 10
-3337.605929661765
 20
3438.557711693772
 42
-0.001833999999999917
 10
-3317.957214661765
 20
3421.801081693772
 42
-0.002982999999999937
 10
-3301.410614661763
 20
3407.412331693772
 42
-0.0004689999999999027
 10
-3286.869249661766
 20
3394.589916693774
 42
-0.2150239999999734
 10
-3286.355929661765
 20
3393.451466693771
 42
-0.2588469999998753
 10
-3286.917889661765
 20
3392.438686693772
 42
-0.001788999999999988
 10
-3295.636804661764
 20
3387.04415169377
 42
-0.006258000000000143
 10
-3305.838274661765
 20
3380.95713169377
 42
-0.003889000000000068
 10
-3317.950394661766
 20
3374.059426693771
 42
0.01723400000000007
 10
-3352.267284661766
 20
3353.284541693772
 42
0.02079700000000003
 10
-3382.919919661765
 20
3331.381791693771
 42
0.02237499999999989
 10
-3407.322054661765
 20
3310.544816693771
 42
0.06652899999999964
 10
-3421.231039661764
 20
3293.569481693772
 42
0.01957800000000001
 10
-3427.045979661765
 20
3283.280851693772
 42
0.07285899999999999
 10
-3429.449734661765
 20
3276.258801693771
 42
0.09859300000000003
 10
-3429.373474661765
 20
3270.008346693771
 42
0.05474799999999973
 10
-3426.979789661765
 20
3262.739906693771
 42
0.1593319999999992
 10
-3413.129699661765
 20
3247.678741693772
 42
0.07510999999999959
 10
-3388.133354661765
 20
3238.232446693772
 42
0.03080800000000004
 10
-3342.506449661767
 20
3231.346846693769
 42
0.003931999999999971
 10
-3243.570439661768
 20
3223.383281693771
 42
-0.005906999999999956
 10
-3174.445499661765
 20
3217.544451693772
 42
-0.03155400000000009
 10
-3137.080299661765
 20
3211.546371693772
 42
-0.04332600000000015
 10
-3106.225244661764
 20
3201.701691693771
 42
-0.01765199999999997
 10
-3066.160079661765
 20
3183.290606693772
 42
-0.02566100000000007
 10
-2995.215199661765
 20
3142.918566693772
 42
-0.05863000000000018
 10
-2947.639299661765
 20
3103.987451693772
 42
-0.08871300000000028
 10
-2922.982104661764
 20
3067.233591693771
 42
-0.1852570000000001
 10
-2921.367639661765
 20
3033.331921693771
 42
-0.1170770000000003
 10
-2936.228004661765
 20
3009.195291693771
 42
-0.06685600000000023
 10
-2963.577684661765
 20
2988.303496693772
 42
-0.04133900000000007
 10
-3007.914189661765
 20
2967.63729669377
 42
-0.01222200000000014
 10
-3078.855929661765
 20
2943.40877669377
 42
0.012393
 10
-3150.890709661765
 20
2918.779431693772
 42
0.04062400000000008
 10
-3196.469054661765
 20
2897.57561669377
 42
0.0677839999999998
 10
-3222.806149661765
 20
2877.470781693772
 42
0.1984020000000014
 10
-3231.355929661765
 20
2856.772331693771
 42
0.1639480000000005
 10
-3226.362229661765
 20
2841.952156693771
 42
0.06013500000000015
 10
-3210.772829661765
 20
2825.879401693771
 42
0.048003
 10
-3186.981449661765
 20
2810.134926693771
 42
0.03016099999999998
 10
-3156.621709661766
 20
2796.271121693772
 42
0.03698799999999994
 10
-3101.690249661765
 20
2779.631886693772
 42
0.05154600000000012
 10
-3050.716624661765
 20
2773.631361693771
 42
0.02061900000000009
 10
-2973.129699661763
 20
2775.730901693765
 42
0.001565999999999901
 10
-2763.855929661776
 20
2790.70230169376
 42
-0.001018999999999964
 10
-2579.430304661762
 20
2804.098906693775
 42
-0.007853000000000002
 10
-2492.934879661765
 20
2808.840826693772
 42
-0.01118800000000009
 10
-2418.261834661766
 20
2810.086986693772
 42
-0.00330399999999997
 10
-2303.855929661765
 20
2808.680106693773
 42
-0.003048000000000081
 10
-2173.319554661765
 20
2805.416001693772
 42
-0.03347999999999987
 10
-2121.201139661765
 20
2800.290336693771
 42
-0.07915800000000023
 10
-2088.152599661765
 20
2789.229951693771
 42
-0.05705099999999973
 10
-2055.892329661765
 20
2767.399241693771
 42
0.03807900000000006
 10
-1998.196789661765
 20
2725.086541693771
 42
0.04965099999999985
 10
-1939.485364661765
 20
2696.185201693772
 42
0.04605800000000004
 10
-1872.795334661765
 20
2678.003151693772
 42
0.0270369999999998
 10
-1790.621254661765
 20
2668.090061693771
 10
-1737.386579661765
 20
2664.571751693772
 10
-1754.362939661765
 20
2731.411491693771
 42
-0.02500799999999988
 10
-1778.733754661765
 20
2852.431656693771
 42
-0.04311900000000005
 10
-1785.150184661764
 20
2954.911381693772
 42
-0.04800499999999996
 10
-1773.849244661765
 20
3048.958076693771
 42
-0.04159699999999997
 10
-1744.602999661765
 20
3143.950176693771
 42
0.007321000000000079
 10
-1738.337569661765
 20
3160.240266693771
 42
0.01193999999999997
 10
-1733.558559661765
 20
3174.254096693771
 42
0.005643000000000066
 10
-1730.007469661765
 20
3186.004246693771
 42
0.3417500000000721
 10
-1730.768264661765
 20
3187.929061693773
 42
0.06188200000000024
 10
-1743.755609661765
 20
3193.60722669377
 42
0.003876000000000012
 10
-1784.027124661765
 20
3205.222606693771
 42
0.006324000000000048
 10
-1825.154574661765
 20
3216.181221693771
 42
0.015073
 10
-1856.027859661765
 20
3223.007741693771
 42
0.02545200000000004
 10
-1906.829239661765
 20
3229.989446693772
 42
0.05413500000000015
 10
-1946.441614661765
 20
3229.098711693772
 42
0.04901900000000015
 10
-1987.335909661765
 20
3219.583646693771
 42
0.01761199999999998
 10
-2043.313734661765
 20
3198.399151693772
 42
-0.01610400000000004
 10
-2063.394544661765
 20
3190.730396693772
 42
-0.01043400000000001
 10
-2087.064204661766
 20
3183.103186693771
 42
-0.01049199999999995
 10
-2110.520769661765
 20
3176.614426693771
 42
-0.01950499999999995
 10
-2129.821394661765
 20
3172.50283669377
 42
-0.01403699999999978
 10
-2155.180349661765
 20
3168.856416693772
 42
-0.03004900000000001
 10
-2174.919199661765
 20
3167.77639169377
 42
-0.02438400000000021
 10
-2197.045844661766
 20
3168.976296693773
 42
-0.006521999999999993
 10
-2232.072304661765
 20
3173.056866693772
 42
0.005886999999999957
 10
-2257.459324661765
 20
3176.047091693771
 42
0.005215000000000023
 10
-2283.956964661765
 20
3178.573056693771
 42
0.005241999999999957
 10
-2307.866499661765
 20
3180.348641693771
 42
0.01591200000000004
 10
-2324.163274661765
 20
3180.867401693772
 42
-0.02699999999999987
 10
-2364.984709661765
 20
3183.073331693771
 42
-0.01385500000000021
 10
-2415.771809661766
 20
3190.00679169377
 42
-0.01381399999999993
 10
-2467.079239661766
 20
3199.928311693769
 42
-0.02261800000000008
 10
-2509.812799661765
 20
3211.47360669377
 42
-0.02341900000000006
 10
-2544.590459661766
 20
3224.402541693771
 42
-0.0341080000000001
 10
-2573.731114661766
 20
3239.23968669377
 42
-0.0297689999999999
 10
-2603.309169661766
 20
3259.416806693771
 42
-0.0131210000000001
 10
-2640.010704661765
 20
3289.365031693772
 42
0.03308700000000008
 10
-2769.029869661765
 20
3386.332486693773
 42
0.02747899999999993
 10
-2917.785194661765
 20
3472.179611693771
 42
0.02792599999999997
 10
-3071.769084661765
 20
3539.588261693771
 42
0.03888200000000001
 10
-3216.355929661765
 20
3581.019551693771
 42
0.02217100000000003
 10
-3258.813574661765
 20
3587.741256693772
 42
0.0111440000000001
 10
-3312.877049661765
 20
3592.641396693772
 42
0.008936000000000019
 10
-3364.447144661765
 20
3595.233986693771
 42
0.06626599999999964
  0
LWPOLYLINE
  5
5D
100
AcDbEntity
  8
0
  6
ByLayer
 62
  256
370
   -1
100
AcDbPolyline
 90
   86
 70
    1
 43
0
 10
132.4340403382347
 20
1202.660281693772
 42
0.07387600000000134
 10
128.9134153382347
 20
1193.712161693772
 42
0.005393000000000015
 10
123.2114353382351
 20
1167.797186693771
 42
0.007165999999999917
 10
116.9898553382357
 20
1135.699126693771
 42
0.004627999999999917
 10
110.663550338235
 20
1098.367401693771
 42
0.02742700000000002
 10
104.5619553382346
 20
1039.779091693771
 42
0.01246999999999978
 10
102.7131953382348
 20
962.7291966937726
 42
0.01249300000000002
 10
104.7586803382351
 20
883.8737066937717
 42
0.02182500000000019
 10
110.9288703382344
 20
818.8172366937706
 42
0.03275600000000005
 10
141.9569253382349
 20
668.6004916937716
 42
0.03415399999999991
 10
192.0368303382349
 20
525.8747116937709
 42
0.03304499999999997
 10
262.7979253382355
 20
387.1935366937719
 42
0.02705399999999986
 10
355.6906903382348
 20
249.0449916937733
 42
0.00531599999999998
 10
374.1761053382354
 20
225.063671693772
 42
0.003978999999999878
 10
395.0298353382343
 20
199.0256166937731
 42
0.004021999999999993
 10
415.0621853382344
 20
174.817426693773
 42
0.00917200000000002
 10
430.6582103382357
 20
156.9518266937714
 42
-0.03686800000000001
 10
457.117235338235
 20
123.0223916937716
 42
-0.1706930000000011
 10
463.1900003382347
 20
99.28777669377065
 42
-0.1284099999999995
 10
453.848765338235
 20
73.13557669377093
 42
-0.01744299999999992
 10
419.1403753382351
 20
25.86740169377072
 42
-0.02932599999999996
 10
336.7198303382348
 20
-66.81033330622915
 42
-0.035883
 10
249.080500338235
 20
-142.6800283062307
 42
-0.0390069999999999
 10
158.844790338236
 20
-199.7359133062299
 42
-0.05147500000000017
 10
68.64407033823508
 20
-236.0770033062302
 42
-0.02745
 10
6.172030338234066
 20
-250.391818306229
 42
-0.01581899999999978
 10
-70.27962466176501
 20
-261.0664683062284
 42
-0.01578400000000005
 10
-147.8379196617655
 20
-266.9354433062273
 42
-0.02568499999999999
 10
-213.8559296617651
 20
-266.4471083062283
 42
-0.01029599999999999
 10
-238.5605346617649
 20
-264.482753306228
 42
-0.00399600000000013
 10
-272.6684296617673
 20
-260.7871233062278
 42
-0.003953999999999919
 10
-309.5637996617658
 20
-256.1948233062276
 42
-0.00488799999999999
 10
-343.8559296617653
 20
-251.3092683062282
 42
0.005802000000000052
 10
-427.9305246617645
 20
-239.4878983062279
 42
0.01386999999999992
 10
-490.616759661765
 20
-233.1762333062277
 42
0.01326199999999995
 10
-555.1925546617651
 20
-230.1979233062293
 42
0.004892000000000066
 10
-646.3559296617651
 20
-229.3060633062296
 42
0.003164999999999998
 10
-707.1223346617649
 20
-229.6907983062292
 42
0.007764000000000038
 10
-751.7860046617649
 20
-230.9501583062283
 42
0.01009300000000003
 10
-784.8686696617649
 20
-233.0670633062285
 42
0.03120599999999993
 10
-807.0112846617652
 20
-236.3338583062289
 42
0.04868500000000013
 10
-856.9282196617651
 20
-252.1126283062287
 42
0.05497400000000011
 10
-900.7064146617648
 20
-276.7898533062294
 42
0.063634
 10
-931.438374661765
 20
-305.4325333062283
 42
0.1751270000000004
 10
-941.3559296617648
 20
-332.8794833062293
 42
0.2380879999999985
 10
-929.6842746617647
 20
-356.0012433062277
 42
0.03203799999999998
 10
-882.4832346617656
 20
-386.3753183062279
 42
0.02752500000000028
 10
-812.1199946617658
 20
-420.5995933062281
 42
0.0123590000000001
 10
-716.3559296617643
 20
-458.0684933062294
 42
0.008713999999999923
 10
-626.1229446617658
 20
-489.0569733062289
 42
0.007614000000000011
 10
-530.7275246617687
 20
-518.3730983062269
 42
0.003710999999999955
 10
-387.084264661833
 20
-558.9795633062022
 42
0.0004970000000000769
 10
-83.85592966178319
 20
-641.9497283062137
 10
331.144070338235
 20
-755.0597983062287
 10
363.6440703382348
 20
-743.9585933062292
 42
0.0155269999999999
 10
522.5870903382336
 20
-684.0953833062313
 42
0.008425999999999979
 10
714.2527353382313
 20
-601.222948306232
 42
0.008425000000000156
 10
903.3103853382356
 20
-511.8006383062302
 42
0.01530199999999999
 10
1054.213575338235
 20
-431.4542383062283
 42
0.01465899999999981
 10
1178.794400338233
 20
-355.2139633062293
 42
0.01583000000000016
 10
1295.466985338236
 20
-273.6428583062288
 42
0.01684599999999985
 10
1393.523705338235
 20
-195.0754833062294
 42
0.04116399999999989
 10
1458.496690338236
 20
-129.3086233062286
 42
0.06876100000000035
 10
1475.132000338234
 20
-102.7594633062285
 42
0.08148699999999909
 10
1482.729340338234
 20
-74.17947330622935
 42
0.06366099999999981
 10
1481.684855338234
 20
-39.31027830622952
 42
0.02579499999999995
 10
1471.816730338235
 20
7.291176693770723
 42
0.03835800000000007
 10
1439.015915338235
 20
100.9312416937714
 42
0.03410300000000003
 10
1391.194675338236
 20
192.3877666937716
 42
0.03142200000000016
 10
1327.308610338235
 20
283.253611693772
 42
0.02346200000000004
 10
1246.298570338235
 20
375.1480066937711
 42
0.01963299999999999
 10
1150.934515338235
 20
466.1668766937722
 42
0.01991500000000003
 10
1049.163950338236
 20
548.9717966937715
 42
0.01683700000000011
 10
926.903180338235
 20
634.332806693772
 42
0.008482999999999989
 10
767.3939153382307
 20
734.086546693773
 42
-0.006150999999999827
 10
620.2632353382328
 20
825.1472666937711
 42
-0.008176999999999804
 10
488.9223403382339
 20
911.7365116937694
 42
-0.009137999999999979
 10
376.5092953382341
 20
991.5648566937714
 42
-0.01635099999999997
 10
287.6048353382349
 20
1061.778561693772
 42
-0.008792999999999919
 10
269.6307503382343
 20
1077.503476693772
 42
-0.003228999999999926
 10
244.7818503382352
 20
1100.320531693771
 42
-0.003199000000000245
 10
217.9485503382334
 20
1125.603201693772
 42
-0.003834000000000135
 10
193.0246753382343
 20
1149.757551693772
 42
0.005513999999999953
 10
170.5587703382359
 20
1171.383896693772
 42
0.009392999999999929
 10
151.2519253382349
 20
1188.890916693771
 42
0.003630000000000008
 10
134.7743453382341
 20
1203.06830669377
 42
0.4682519999998528
  0
LWPOLYLINE
  5
5E
100
AcDbEntity
  8
0
  6
ByLayer
 62
  256
370
   -1
100
AcDbPolyline
 90
   24
 70
    1
 43
0
 10
210.8954803382344
 20
895.2728566937717
 42
0.01247400000000013
 10
236.6923553382353
 20
796.6065816937731
 42
0.008038999999999919
 10
271.2549953382359
 20
683.5776666937725
 42
0.007280999999999944
 10
313.6604303382337
 20
558.7153316937738
 42
0.005645000000000084
 10
363.3285103382351
 20
424.0084066937715
 42
-0.005627000000000077
 10
371.1502753382362
 20
402.7970516937708
 42
-0.008406999999999901
 10
377.4635953382351
 20
384.0736116937707
 42
-0.004270999999999927
 10
382.3772553382348
 20
368.1811566937713
 42
-0.1544780000000071
 10
382.3196253382351
 20
364.3940666937718
 42
-0.5988229999999031
 10
376.5694203382345
 20
363.4073666937705
 42
-0.008305000000000005
 10
349.8953953382342
 20
398.8604966937721
 42
-0.01529999999999986
 10
322.7516853382348
 20
438.7232716937709
 42
-0.02262100000000009
 10
301.6629053382345
 20
475.3871616937703
 42
-0.02604600000000017
 10
267.2383553382346
 20
551.5177916937711
 42
-0.0235630000000001
 10
239.6131503382346
 20
633.3787666937731
 42
-0.02170200000000002
 10
217.962000338234
 20
723.8294316937712
 42
-0.01583699999999991
 10
201.507855338235
 20
825.8674016937715
 42
-0.005834999999999918
 10
195.3396303382358
 20
878.556706693771
 42
-0.007575000000000011
 10
190.9836903382343
 20
926.9777616937719
 42
-0.003022999999999965
 10
188.0968103382331
 20
969.0428616937711
 42
-0.6803199999996618
 10
190.7198203382348
 20
970.2728566937701
 42
-0.1370820000000073
 10
192.4100653382366
 20
967.4659616937714
 42
-0.001692000000000027
 10
197.9994253382367
 20
946.9651016937717
 42
-0.004857999999999976
 10
204.1826803382351
 20
923.0561266937705
 42
-0.003142999999999953
  0
LWPOLYLINE
  5
5F
100
AcDbEntity
  8
0
  6
ByLayer
 62
  256
370
   -1
100
AcDbPolyline
 90
   16
 70
    1
 43
0
 10
-468.1990596617648
 20
-286.3161083062278
 42
-0.004342999999999974
 10
-420.4771146617654
 20
-293.7153583062272
 42
-0.00441700000000006
 10
-373.1588546617663
 20
-301.9033683062298
 42
-0.0007629999999999951
 10
-328.0456396617666
 20
-310.1920333062281
 42
-0.6038440000001181
 10
-327.5013896617657
 20
-311.9447233062287
 42
-0.2158269999999344
 10
-329.9934846634278
 20
-312.8835083064623
 42
-1.700000000001709e-005
 10
-545.4203096637502
 20
-298.8822533062194
 42
-5.00000000000278e-005
 10
-758.1917296619549
 20
-285.0248333061484
 42
-0.06533700000000069
 10
-766.3559296617651
 20
-283.4070283062295
 42
-0.7544200000011776
 10
-766.3324646617651
 20
-282.9181533062281
 42
-0.006674000000000059
 10
-760.7778046617649
 20
-281.6944533062292
 42
-0.008689000000000051
 10
-753.2751346617648
 20
-280.2817683062283
 42
-0.00449800000000002
 10
-743.8559296617651
 20
-278.7642433062277
 42
-0.03931900000000001
 10
-701.9863046617651
 20
-275.7384033062281
 42
-0.005232999999999939
 10
-613.2773196617649
 20
-277.239698306229
 42
-0.006195999999999913
 10
-523.9996796617654
 20
-280.7931283062304
 42
-0.02324499999999997
  0
LWPOLYLINE
  5
60
100
AcDbEntity
  8
0
  6
ByLayer
 62
  256
370
   -1
100
AcDbPolyline
 90
  158
 70
    1
 43
0
 10
383.6440703382349
 20
-2501.466748306229
 42
0.02880899999999994
 10
258.6889503382346
 20
-2526.831193306229
 42
0.02790399999999998
 10
136.1060953382349
 20
-2566.593368306229
 42
0.02648800000000008
 10
12.94117533823453
 20
-2621.953258306228
 42
0.02105100000000007
 10
-113.7901846617651
 20
-2694.091418306229
 42
0.02760000000000002
 10
-283.2033096617648
 20
-2813.70271830623
 42
0.04330599999999996
 10
-412.7678096617649
 20
-2935.989413306228
 42
0.04892700000000006
 10
-507.7487446617647
 20
-3066.271258306229
 42
0.05237599999999999
 10
-573.0832346617648
 20
-3209.666963306229
 42
0.04729899999999998
 10
-593.9352646617642
 20
-3299.395178306229
 42
0.05216799999999986
 10
-596.5704746617649
 20
-3388.490023306229
 42
0.05439600000000008
 10
-580.9311346617649
 20
-3472.826423306229
 42
0.06074100000000012
 10
-547.7338696617649
 20
-3548.507033306229
 42
0.05643999999999998
 10
-511.430354661765
 20
-3596.513758306228
 42
0.04315899999999992
 10
-462.0869196617653
 20
-3640.168418306229
 42
0.04305300000000013
 10
-405.8198646617652
 20
-3674.819888306229
 42
0.05522700000000009
 10
-348.8559296617652
 20
-3695.974878306229
 42
0.04083100000000016
 10
-274.4098696617646
 20
-3708.266423306229
 42
0.02418999999999998
 10
-184.4121946617654
 20
-3711.295418306229
 42
0.02344299999999991
 10
-89.90241966176545
 20
-3705.465813306228
 42
0.02752299999999985
 10
-1.355929661766226
 20
-3690.856838306229
 42
0.01751299999999999
 10
64.40685533823375
 20
-3673.814778306229
 42
0.008079000000000012
 10
148.7446403382337
 20
-3647.286813306228
 42
0.00715300000000012
 10
246.8311853382336
 20
-3613.117688306229
 42
0.005096999999999906
 10
355.7289803382307
 20
-3572.164203306232
 42
-0.002298000000000023
 10
403.8400003382358
 20
-3553.762858306229
 42
-0.003664999999999951
 10
445.1512303382351
 20
-3538.524498306231
 42
-0.0008439999999999269
 10
481.4018353382345
 20
-3525.522983306231
 42
-0.1676519999999985
 10
485.1961153382352
 20
-3525.483278306229
 42
-0.5496240000000242
 10
486.6162503382334
 20
-3531.189068306229
 42
-0.003622000000000084
 10
443.742745338232
 20
-3575.544083306231
 42
-0.010259
 10
401.4390403382346
 20
-3616.945498306229
 42
-0.03419800000000014
 10
371.3725153382351
 20
-3641.545568306229
 42
-0.0133699999999999
 10
353.2847953382316
 20
-3653.672673306231
 42
-0.002105999999999892
 10
316.9768003382314
 20
-3676.41947830623
 42
-0.002337000000000073
 10
273.9320903382286
 20
-3702.857123306232
 42
-0.002038999999999858
 10
228.6440703382368
 20
-3730.129533306228
 42
0.003697999999999977
 10
148.5438253382364
 20
-3778.728538306229
 42
0.01019099999999997
 10
93.06281533823517
 20
-3814.535518306228
 42
0.013205
 10
47.96419533823507
 20
-3846.726318306229
 42
0.01166800000000006
 10
2.690465338234787
 20
-3882.56970830623
 42
0.02388399999999996
 10
-50.81887966176521
 20
-3931.502758306229
 42
0.01534000000000005
 10
-108.2742046617647
 20
-3992.97892330623
 42
0.01497800000000006
 10
-158.6942046617648
 20
-4053.948368306229
 42
0.04630799999999987
 10
-187.4351996617646
 20
-4098.939808306229
 42
0.09286599999999989
 10
-195.7577446617648
 20
-4126.756333306229
 42
0.06904599999999972
 10
-194.7182996617652
 20
-4158.869493306229
 42
0.06748900000000035
 10
-184.8458396617648
 20
-4190.227738306228
 42
0.08004799999999992
 10
-167.3406896617649
 20
-4215.840513306229
 42
0.08234499999999997
 10
-136.8783096617649
 20
-4238.863183306229
 42
0.09177700000000008
 10
-101.7264696617651
 20
-4249.730153306229
 42
0.07471199999999993
 10
-59.29102466176523
 20
-4248.356243306229
 42
0.03632699999999989
 10
-6.674849661765222
 20
-4234.689178306228
 42
0.04309299999999996
 10
69.84969033823492
 20
-4201.166058306228
 42
0.05838299999999977
 10
131.4152003382342
 20
-4157.616343306229
 42
0.02865299999999993
 10
207.3784453382359
 20
-4081.014843306234
 42
0.003450999999999984
 10
363.7211503382332
 20
-3901.684373306236
 42
-0.002485000000000059
 10
459.6431053382345
 20
-3791.228738306229
 42
-0.01484500000000001
 10
511.6129303382347
 20
-3735.415008306229
 42
-0.02460499999999991
 10
554.7104303382342
 20
-3695.892308306228
 42
-0.015848
 10
608.2155503382332
 20
-3654.258253306231
 42
0.001215000000000142
 10
635.2790703382352
 20
-3634.44279330623
 42
0.00149799999999991
 10
660.4146403382301
 20
-3615.828658306233
 42
0.001233000000000067
 10
681.4481253382332
 20
-3600.073703306228
 42
0.01100200000000012
 10
690.525590338235
 20
-3592.920998306228
 10
704.907110338235
 20
-3581.066828306229
 10
676.1888853382352
 20
-3550.047718306228
 42
0.01452300000000008
 10
664.3203403382352
 20
-3537.952643306228
 42
0.01722699999999994
 10
652.4071103382352
 20
-3527.262148306228
 42
0.01620700000000005
 10
641.852860338235
 20
-3518.994638306229
 42
0.09684600000000054
 10
635.5573653382349
 20
-3516.038563306228
 42
-0.01824499999999995
 10
630.992530338235
 20
-3514.714103306228
 42
-0.02762000000000005
 10
627.1436003382354
 20
-3513.203053306229
 42
-0.02624399999999991
 10
624.284825338235
 20
-3511.708178306229
 42
-0.2650890000000163
 10
623.644070338235
 20
-3510.584548306229
 42
-0.1526209999999999
 10
625.882240338251
 20
-3503.422898306191
 42
-0.0001539999999999382
 10
722.1042153382223
 20
-3364.605773306255
 42
-0.001092999999999982
 10
809.2890603382314
 20
-3239.494113306233
 42
-0.01613000000000007
 10
841.4054403382355
 20
-3196.632598306229
 42
0.02503200000000017
 10
854.362580338235
 20
-3178.683448306229
 42
0.07849800000000039
 10
860.3898153382354
 20
-3165.133373306229
 42
0.1084810000000014
 10
860.9461853382352
 20
-3152.977678306229
 42
0.0768689999999992
 10
856.5866203382351
 20
-3139.988398306228
 42
0.05198400000000036
 10
849.7447853382353
 20
-3129.571083306229
 42
0.1017899999999987
 10
842.0776003382348
 20
-3123.333858306229
 42
0.08821099999999964
 10
831.8130103382349
 20
-3120.112838306229
 42
0.032036
 10
816.5297853382349
 20
-3119.132598306229
 42
0.07388999999999984
 10
781.8581353382352
 20
-3124.284493306229
 42
0.06975500000000008
 10
749.4327603382349
 20
-3139.324823306229
 42
0.04027100000000002
 10
709.7468553382353
 20
-3169.751113306228
 42
0.008573999999999979
 10
646.1440703382358
 20
-3229.209713306229
 42
-0.0389710000000001
 10
452.2582103382344
 20
-3389.55050330623
 42
-0.04757699999999982
 10
247.838845338236
 20
-3506.049988306228
 42
-0.05155200000000015
 10
40.5087253382342
 20
-3574.734448306229
 42
-0.06361900000000005
 10
-162.1123946617657
 20
-3592.983703306229
 42
-0.01993700000000004
 10
-213.1291996617649
 20
-3589.041873306229
 42
-0.04090900000000008
 10
-252.403329661765
 20
-3581.131573306229
 42
-0.04537500000000032
 10
-287.1992696617657
 20
-3567.586963306229
 42
-0.03103200000000005
 10
-323.9412396617651
 20
-3546.357053306228
 42
-0.05695900000000005
 10
-364.8446896617654
 20
-3511.919598306229
 42
-0.04655799999999986
 10
-400.1200346617655
 20
-3466.856823306229
 42
-0.04632099999999975
 10
-426.621249661765
 20
-3415.771318306229
 42
-0.0547719999999999
 10
-441.4721546617649
 20
-3363.443533306229
 42
-0.152403
 10
-414.3653996617652
 20
-3164.440328306229
 42
-0.07917900000000001
 10
-272.3105796617647
 20
-2954.955043306229
 42
-0.06926599999999992
 10
-47.62861966176536
 20
-2773.793143306228
 42
-0.06641100000000008
 10
221.144070338235
 20
-2657.731218306229
 42
-0.01050599999999993
 10
278.3634903382352
 20
-2642.876888306228
 42
-0.02035900000000003
 10
324.7378603382349
 20
-2633.848838306229
 42
-0.02010599999999994
 10
372.0702203382353
 20
-2628.556298306228
 42
-0.009973000000000062
 10
432.4128503382347
 20
-2625.463933306228
 42
-0.01555800000000002
 10
517.698905338235
 20
-2625.451768306228
 42
-0.04315499999999993
 10
577.2062353382352
 20
-2632.459788306229
 42
-0.06076800000000004
 10
621.7238353382347
 20
-2647.453543306229
 42
-0.07223799999999973
 10
658.5251353382348
 20
-2672.119973306229
 42
-0.02453700000000003
 10
667.0190753382349
 20
-2680.586393306229
 42
-0.01899500000000008
 10
675.4357453382352
 20
-2690.579603306229
 42
-0.01935700000000001
 10
682.5889403382351
 20
-2700.530263306229
 42
-0.04305799999999989
 10
687.047040338235
 20
-2708.719828306229
 42
-0.07100599999999979
 10
692.8190503382351
 20
-2729.521393306229
 42
-0.03482799999999993
 10
694.4509203382354
 20
-2757.022028306229
 42
-0.03475900000000004
 10
692.2272553382347
 20
-2784.811613306229
 42
-0.06371399999999988
 10
686.0329203382346
 20
-2806.632598306229
 42
-0.05130199999999994
 10
657.8288603382352
 20
-2857.487958306229
 42
-0.02988199999999999
 10
614.5396703382353
 20
-2912.28328830623
 42
-0.02952100000000014
 10
563.8352253382352
 20
-2962.78558830623
 42
-0.0419990000000001
 10
512.8668853382351
 20
-3000.767678306229
 42
-0.02229300000000018
 10
474.4196053382353
 20
-3022.36956830623
 42
-0.01955000000000006
 10
432.5029003382346
 20
-3041.503558306229
 42
-0.01938100000000006
 10
388.8101653382342
 20
-3057.471123306229
 42
-0.02082299999999982
 10
345.0371653382351
 20
-3069.584493306228
 42
-0.02842799999999996
 10
301.687805338235
 20
-3077.092478306229
 42
-0.1032770000000001
 10
273.9924953382352
 20
-3074.560543306229
 42
-0.1397619999999993
 10
254.3056853382352
 20
-3061.810518306229
 42
-0.07063999999999997
 10
238.0411103382351
 20
-3036.839118306229
 42
0.1766770000000002
 10
221.1397853382351
 20
-3019.958353306229
 42
0.08131000000000024
 10
190.7538203382352
 20
-3011.457753306228
 42
0.07374700000000019
 10
155.8659003382348
 20
-3012.739058306229
 42
0.09267299999999959
 10
125.7471103382352
 20
-3024.37793330623
 42
0.1507969999999998
 10
92.93366033823483
 20
-3061.950753306228
 42
0.1482290000000007
 10
86.71424033823398
 20
-3111.757398306229
 42
0.1338290000000003
 10
109.4335503382352
 20
-3160.500413306229
 42
0.115128
 10
154.9358553382351
 20
-3194.329888306229
 42
0.1243330000000001
 10
228.5485603382347
 20
-3206.410718306229
 42
0.04025600000000017
 10
338.2691553382351
 20
-3188.118018306229
 42
0.03866899999999993
 10
457.321485338235
 20
-3148.272733306229
 42
0.04350800000000021
 10
563.9541903382349
 20
-3091.77508830623
 42
0.0241080000000002
 10
620.415245338235
 20
-3051.262293306229
 42
0.01978399999999994
 10
676.7078603382347
 20
-3002.86068830623
 42
0.01998099999999999
 10
728.2881003382348
 20
-2950.83596330623
 42
0.02664799999999992
 10
770.5240453382346
 20
-2899.438838306229
 42
0.09426500000000015
 10
827.9345053382352
 20
-2779.553893306228
 42
0.1464479999999999
 10
824.2707453382346
 20
-2665.790443306229
 42
0.143325
 10
758.3707703382348
 20
-2571.045398306229
 42
0.08886799999999988
 10
638.644070338235
 20
-2505.470168306229
 42
0.06858699999999997
 10
602.7014853382348
 20
-2498.674933306229
 42
0.00854899999999993
 10
523.1029553382352
 20
-2496.063458306229
 42
0.01075399999999994
 10
441.502045338235
 20
-2496.537463306229
 42
0.02884599999999993
  0
LWPOLYLINE
  5
61
100
AcDbEntity
  8
0
  6
ByLayer
 62
  256
370
   -1
100
AcDbPolyline
 90
   24
 70
    1
 43
0
 10
282.5629653382339
 20
-3847.882598306229
 42
-0.008565000000000017
 10
207.7250003382335
 20
-3944.95640830623
 42
-0.02750099999999999
 10
153.3734553382344
 20
-4005.826568306229
 42
-0.03925900000000011
 10
104.5821453382349
 20
-4047.632583306229
 42
-0.04053299999999986
 10
50.35411033823475
 20
-4080.801633306229
 42
-0.02724800000000001
 10
26.24347533823536
 20
-4091.379683306229
 42
-0.01619300000000016
 10
-3.476339661765167
 20
-4101.445888306229
 42
-0.007995000000000136
 10
-32.50431966176573
 20
-4109.736563306229
 42
-0.2680599999999984
 10
-39.21535966176467
 20
-4107.939833306228
 42
-0.2565739999999982
 10
-39.82540466176447
 20
-4105.842728306229
 42
-0.02196599999999982
 10
-38.31801466176458
 20
-4100.247348306229
 42
-0.02472700000000001
 10
-35.75426466176559
 20
-4093.363603306228
 42
-0.01644700000000003
 10
-32.17503966176506
 20
-4085.738188306228
 42
-0.04565799999999989
 10
-6.494709661764318
 20
-4045.048863306229
 42
-0.02424400000000001
 10
32.05581533823516
 20
-3999.532723306229
 42
-0.02333900000000006
 10
77.72906533823465
 20
-3954.985378306229
 42
-0.0266230000000001
 10
125.4698553382349
 20
-3916.927448306229
 42
-0.01549499999999998
 10
157.4172003382382
 20
-3895.592518306226
 42
-0.001820999999999943
 10
230.1963453382268
 20
-3850.552883306234
 42
-0.0003120000000000747
 10
311.2864453382351
 20
-3800.847278306224
 42
-0.138189000000003
 10
317.3721053382347
 20
-3799.132598306229
 42
-0.6093190000000792
 10
317.6163853382322
 20
-3799.606068306231
 42
-0.0004769999999998834
 10
307.7491853382353
 20
-3813.452908306228
 42
-0.003082000000000036
 10
296.3676403382347
 20
-3829.186743306231
 42
-0.001807999999999845
  0
LWPOLYLINE
  5
62
100
AcDbEntity
  8
0
  6
ByLayer
 62
  256
370
   -1
100
AcDbPolyline
 90
  112
 70
    1
 43
0
 10
2676.144070338235
 20
-2559.346003306229
 42
0.038103
 10
2593.443285338236
 20
-2573.816233306229
 42
0.034231
 10
2510.776525338234
 20
-2601.011338306229
 42
0.03463800000000001
 10
2433.648340338234
 20
-2638.793503306229
 42
0.04183900000000002
 10
2367.499265338235
 20
-2684.867188306228
 42
0.011019
 10
2294.306960338236
 20
-2748.294998306228
 42
0.004216000000000005
 10
2195.192340338234
 20
-2839.61993330623
 42
0.003754999999999961
 10
2078.233230338237
 20
-2950.886453306231
 42
0.002607999999999983
 10
1947.692125338237
 20
-3078.277708306233
 42
-0.003999999999999942
 10
1908.978290338234
 20
-3115.84751330623
 42
-0.008283999999999842
 10
1878.033435338235
 20
-3144.435723306229
 42
-0.003399000000000147
 10
1852.585360338234
 20
-3166.86669830623
 42
-0.2872770000000047
 10
1847.692125338235
 20
-3167.637198306229
 42
-0.003396000000000072
 10
1843.173860338229
 20
-3165.672883306226
 42
-0.0001539999999999382
 10
1827.72541033823
 20
-3158.825863306221
 42
-0.0002580000000000633
 10
1809.399980338214
 20
-3150.685663306223
 42
-0.0001839999999999021
 10
1788.915465338235
 20
-3141.564708306233
 42
0.03089100000000004
 10
1663.944015338235
 20
-3094.879708306229
 42
0.04814600000000002
 10
1551.368565338235
 20
-3072.114283306229
 42
0.05487599999999996
 10
1448.234125338235
 20
-3072.76664830623
 42
0.06125900000000001
 10
1351.664115338235
 20
-3096.228213306229
 42
0.02101600000000001
 10
1315.214445338235
 20
-3111.755968306229
 42
0.02951999999999993
 10
1284.254945338235
 20
-3128.821148306229
 42
0.03042700000000001
 10
1256.237285338235
 20
-3148.977143306229
 42
0.02454999999999997
 10
1228.690340338235
 20
-3173.806263306229
 42
0.04991099999999999
 10
1190.023990338235
 20
-3220.807258306229
 42
0.05496199999999998
 10
1162.875825338235
 20
-3273.099498306229
 42
0.05514600000000001
 10
1147.836615338236
 20
-3329.892373306229
 42
0.05083199999999971
 10
1144.992995338235
 20
-3390.208813306228
 42
0.09577900000000042
 10
1165.202500338235
 20
-3470.888263306229
 42
0.08479399999999984
 10
1214.567420338235
 20
-3542.184893306229
 42
0.06289599999999984
 10
1298.709425338234
 20
-3608.899963306229
 42
0.02703900000000024
 10
1425.307800338235
 20
-3676.539633306229
 42
-0.004285000000000017
 10
1449.588850338235
 20
-3688.125403306228
 42
-0.006911000000000001
 10
1470.039040338236
 20
-3698.451598306229
 42
-0.002098999999999947
 10
1487.452655338235
 20
-3707.641943306229
 42
-0.2770230000000836
 10
1488.644070338236
 20
-3709.627308306229
 42
-0.1916269999999897
 10
1486.072110338224
 20
-3716.091743306257
 42
-0.0001429999999999641
 10
1359.704625338229
 20
-3849.684768306251
 42
-0.00141899999999978
 10
1247.130725338241
 20
-3967.953628306224
 42
-0.01177900000000003
 10
1194.666425338235
 20
-4020.23682830623
 42
-0.01424200000000014
 10
1171.792140338235
 20
-4040.774683306229
 42
-0.02395200000000007
 10
1151.334450338235
 20
-4056.496993306229
 42
-0.02314399999999996
 10
1128.976620338235
 20
-4070.547908306229
 42
-0.01227299999999977
 10
1100.101450338236
 20
-4085.959103306229
 42
0.01339600000000001
 10
1056.216250338235
 20
-4109.508183306229
 42
0.02616600000000002
 10
1022.836290338235
 20
-4130.979708306229
 42
0.03296800000000003
 10
998.1720153382347
 20
-4151.329598306229
 42
0.06001699999999997
 10
981.4654803382354
 20
-4171.360728306229
 42
0.04529699999999995
 10
972.7084403382348
 20
-4187.98909830623
 42
0.08676500000000001
 10
969.4107853382345
 20
-4202.660193306229
 42
0.08191800000000034
 10
971.2061603382353
 20
-4218.139343306229
 42
0.03683800000000012
 10
978.2930903382352
 20
-4237.39941330623
 42
0.05940700000000004
 10
987.3181853382347
 20
-4252.289563306229
 42
0.1196830000000016
 10
998.0236853382348
 20
-4260.753398306229
 42
0.08888899999999973
 10
1013.601750338235
 20
-4264.788298306229
 42
0.02307599999999999
 10
1039.590915338235
 20
-4265.567858306229
 42
0.03028299999999998
 10
1065.193300338235
 20
-4263.600188306228
 42
0.04440500000000001
 10
1087.192675338235
 20
-4258.541833306229
 42
0.04669299999999996
 10
1107.119290338235
 20
-4249.926698306229
 42
0.03877199999999979
 10
1126.461795338235
 20
-4237.284538306229
 42
0.03506400000000018
 10
1140.164110338226
 20
-4225.10811830624
 42
0.001057000000000102
 10
1193.416660338227
 20
-4170.417853306236
 42
0.002092000000000089
 10
1255.771360338236
 20
-4105.567528306232
 42
0.001442999999999989
 10
1325.86197533823
 20
-4031.632598306234
 42
-0.001109000000000046
 10
1475.081375338234
 20
-3874.018018306218
 42
-0.004516999999999986
 10
1566.884710338234
 20
-3779.209623306228
 42
-0.005043999999999947
 10
1629.210605338235
 20
-3717.259068306229
 42
-0.0589549999999999
 10
1656.374805338235
 20
-3696.414503306229
 42
-0.05384300000000009
 10
1687.896560338235
 20
-3681.990023306229
 42
-0.00336300000000006
 10
1785.446270338236
 20
-3650.219533306229
 42
-0.004602000000000032
 10
1908.668835338233
 20
-3612.247878306231
 42
-0.002609000000000014
 10
2058.535860338234
 20
-3568.421843306229
 42
-0.04880999999999996
 10
2098.999525338235
 20
-3560.985948306229
 42
-0.09491699999999995
 10
2131.543495338236
 20
-3564.418018306229
 42
-0.04625300000000008
 10
2173.649235338236
 20
-3581.56739830623
 42
-0.004723999999999944
 10
2268.823480338233
 20
-3632.16920830623
 42
0.003959999999999991
 10
2401.24906533823
 20
-3702.836438306222
 42
0.00278499999999996
 10
2551.30513533822
 20
-3780.329668306222
 42
0.001419000000000002
 10
2694.003385338227
 20
-3852.509873306231
 42
0.03514500000000004
 10
2734.726850338235
 20
-3869.497363306229
 42
0.01958600000000003
 10
2750.088685338235
 20
-3874.010803306228
 42
0.00630900000000003
 10
2773.184945338235
 20
-3879.515733306229
 42
0.006281000000000031
 10
2799.058475338235
 20
-3884.998068306229
 42
0.00700099999999995
 10
2824.144770338233
 20
-3889.621033306229
 42
0.0136380000000002
 10
2866.632545338235
 20
-3895.650168306229
 42
0.05453599999999986
 10
2892.875110338235
 20
-3895.774103306229
 42
0.0904019999999999
 10
2911.236750338235
 20
-3890.403438306229
 42
0.09285599999999949
 10
2926.326810338236
 20
-3878.930673306229
 42
0.2288370000000053
 10
2932.051435338235
 20
-3859.437113306229
 42
0.09460799999999975
 10
2922.303505338234
 20
-3832.974663306229
 42
0.07821299999999969
 10
2900.834710338234
 20
-3807.36710330623
 42
0.08622599999999969
 10
2873.193625338235
 20
-3790.611573306229
 42
-0.03603300000000002
 10
2842.988045338221
 20
-3776.207888306293
 42
-0.0002220000000000998
 10
2579.562680337345
 20
-3626.27491330565
 42
-3.499999999986602e-005
 10
2304.9317403384
 20
-3469.777073306092
 42
-0.5334800000001383
 10
2304.708940338235
 20
-3466.714813306228
 42
-0.02517699999999994
 10
2305.917030338314
 20
-3465.86516330624
 42
-1.200000000003289e-005
 10
2346.113125338343
 20
-3440.520093306171
 42
-0.0001750000000000347
 10
2390.821915338223
 20
-3412.353013306201
 42
-0.0001069999999999759
 10
2443.644070338201
 20
-3379.116003306219
 42
0.001531000000000113
 10
2553.117395338235
 20
-3309.796483306228
 42
0.004602999999999896
 10
2627.259015338231
 20
-3261.564878306232
 42
0.006334000000000077
 10
2685.900490338234
 20
-3221.564313306231
 42
0.006574999999999941
 10
2742.777255338233
 20
-3180.576638306231
 42
0.04794199999999987
 10
2887.686705338233
 20
-3050.003018306229
 42
0.07611699999999988
 10
2980.369430338236
 20
-2911.47026830623
 42
0.09882599999999998
 10
3012.678460338237
 20
-2779.833648306229
 42
0.1538040000000001
 10
2982.708290338236
 20
-2667.870113306228
 42
0.08867300000000027
 10
2932.408070338235
 20
-2613.183838306229
 42
0.07766399999999996
 10
2864.007845338234
 20
-2576.23723830623
 42
0.06661799999999993
 10
2778.102535338235
 20
-2558.17888830623
 42
0.04282700000000003
  0
LWPOLYLINE
  5
63
100
AcDbEntity
  8
0
  6
ByLayer
 62
  256
370
   -1
100
AcDbPolyline
 90
   30
 70
    1
 43
0
 10
2761.294125338235
 20
-2711.881758306229
 42
-0.08001699999999985
 10
2815.972885338235
 20
-2735.939888306229
 42
-0.1318170000000004
 10
2849.610115338235
 20
-2773.18958830623
 42
-0.1417089999999982
 10
2858.690625338234
 20
-2820.198513306229
 42
-0.09870000000000023
 10
2843.275060338236
 20
-2872.33410330623
 42
-0.05944900000000014
 10
2788.816015338235
 20
-2951.42442830623
 42
-0.02013200000000008
 10
2692.172575338235
 20
-3052.69377330623
 42
-0.02020500000000007
 10
2578.847635338235
 20
-3153.723858306229
 42
-0.02691199999999998
 10
2467.719045338233
 20
-3235.413153306229
 42
-0.009894000000000047
 10
2413.032285338235
 20
-3269.721138306227
 42
-0.004144000000000143
 10
2338.109035338228
 20
-3313.843048306231
 42
-0.003080999999999859
 10
2264.695055338234
 20
-3355.659408306228
 42
-0.02896399999999991
 10
2232.069065338235
 20
-3371.568343306229
 42
-0.09520299999999983
 10
2201.723585338234
 20
-3377.907743306228
 42
-0.09879700000000018
 10
2171.614870338236
 20
-3372.402673306229
 42
-0.04205800000000003
 10
2128.625930338234
 20
-3351.004003306227
 42
-0.004887000000000102
 10
2037.210395338232
 20
-3294.236793306227
 10
1954.645895338235
 20
-3241.840983306229
 10
1983.570235338235
 20
-3209.236793306229
 42
-0.01553000000000005
 10
2036.399375338242
 20
-3153.287088306231
 42
-0.001149000000000005
 10
2185.914945338242
 20
-3005.163313306221
 42
-0.001065000000000003
 10
2336.987310338234
 20
-2856.817148306224
 42
-0.01746799999999997
 10
2389.341055338234
 20
-2809.087228306229
 42
-0.02451500000000001
 10
2435.779795338236
 20
-2773.395828306229
 42
-0.03397299999999998
 10
2480.850265338235
 20
-2746.480758306229
 42
-0.03494299999999999
 10
2528.121525338235
 20
-2726.463368306229
 42
-0.02832099999999994
 10
2581.144070338235
 20
-2711.55590830623
 42
-0.03930999999999996
 10
2619.773035338235
 20
-2706.156733306229
 42
-0.01552599999999997
 10
2673.442580338236
 20
-2704.586938306229
 42
-0.01518400000000002
 10
2726.347330338234
 20
-2706.289673306229
 42
-0.04810399999999996
  0
LWPOLYLINE
  5
64
100
AcDbEntity
  8
0
  6
ByLayer
 62
  256
370
   -1
100
AcDbPolyline
 90
   32
 70
    1
 43
0
 10
1541.144070338235
 20
-3202.011418306229
 42
-0.01924500000000008
 10
1571.963950338239
 20
-3214.033818306223
 42
-0.001057999999999997
 10
1666.991045338247
 20
-3255.621878306236
 42
-0.0002680000000000111
 10
1769.994390338227
 20
-3301.026453306227
 42
-0.0926839999999985
 10
1777.009940338235
 20
-3305.831798306229
 42
-0.3557829999999446
 10
1777.207895338235
 20
-3307.77031830623
 42
-0.002023999999999998
 10
1766.348865338234
 20
-3324.13269830623
 42
-0.007077000000000016
 10
1753.351245338235
 20
-3342.964368306229
 42
-0.004294000000000044
 10
1737.471835338236
 20
-3364.887643306228
 42
0.001816000000000128
 10
1718.651775338234
 20
-3390.601663306229
 42
0.001104999999999993
 10
1696.588145338237
 20
-3421.120018306229
 42
0.001108000000000042
 10
1674.844265338237
 20
-3451.478188306228
 42
0.001959000000000004
 10
1657.059990338235
 20
-3476.63259830623
 42
-0.009734999999999966
 10
1628.057900338235
 20
-3516.329453306229
 42
-0.04788100000000017
 10
1609.247495338235
 20
-3536.678713306229
 42
-0.08247999999999961
 10
1592.192160338236
 20
-3547.476338306229
 42
-0.07201700000000025
 10
1571.741620338235
 20
-3552.829693306229
 42
-0.11454
 10
1531.450210338234
 20
-3548.141098306227
 42
-0.01249399999999996
 10
1443.794685338235
 20
-3514.251658306228
 42
-0.01601500000000007
 10
1356.714910338234
 20
-3474.742873306229
 42
-0.0484690000000001
 10
1301.434785338235
 20
-3440.482468306228
 42
-0.07749899999999978
 10
1272.782725338235
 20
-3410.602538306228
 42
-0.086688
 10
1255.926945338235
 20
-3374.498453306229
 42
-0.09047699999999984
 10
1252.719785338235
 20
-3336.124938306229
 42
-0.09394100000000004
 10
1263.386320338235
 20
-3299.637833306229
 42
-0.07212999999999981
 10
1285.967065338235
 20
-3267.722453306229
 42
-0.04903399999999988
 10
1319.674415338235
 20
-3238.571298306229
 42
-0.04518400000000006
 10
1361.671735338235
 20
-3214.259863306228
 42
-0.04021700000000006
 10
1409.002135338235
 20
-3196.765368306229
 42
-0.0515220000000001
 10
1437.908290338235
 20
-3191.782418306228
 42
-0.02686399999999991
 10
1474.507645338235
 20
-3191.268653306229
 42
-0.02680799999999995
 10
1511.351910338235
 20
-3194.715568306229
 42
-0.04667399999999993
  0
LWPOLYLINE
  5
65
100
AcDbEntity
  8
0
  6
ByLayer
 62
  256
370
   -1
100
AcDbPolyline
 90
   20
 70
    1
 43
0
 10
1938.898335338235
 20
-3427.559318306228
 42
-0.005782999999999983
 10
1966.583960338235
 20
-3446.467993306229
 42
-0.01588800000000005
 10
1985.522430338234
 20
-3460.643723306229
 42
-0.01486899999999999
 10
1998.003810338234
 20
-3471.24353830623
 42
-0.5178089999997255
 10
1997.616580338235
 20
-3474.493668306229
 42
-0.04724600000000025
 10
1987.748150338186
 20
-3478.691623306251
 42
-0.0001839999999999021
 10
1871.310715338172
 20
-3515.657948306267
 42
-0.0001150000000001177
 10
1753.128770338038
 20
-3553.100438306307
 42
-0.07679700000000089
 10
1746.448340338235
 20
-3554.132598306229
 42
-0.6081749999993904
 10
1746.012685338233
 20
-3553.291638306229
 42
-0.0004960000000000054
 10
1763.086325338234
 20
-3529.163848306228
 42
-0.00314799999999993
 10
1782.800700338234
 20
-3501.730563306229
 42
-0.001845999999999967
 10
1806.723930338234
 20
-3469.13259830623
 42
-0.001467000000000078
 10
1830.974920338235
 20
-3436.542943306227
 42
-0.002404000000000013
 10
1851.727050338231
 20
-3409.101348306227
 42
-0.0002900000000000706
 10
1870.319870338237
 20
-3384.788463306219
 42
-0.2334460000000207
 10
1871.648065338235
 20
-3384.132598306229
 42
-0.1439759999999861
 10
1873.153765338238
 20
-3384.575343306229
 42
-0.0003519999999999387
 10
1892.252385338237
 20
-3396.889198306227
 42
-0.002201999999999956
 10
1913.757645338236
 20
-3410.910738306229
 42
-0.001363999999999923
  0
ENDSEC
  0
SECTION
  2
OBJECTS
  0
DICTIONARY
  5
C
330
0
100
AcDbDictionary
281
    1
  3
ACAD_GROUP
350
D
  0
DICTIONARY
  5
D
330
C
100
AcDbDictionary
281
    1
  0
PLOTSETTINGS
  5
66
100
AcDbPlotSettings
  6
1x1
 40
0
 41
0
 42
0
 43
0
  0
ENDSEC
  0
EOF
