G04 #@! TF.GenerationSoftware,KiCad,Pcbnew,(5.1.10)-1*
G04 #@! TF.CreationDate,2022-04-06T19:53:40-07:00*
G04 #@! TF.ProjectId,RacingTeam,52616369-6e67-4546-9561-6d2e6b696361,rev?*
G04 #@! TF.SameCoordinates,Original*
G04 #@! TF.FileFunction,Soldermask,Bot*
G04 #@! TF.FilePolarity,Negative*
%FSLAX46Y46*%
G04 Gerber Fmt 4.6, Leading zero omitted, Abs format (unit mm)*
G04 Created by KiCad (PCBNEW (5.1.10)-1) date 2022-04-06 19:53:40*
%MOMM*%
%LPD*%
G01*
G04 APERTURE LIST*
%ADD10C,1.130000*%
%ADD11R,1.130000X1.130000*%
%ADD12O,1.700000X1.700000*%
%ADD13R,1.700000X1.700000*%
%ADD14C,3.200000*%
%ADD15R,1.800000X1.800000*%
%ADD16C,1.800000*%
%ADD17O,3.581400X1.790700*%
%ADD18O,1.790700X3.581400*%
%ADD19C,2.781300*%
%ADD20R,2.781300X2.781300*%
%ADD21C,1.650000*%
G04 APERTURE END LIST*
D10*
G04 #@! TO.C,PS1*
X113650000Y-75820000D03*
X113650000Y-78320000D03*
X113650000Y-80820000D03*
X113650000Y-73320000D03*
X113650000Y-86120000D03*
X113650000Y-88620000D03*
D11*
X113650000Y-91120000D03*
G04 #@! TD*
D12*
G04 #@! TO.C,JP3*
X126250000Y-96250000D03*
D13*
X126250000Y-93710000D03*
G04 #@! TD*
D14*
G04 #@! TO.C,REF\u002A\u002A*
X114500000Y-118500000D03*
G04 #@! TD*
G04 #@! TO.C,REF\u002A\u002A*
X114500000Y-36000000D03*
G04 #@! TD*
G04 #@! TO.C,REF\u002A\u002A*
X227000000Y-36000000D03*
G04 #@! TD*
G04 #@! TO.C,REF\u002A\u002A*
X227000000Y-118500000D03*
G04 #@! TD*
D12*
G04 #@! TO.C,JP2*
X153400000Y-103300000D03*
D13*
X153400000Y-105840000D03*
G04 #@! TD*
G04 #@! TO.C,JP1*
X140250000Y-108500000D03*
D12*
X142790000Y-108500000D03*
G04 #@! TD*
D13*
G04 #@! TO.C,J4*
X168800000Y-64300000D03*
G04 #@! TD*
D15*
G04 #@! TO.C,J6*
X228500000Y-59500000D03*
D16*
X228500000Y-64500000D03*
D15*
X223500000Y-59500000D03*
D16*
X223500000Y-64500000D03*
G04 #@! TD*
G04 #@! TO.C,J7*
X223600000Y-50100000D03*
D15*
X223600000Y-45100000D03*
D16*
X228600000Y-50100000D03*
D15*
X228600000Y-45100000D03*
G04 #@! TD*
D13*
G04 #@! TO.C,J2*
X179120000Y-50580000D03*
G04 #@! TD*
G04 #@! TO.C,J3*
X175100000Y-46100000D03*
G04 #@! TD*
D17*
G04 #@! TO.C,D1*
X201080000Y-38000000D03*
X190920000Y-38000000D03*
G04 #@! TD*
D18*
G04 #@! TO.C,D2*
X154700000Y-66560000D03*
X154700000Y-56400000D03*
G04 #@! TD*
D13*
G04 #@! TO.C,J5*
X159200000Y-56800000D03*
G04 #@! TD*
D19*
G04 #@! TO.C,J1*
X142437400Y-46500000D03*
D20*
X153562600Y-46500000D03*
G04 #@! TD*
D16*
G04 #@! TO.C,J8*
X118200000Y-53400000D03*
D15*
X118200000Y-58400000D03*
D16*
X113200000Y-53400000D03*
D15*
X113200000Y-58400000D03*
G04 #@! TD*
D16*
G04 #@! TO.C,J11*
X163000000Y-114600000D03*
D15*
X168000000Y-114600000D03*
D16*
X163000000Y-119600000D03*
D15*
X168000000Y-119600000D03*
G04 #@! TD*
D21*
G04 #@! TO.C,J9*
X149740000Y-118170000D03*
X149740000Y-115630000D03*
X147200000Y-118170000D03*
X147200000Y-115630000D03*
X144660000Y-118170000D03*
X144660000Y-115630000D03*
G04 #@! TD*
D15*
G04 #@! TO.C,J10*
X113200000Y-106400000D03*
D16*
X113200000Y-101400000D03*
D15*
X118200000Y-106400000D03*
D16*
X118200000Y-101400000D03*
G04 #@! TD*
M02*
