  0
SECTION
  2
HEADER
  9
$ACADVER
  1
AC1006
  9
$EXTMIN
 10
0.000000
 20
0.000000
 30
0.000000
  9
$EXTMAX
 10
2000.000000
 20
2772.000000
 30
0.000000
  0
ENDSEC
  0
SECTION
  2
ENTITIES
  0
POLYLINE
  8
0
 66
1
 70
1
  0
VERTEX
  8
0
 10
506.000000
 20
2700.932071
 42
0.000000
  0
VERTEX
  8
0
 10
317.516846
 20
2673.758606
 42
0.000000
  0
VERTEX
  8
0
 10
158.804687
 20
2650.877128
 42
0.000000
  0
VERTEX
  8
0
 10
14.456129
 20
2630.066403
 42
0.000446
  0
VERTEX
  8
0
 10
14.250000
 20
2630.036498
 42
0.372231
  0
VERTEX
  8
0
 10
14.146896
 20
2629.917304
 42
0.000000
  0
VERTEX
  8
0
 10
14.074615
 20
2474.249784
 42
0.000074
  0
VERTEX
  8
0
 10
14.020436
 20
2303.077332
 42
0.000044
  0
VERTEX
  8
0
 10
14.004008
 20
2099.750000
 42
0.000087
  0
VERTEX
  8
0
 10
14.073501
 20
1716.184540
 42
0.002008
  0
VERTEX
  8
0
 10
14.551554
 20
1606.825068
 42
0.007286
  0
VERTEX
  8
0
 10
15.904494
 20
1547.908780
 42
0.015093
  0
VERTEX
  8
0
 10
19.018017
 20
1502.000000
 42
0.024891
  0
VERTEX
  8
0
 10
45.680104
 20
1322.766522
 42
0.022359
  0
VERTEX
  8
0
 10
90.718448
 20
1140.428032
 42
0.022293
  0
VERTEX
  8
0
 10
152.034460
 20
962.257351
 42
0.024326
  0
VERTEX
  8
0
 10
227.439111
 20
795.500000
 42
0.015369
  0
VERTEX
  8
0
 10
287.460645
 20
686.679614
 42
0.016947
  0
VERTEX
  8
0
 10
352.236679
 20
585.323633
 42
0.017012
  0
VERTEX
  8
0
 10
423.493191
 20
488.932462
 42
0.015736
  0
VERTEX
  8
0
 10
502.944492
 20
395.000000
 42
0.009662
  0
VERTEX
  8
0
 10
524.718414
 20
371.761108
 42
0.002786
  0
VERTEX
  8
0
 10
559.260385
 20
336.687408
 42
0.002776
  0
VERTEX
  8
0
 10
594.156070
 20
302.034194
 42
0.009860
  0
VERTEX
  8
0
 10
617.078625
 20
280.393478
 42
0.013799
  0
VERTEX
  8
0
 10
700.491436
 20
208.795373
 42
0.015215
  0
VERTEX
  8
0
 10
785.112860
 20
144.291525
 42
0.015091
  0
VERTEX
  8
0
 10
874.131980
 20
84.598357
 42
0.013136
  0
VERTEX
  8
0
 10
970.750000
 20
27.435690
 42
0.000000
  0
VERTEX
  8
0
 10
1000.000000
 20
11.152082
 42
0.000000
  0
VERTEX
  8
0
 10
1029.250000
 20
27.431830
 42
0.013180
  0
VERTEX
  8
0
 10
1125.773057
 20
84.536574
 42
0.015074
  0
VERTEX
  8
0
 10
1214.833320
 20
144.262578
 42
0.015193
  0
VERTEX
  8
0
 10
1299.522331
 20
208.813029
 42
0.013819
  0
VERTEX
  8
0
 10
1382.921375
 20
280.393478
 42
0.010531
  0
VERTEX
  8
0
 10
1415.982736
 20
311.690083
 42
0.005380
  0
VERTEX
  8
0
 10
1456.220661
 20
352.284194
 42
0.005379
  0
VERTEX
  8
0
 10
1495.953590
 20
394.132449
 42
0.009611
  0
VERTEX
  8
0
 10
1527.572486
 20
429.500000
 42
0.019293
  0
VERTEX
  8
0
 10
1615.525103
 20
540.130450
 42
0.019350
  0
VERTEX
  8
0
 10
1694.596891
 20
657.105175
 42
0.019172
  0
VERTEX
  8
0
 10
1765.054204
 20
780.911228
 42
0.018150
  0
VERTEX
  8
0
 10
1827.208982
 20
912.000000
 42
0.011472
  0
VERTEX
  8
0
 10
1859.175276
 20
991.224914
 42
0.010311
  0
VERTEX
  8
0
 10
1888.692651
 20
1074.683719
 42
0.010251
  0
VERTEX
  8
0
 10
1914.922000
 20
1159.830816
 42
0.010955
  0
VERTEX
  8
0
 10
1937.022580
 20
1244.124743
 42
0.009709
  0
VERTEX
  8
0
 10
1954.045314
 20
1322.043842
 42
0.009924
  0
VERTEX
  8
0
 10
1967.894766
 20
1399.999479
 42
0.010273
  0
VERTEX
  8
0
 10
1978.182291
 20
1475.495278
 42
0.012805
  0
VERTEX
  8
0
 10
1984.493684
 20
1546.000000
 42
0.014558
  0
VERTEX
  8
0
 10
1985.378297
 20
1571.588466
 42
0.000682
  0
VERTEX
  8
0
 10
1985.730864
 20
1658.043949
 42
0.000597
  0
VERTEX
  8
0
 10
1985.946216
 20
1799.834138
 42
0.000079
  0
VERTEX
  8
0
 10
1985.995992
 20
2099.704687
 42
0.000000
  0
VERTEX
  8
0
 10
1986.000000
 20
2629.909374
 42
0.000000
  0
VERTEX
  8
0
 10
1982.750000
 20
2630.489403
 42
0.008476
  0
VERTEX
  8
0
 10
1972.446140
 20
2632.148632
 42
0.000002
  0
VERTEX
  8
0
 10
1488.425173
 20
2701.692911
 42
0.000000
  0
VERTEX
  8
0
 10
1000.031546
 20
2771.863257
 42
0.060513
  0
VERTEX
  8
0
 10
998.550728
 20
2771.895573
 42
0.011007
  0
VERTEX
  8
0
 10
997.688777
 20
2771.790700
 42
0.000000
  0
VERTEX
  8
0
 10
853.430526
 20
2751.006968
 42
0.000015
  0
VERTEX
  8
0
 10
694.537757
 20
2728.109993
 42
0.000009
  0
SEQEND
  0
POLYLINE
  8
0
 66
1
 70
1
  0
VERTEX
  8
0
 10
1474.321323
 20
2612.963972
 42
-0.000049
  0
VERTEX
  8
0
 10
1655.847188
 20
2586.845088
 42
-0.000081
  0
VERTEX
  8
0
 10
1808.870951
 20
2564.786455
 42
-0.000001
  0
VERTEX
  8
0
 10
1947.698448
 20
2544.750742
 42
-0.047495
  0
VERTEX
  8
0
 10
1948.750000
 20
2544.495357
 42
-0.310301
  0
VERTEX
  8
0
 10
1949.451611
 20
2543.544843
 42
-0.002455
  0
VERTEX
  8
0
 10
1949.741757
 20
2533.609345
 42
-0.005066
  0
VERTEX
  8
0
 10
1949.947654
 20
2519.062308
 42
-0.001005
  0
VERTEX
  8
0
 10
1950.000000
 20
2493.031385
 42
-0.001316
  0
VERTEX
  8
0
 10
1949.948493
 20
2473.463390
 42
-0.002195
  0
VERTEX
  8
0
 10
1949.789451
 20
2456.990469
 42
-0.000194
  0
VERTEX
  8
0
 10
1949.577257
 20
2442.289694
 42
-0.409879
  0
VERTEX
  8
0
 10
1949.283238
 20
2442.000000
 42
-0.035687
  0
VERTEX
  8
0
 10
1948.696155
 20
2442.041956
 42
-0.000000
  0
VERTEX
  8
0
 10
1809.947684
 20
2461.975000
 42
-0.000033
  0
VERTEX
  8
0
 10
1657.227786
 20
2483.925715
 42
-0.000020
  0
VERTEX
  8
0
 10
1475.955955
 20
2510.000000
 42
0.000093
  0
VERTEX
  8
0
 10
1294.504510
 20
2536.072921
 42
0.000154
  0
VERTEX
  8
0
 10
1141.192053
 20
2558.025000
 42
0.000007
  0
VERTEX
  8
0
 10
1002.719034
 20
2577.806783
 42
0.035486
  0
VERTEX
  8
0
 10
1000.000000
 20
2578.000000
 42
0.035486
  0
VERTEX
  8
0
 10
997.280966
 20
2577.806783
 42
0.000007
  0
VERTEX
  8
0
 10
858.807947
 20
2558.025000
 42
0.000154
  0
VERTEX
  8
0
 10
705.495490
 20
2536.072921
 42
0.000093
  0
VERTEX
  8
0
 10
524.044045
 20
2510.000000
 42
-0.000020
  0
VERTEX
  8
0
 10
342.772214
 20
2483.925715
 42
-0.000033
  0
VERTEX
  8
0
 10
190.052316
 20
2461.975000
 42
-0.000000
  0
VERTEX
  8
0
 10
51.303845
 20
2442.041956
 42
-0.035687
  0
VERTEX
  8
0
 10
50.716762
 20
2442.000000
 42
-0.409879
  0
VERTEX
  8
0
 10
50.422743
 20
2442.289694
 42
-0.000194
  0
VERTEX
  8
0
 10
50.210549
 20
2456.990469
 42
-0.002195
  0
VERTEX
  8
0
 10
50.051507
 20
2473.463390
 42
-0.001316
  0
VERTEX
  8
0
 10
50.000000
 20
2493.031385
 42
-0.001006
  0
VERTEX
  8
0
 10
50.052348
 20
2519.061959
 42
-0.005065
  0
VERTEX
  8
0
 10
50.258248
 20
2533.609354
 42
-0.002456
  0
VERTEX
  8
0
 10
50.548405
 20
2543.545179
 42
-0.310088
  0
VERTEX
  8
0
 10
51.250000
 20
2544.496444
 42
-0.047766
  0
VERTEX
  8
0
 10
53.914397
 20
2545.144193
 42
-0.000001
  0
VERTEX
  8
0
 10
524.133940
 20
2612.859273
 42
-0.000002
  0
VERTEX
  8
0
 10
993.157383
 20
2680.399899
 42
-0.025146
  0
VERTEX
  8
0
 10
998.321323
 20
2680.880153
 42
-0.046071
  0
VERTEX
  8
0
 10
1000.619030
 20
2680.766040
 42
-0.000006
  0
VERTEX
  8
0
 10
1139.310119
 20
2660.979212
 42
-0.000169
  0
VERTEX
  8
0
 10
1292.687808
 20
2639.042369
 42
-0.000102
  0
SEQEND
  0
POLYLINE
  8
0
 66
1
 70
1
  0
VERTEX
  8
0
 10
1080.500000
 20
2460.945467
 42
-0.002563
  0
VERTEX
  8
0
 10
1094.577552
 20
2460.420105
 42
-0.001521
  0
VERTEX
  8
0
 10
1111.353125
 20
2459.656806
 42
-0.001522
  0
VERTEX
  8
0
 10
1128.080922
 20
2458.793650
 42
-0.002622
  0
VERTEX
  8
0
 10
1142.000000
 20
2457.959702
 42
-0.021735
  0
VERTEX
  8
0
 10
1343.782655
 20
2435.969592
 42
-0.020628
  0
VERTEX
  8
0
 10
1546.488962
 20
2396.298461
 42
-0.020564
  0
VERTEX
  8
0
 10
1745.879534
 20
2339.903494
 42
-0.021254
  0
VERTEX
  8
0
 10
1937.737125
 20
2267.849481
 42
0.000000
  0
VERTEX
  8
0
 10
1947.974250
 20
2263.500000
 42
0.000000
  0
VERTEX
  8
0
 10
1947.987125
 20
1913.982934
 42
-0.000155
  0
VERTEX
  8
0
 10
1947.923887
 20
1682.704060
 42
-0.002082
  0
VERTEX
  8
0
 10
1947.521165
 20
1597.874723
 42
-0.005746
  0
VERTEX
  8
0
 10
1946.548005
 20
1550.183482
 42
-0.014462
  0
VERTEX
  8
0
 10
1944.436099
 20
1515.500000
 42
-0.021419
  0
VERTEX
  8
0
 10
1925.542165
 20
1373.814305
 42
-0.018357
  0
VERTEX
  8
0
 10
1893.858656
 20
1226.689023
 42
-0.018113
  0
VERTEX
  8
0
 10
1850.904262
 20
1080.098845
 42
-0.019250
  0
VERTEX
  8
0
 10
1798.208730
 20
940.000000
 42
-0.018907
  0
VERTEX
  8
0
 10
1736.606169
 20
807.801612
 42
-0.019601
  0
VERTEX
  8
0
 10
1665.871849
 20
682.253491
 42
-0.019800
  0
VERTEX
  8
0
 10
1586.266024
 20
563.839138
 42
-0.020246
  0
VERTEX
  8
0
 10
1498.100916
 20
453.000000
 42
-0.009969
  0
VERTEX
  8
0
 10
1457.350102
 20
407.681057
 42
-0.008275
  0
VERTEX
  8
0
 10
1412.255399
 20
361.069476
 42
-0.008263
  0
VERTEX
  8
0
 10
1365.562506
 20
315.895891
 42
-0.009840
  0
VERTEX
  8
0
 10
1320.000000
 20
274.902793
 42
-0.011739
  0
VERTEX
  8
0
 10
1258.250995
 20
223.991183
 42
-0.011256
  0
VERTEX
  8
0
 10
1193.321708
 20
175.293292
 42
-0.011158
  0
VERTEX
  8
0
 10
1125.679985
 20
129.147476
 42
-0.011034
  0
VERTEX
  8
0
 10
1055.798258
 20
85.887618
 42
-0.002713
  0
VERTEX
  8
0
 10
1035.792684
 20
74.251519
 42
-0.003954
  0
VERTEX
  8
0
 10
1018.024040
 20
64.231157
 42
-0.001184
  0
VERTEX
  8
0
 10
1002.343262
 20
55.599375
 42
-0.125867
  0
VERTEX
  8
0
 10
1000.000000
 20
55.000000
 42
-0.125867
  0
VERTEX
  8
0
 10
997.656738
 20
55.599375
 42
-0.001184
  0
VERTEX
  8
0
 10
981.975960
 20
64.231157
 42
-0.003954
  0
VERTEX
  8
0
 10
964.207316
 20
74.251519
 42
-0.002713
  0
VERTEX
  8
0
 10
944.201742
 20
85.887618
 42
-0.011007
  0
VERTEX
  8
0
 10
874.260012
 20
129.179412
 42
-0.011184
  0
VERTEX
  8
0
 10
806.669462
 20
175.284984
 42
-0.011283
  0
VERTEX
  8
0
 10
741.795807
 20
223.946805
 42
-0.011712
  0
VERTEX
  8
0
 10
680.000000
 20
274.902793
 42
-0.009840
  0
VERTEX
  8
0
 10
634.437494
 20
315.895891
 42
-0.008263
  0
VERTEX
  8
0
 10
587.744601
 20
361.069476
 42
-0.008275
  0
VERTEX
  8
0
 10
542.649898
 20
407.681057
 42
-0.009969
  0
VERTEX
  8
0
 10
501.899084
 20
453.000000
 42
-0.027830
  0
VERTEX
  8
0
 10
383.080868
 20
607.114307
 42
-0.026759
  0
VERTEX
  8
0
 10
280.419560
 20
775.449715
 42
-0.026400
  0
VERTEX
  8
0
 10
195.078376
 20
956.093843
 42
-0.025417
  0
VERTEX
  8
0
 10
128.033755
 20
1147.000000
 42
-0.012513
  0
VERTEX
  8
0
 10
100.251992
 20
1250.646087
 42
-0.013035
  0
VERTEX
  8
0
 10
78.103668
 20
1354.155033
 42
-0.013537
  0
VERTEX
  8
0
 10
62.156525
 20
1454.466578
 42
-0.016821
  0
VERTEX
  8
0
 10
53.013223
 20
1548.482934
 42
-0.014948
  0
VERTEX
  8
0
 10
52.541016
 20
1562.609067
 42
-0.000196
  0
VERTEX
  8
0
 10
52.265325
 20
1650.709845
 42
-0.000490
  0
VERTEX
  8
0
 10
52.068770
 20
1762.631034
 42
-0.000203
  0
VERTEX
  8
0
 10
52.012875
 20
1913.982934
 42
0.000000
  0
VERTEX
  8
0
 10
52.025750
 20
2263.500000
 42
0.000000
  0
VERTEX
  8
0
 10
62.262875
 20
2267.849481
 42
-0.016992
  0
VERTEX
  8
0
 10
214.079063
 20
2326.346387
 42
-0.016386
  0
VERTEX
  8
0
 10
371.353500
 20
2375.174996
 42
-0.016334
  0
VERTEX
  8
0
 10
532.000356
 20
2413.739147
 42
-0.016613
  0
VERTEX
  8
0
 10
693.920116
 20
2441.485138
 42
-0.006799
  0
VERTEX
  8
0
 10
747.952960
 20
2448.158733
 42
-0.005352
  0
VERTEX
  8
0
 10
806.640788
 20
2453.963411
 42
-0.005430
  0
VERTEX
  8
0
 10
864.029561
 20
2458.392410
 42
-0.008246
  0
VERTEX
  8
0
 10
914.000000
 20
2460.876476
 42
-0.006268
  0
VERTEX
  8
0
 10
947.133329
 20
2461.560486
 42
-0.001923
  0
VERTEX
  8
0
 10
997.179715
 20
2461.773662
 42
-0.001925
  0
VERTEX
  8
0
 10
1047.246608
 20
2461.601661
 42
-0.006223
  0
SEQEND
  0
POLYLINE
  8
0
 66
1
 70
1
  0
VERTEX
  8
0
 10
875.500000
 20
2141.941346
 42
-0.000734
  0
VERTEX
  8
0
 10
786.952690
 20
2138.410302
 42
-0.000723
  0
VERTEX
  8
0
 10
697.968530
 20
2135.121595
 42
-0.000727
  0
VERTEX
  8
0
 10
619.593377
 20
2132.452628
 42
-0.002472
  0
VERTEX
  8
0
 10
568.500000
 20
2131.039919
 42
0.002052
  0
VERTEX
  8
0
 10
551.839134
 20
2130.593257
 42
0.002636
  0
VERTEX
  8
0
 10
536.520393
 20
2130.038794
 42
0.002022
  0
VERTEX
  8
0
 10
523.688099
 20
2129.454583
 42
0.022744
  0
VERTEX
  8
0
 10
518.611975
 20
2128.970793
 42
0.019333
  0
VERTEX
  8
0
 10
511.262840
 20
2127.639841
 42
0.013540
  0
VERTEX
  8
0
 10
503.098314
 20
2125.599389
 42
0.013652
  0
VERTEX
  8
0
 10
495.200091
 20
2123.162411
 42
0.022455
  0
VERTEX
  8
0
 10
488.686453
 20
2120.624877
 42
0.042449
  0
VERTEX
  8
0
 10
479.687115
 20
2115.694068
 42
0.031439
  0
VERTEX
  8
0
 10
470.643674
 20
2108.834323
 42
0.032122
  0
VERTEX
  8
0
 10
462.941819
 20
2101.275623
 42
0.064794
  0
VERTEX
  8
0
 10
458.139405
 20
2094.273256
 42
-0.011589
  0
VERTEX
  8
0
 10
457.260866
 20
2092.645506
 42
-0.014417
  0
VERTEX
  8
0
 10
456.366577
 20
2091.176784
 42
-0.012712
  0
VERTEX
  8
0
 10
455.557010
 20
2089.996446
 42
-0.097965
  0
VERTEX
  8
0
 10
455.068384
 20
2089.542264
 42
-0.116435
  0
VERTEX
  8
0
 10
454.239422
 20
2089.265945
 42
-0.000271
  0
VERTEX
  8
0
 10
441.375918
 20
2088.113131
 42
-0.001757
  0
VERTEX
  8
0
 10
426.858129
 20
2086.871391
 42
-0.001090
  0
VERTEX
  8
0
 10
409.804094
 20
2085.510463
 42
0.001357
  0
VERTEX
  8
0
 10
378.669686
 20
2083.009166
 42
0.008498
  0
VERTEX
  8
0
 10
362.782375
 20
2081.417108
 42
0.016679
  0
VERTEX
  8
0
 10
352.780927
 20
2079.903207
 42
0.036962
  0
VERTEX
  8
0
 10
345.326617
 20
2077.940348
 42
0.065989
  0
VERTEX
  8
0
 10
332.622193
 20
2071.596007
 42
0.060002
  0
VERTEX
  8
0
 10
321.547430
 20
2061.984113
 42
0.060733
  0
VERTEX
  8
0
 10
313.188390
 20
2050.146043
 42
0.071291
  0
VERTEX
  8
0
 10
308.466656
 20
2037.257270
 42
0.030293
  0
VERTEX
  8
0
 10
307.799378
 20
2032.789322
 42
0.010478
  0
VERTEX
  8
0
 10
307.364234
 20
2026.277899
 42
0.008001
  0
VERTEX
  8
0
 10
307.103481
 20
2017.522106
 42
0.003268
  0
VERTEX
  8
0
 10
307.017364
 20
2005.617317
 42
0.000000
  0
VERTEX
  8
0
 10
307.000000
 20
1980.734633
 42
0.000000
  0
VERTEX
  8
0
 10
314.754576
 20
1988.143311
 42
-0.034338
  0
VERTEX
  8
0
 10
324.823607
 20
1996.520575
 42
-0.032838
  0
VERTEX
  8
0
 10
336.090891
 20
2003.578938
 42
-0.034371
  0
VERTEX
  8
0
 10
347.536056
 20
2008.762598
 42
-0.051974
  0
VERTEX
  8
0
 10
358.116788
 20
2011.494805
 42
0.000000
  0
VERTEX
  8
0
 10
362.705820
 20
2012.182972
 42
0.000000
  0
VERTEX
  8
0
 10
365.975798
 20
2006.341486
 42
0.037935
  0
VERTEX
  8
0
 10
372.637446
 20
1996.308986
 42
0.031423
  0
VERTEX
  8
0
 10
381.141981
 20
1986.706159
 42
0.032236
  0
VERTEX
  8
0
 10
390.447380
 20
1978.566012
 42
0.050233
  0
VERTEX
  8
0
 10
399.500000
 20
1972.967451
 42
0.038693
  0
VERTEX
  8
0
 10
408.322659
 20
1969.482956
 42
0.046682
  0
VERTEX
  8
0
 10
417.041693
 20
1967.665537
 42
0.020948
  0
VERTEX
  8
0
 10
430.265508
 20
1966.734179
 42
0.002165
  0
VERTEX
  8
0
 10
461.500000
 20
1965.981436
 42
-0.000614
  0
VERTEX
  8
0
 10
507.254739
 20
1965.020695
 42
-0.006282
  0
VERTEX
  8
0
 10
526.198230
 20
1964.361429
 42
-0.015129
  0
VERTEX
  8
0
 10
537.076142
 20
1963.515518
 42
-0.044012
  0
VERTEX
  8
0
 10
544.464060
 20
1962.049952
 42
-0.035734
  0
VERTEX
  8
0
 10
556.100908
 20
1957.732981
 42
-0.043614
  0
VERTEX
  8
0
 10
566.210710
 20
1952.026801
 42
-0.048752
  0
VERTEX
  8
0
 10
574.108747
 20
1945.395328
 42
-0.081199
  0
VERTEX
  8
0
 10
579.093535
 20
1938.306783
 42
-0.112835
  0
VERTEX
  8
0
 10
580.947842
 20
1930.246527
 42
-0.065586
  0
VERTEX
  8
0
 10
579.658638
 20
1920.353346
 42
-0.063615
  0
VERTEX
  8
0
 10
575.745567
 20
1910.769123
 42
-0.087262
  0
VERTEX
  8
0
 10
569.837912
 20
1903.593254
 42
-0.042184
  0
VERTEX
  8
0
 10
567.544487
 20
1901.943365
 42
-0.011723
  0
VERTEX
  8
0
 10
563.688350
 20
1899.756615
 42
-0.011746
  0
VERTEX
  8
0
 10
559.190049
 20
1897.477702
 42
-0.012070
  0
VERTEX
  8
0
 10
554.629911
 20
1895.434180
 42
0.022174
  0
VERTEX
  8
0
 10
527.772836
 20
1882.741269
 42
0.024820
  0
VERTEX
  8
0
 10
503.169648
 20
1868.144597
 42
0.025643
  0
VERTEX
  8
0
 10
480.871253
 20
1851.667886
 42
0.027479
  0
VERTEX
  8
0
 10
460.911978
 20
1833.348218
 42
0.019823
  0
VERTEX
  8
0
 10
449.026221
 20
1820.163166
 42
0.027694
  0
VERTEX
  8
0
 10
439.567274
 20
1807.421722
 42
0.030358
  0
VERTEX
  8
0
 10
432.268968
 20
1794.749477
 42
0.034275
  0
VERTEX
  8
0
 10
426.887529
 20
1781.779962
 42
0.034519
  0
VERTEX
  8
0
 10
423.703535
 20
1769.604311
 42
0.038423
  0
VERTEX
  8
0
 10
422.371157
 20
1757.536222
 42
0.034775
  0
VERTEX
  8
0
 10
422.848090
 20
1744.428888
 42
0.021020
  0
VERTEX
  8
0
 10
425.138957
 20
1729.055601
 42
0.014854
  0
VERTEX
  8
0
 10
427.665843
 20
1717.738014
 42
0.007376
  0
VERTEX
  8
0
 10
431.504858
 20
1703.542805
 42
0.005982
  0
VERTEX
  8
0
 10
435.523214
 20
1690.118287
 42
0.042140
  0
VERTEX
  8
0
 10
438.094825
 20
1683.809059
 42
0.030546
  0
VERTEX
  8
0
 10
446.229500
 20
1669.999618
 42
0.017719
  0
VERTEX
  8
0
 10
457.559413
 20
1654.422714
 42
0.015368
  0
VERTEX
  8
0
 10
471.914635
 20
1637.206181
 42
0.010263
  0
VERTEX
  8
0
 10
489.340445
 20
1618.360569
 42
-0.001916
  0
VERTEX
  8
0
 10
494.193780
 20
1613.284483
 42
-0.003094
  0
VERTEX
  8
0
 10
498.281256
 20
1608.922741
 42
-0.000555
  0
VERTEX
  8
0
 10
501.855854
 20
1605.052061
 42
-0.188315
  0
VERTEX
  8
0
 10
502.000000
 20
1604.682908
 42
-0.260342
  0
VERTEX
  8
0
 10
501.094544
 20
1603.061795
 42
-0.006716
  0
VERTEX
  8
0
 10
493.685158
 20
1598.634353
 42
-0.013083
  0
VERTEX
  8
0
 10
486.380938
 20
1594.653365
 42
-0.065491
  0
VERTEX
  8
0
 10
481.999286
 20
1593.093267
 42
-0.061232
  0
VERTEX
  8
0
 10
475.698332
 20
1592.531308
 42
-0.089619
  0
VERTEX
  8
0
 10
470.268313
 20
1593.700716
 42
-0.044979
  0
VERTEX
  8
0
 10
463.281201
 20
1597.345197
 42
-0.005859
  0
VERTEX
  8
0
 10
449.238996
 20
1606.593296
 42
0.006385
  0
VERTEX
  8
0
 10
413.090380
 20
1630.346042
 42
0.010451
  0
VERTEX
  8
0
 10
381.802792
 20
1649.428511
 42
0.011991
  0
VERTEX
  8
0
 10
355.932525
 20
1663.655374
 42
0.036419
  0
VERTEX
  8
0
 10
337.500000
 20
1671.579287
 42
0.089377
  0
VERTEX
  8
0
 10
326.429437
 20
1673.308149
 42
0.078981
  0
VERTEX
  8
0
 10
314.932283
 20
1671.204145
 42
0.082142
  0
VERTEX
  8
0
 10
305.050387
 20
1665.772880
 42
0.110959
  0
VERTEX
  8
0
 10
298.632535
 20
1657.890120
 42
0.083635
  0
VERTEX
  8
0
 10
296.091385
 20
1649.540084
 42
0.074812
  0
VERTEX
  8
0
 10
296.279975
 20
1640.476138
 42
0.081435
  0
VERTEX
  8
0
 10
299.006341
 20
1632.585068
 42
0.139517
  0
VERTEX
  8
0
 10
303.830917
 20
1627.633568
 42
0.081613
  0
VERTEX
  8
0
 10
308.253178
 20
1625.977735
 42
0.039305
  0
VERTEX
  8
0
 10
314.281109
 20
1625.270223
 42
0.036667
  0
VERTEX
  8
0
 10
321.010001
 20
1625.506060
 42
0.036768
  0
VERTEX
  8
0
 10
327.625976
 20
1626.722533
 42
-0.008138
  0
VERTEX
  8
0
 10
330.437452
 20
1627.407759
 42
-0.011160
  0
VERTEX
  8
0
 10
332.988879
 20
1627.926203
 42
-0.008072
  0
VERTEX
  8
0
 10
335.120620
 20
1628.274609
 42
-0.117438
  0
VERTEX
  8
0
 10
335.875976
 20
1628.208008
 42
-0.245176
  0
VERTEX
  8
0
 10
336.341597
 20
1627.726069
 42
-0.029078
  0
VERTEX
  8
0
 10
336.690513
 20
1626.230314
 42
-0.027579
  0
VERTEX
  8
0
 10
336.927912
 20
1624.190983
 42
-0.014953
  0
VERTEX
  8
0
 10
337.005792
 20
1621.666667
 42
0.028317
  0
VERTEX
  8
0
 10
337.543251
 20
1612.339190
 42
0.044842
  0
VERTEX
  8
0
 10
339.162547
 20
1604.504002
 42
0.055288
  0
VERTEX
  8
0
 10
341.653980
 20
1598.674518
 42
0.148158
  0
VERTEX
  8
0
 10
344.884845
 20
1595.589764
 42
0.085461
  0
VERTEX
  8
0
 10
346.951510
 20
1594.955937
 42
0.009656
  0
VERTEX
  8
0
 10
351.840143
 20
1594.427064
 42
0.009555
  0
VERTEX
  8
0
 10
358.512760
 20
1593.963605
 42
0.004019
  0
VERTEX
  8
0
 10
367.500000
 20
1593.584125
 42
-0.003789
  0
VERTEX
  8
0
 10
375.421730
 20
1593.253280
 42
-0.004910
  0
VERTEX
  8
0
 10
382.679653
 20
1592.823555
 42
-0.003738
  0
VERTEX
  8
0
 10
388.746332
 20
1592.358942
 42
-0.043448
  0
VERTEX
  8
0
 10
391.090309
 20
1591.954766
 42
-0.063066
  0
VERTEX
  8
0
 10
395.227156
 20
1590.285367
 42
-0.009510
  0
VERTEX
  8
0
 10
402.960168
 20
1585.769601
 42
-0.011306
  0
VERTEX
  8
0
 10
410.697395
 20
1580.808394
 42
-0.030285
  0
VERTEX
  8
0
 10
415.893318
 20
1576.831015
 42
-0.030881
  0
VERTEX
  8
0
 10
421.092185
 20
1571.732742
 42
-0.275968
  0
VERTEX
  8
0
 10
421.686691
 20
1568.721038
 42
-0.264492
  0
VERTEX
  8
0
 10
419.309320
 20
1566.677555
 42
-0.028986
  0
VERTEX
  8
0
 10
411.900161
 20
1565.671820
 42
0.032665
  0
VERTEX
  8
0
 10
399.501602
 20
1563.895900
 42
0.089194
  0
VERTEX
  8
0
 10
391.324418
 20
1560.577636
 42
0.132243
  0
VERTEX
  8
0
 10
386.684719
 20
1555.541268
 42
0.120951
  0
VERTEX
  8
0
 10
385.000000
 20
1548.678704
 42
0.023183
  0
VERTEX
  8
0
 10
385.126616
 20
1545.949373
 42
0.071725
  0
VERTEX
  8
0
 10
385.556827
 20
1544.159781
 42
0.078560
  0
VERTEX
  8
0
 10
386.450473
 20
1542.655068
 42
0.031690
  0
VERTEX
  8
0
 10
388.094244
 20
1540.911963
 42
0.065862
  0
VERTEX
  8
0
 10
391.044355
 20
1538.806631
 42
0.032759
  0
VERTEX
  8
0
 10
395.240371
 20
1536.918716
 42
0.029633
  0
VERTEX
  8
0
 10
400.252803
 20
1535.378873
 42
0.024724
  0
VERTEX
  8
0
 10
405.724378
 20
1534.330174
 42
-0.131548
  0
VERTEX
  8
0
 10
409.460914
 20
1532.743687
 42
-0.022501
  0
VERTEX
  8
0
 10
415.375900
 20
1527.678997
 42
-0.009487
  0
VERTEX
  8
0
 10
425.622275
 20
1517.702001
 42
-0.000775
  0
VERTEX
  8
0
 10
451.877576
 20
1491.065591
 42
0.002314
  0
VERTEX
  8
0
 10
481.682809
 20
1461.013256
 42
0.019346
  0
VERTEX
  8
0
 10
495.737156
 20
1448.019398
 42
0.042150
  0
VERTEX
  8
0
 10
505.959973
 20
1440.670617
 42
0.044937
  0
VERTEX
  8
0
 10
517.060005
 20
1435.319543
 42
0.030528
  0
VERTEX
  8
0
 10
526.633919
 20
1432.375219
 42
0.037463
  0
VERTEX
  8
0
 10
535.863085
 20
1430.862808
 42
0.030870
  0
VERTEX
  8
0
 10
546.540946
 20
1430.587057
 42
0.013053
  0
VERTEX
  8
0
 10
560.856582
 20
1431.475832
 42
0.008196
  0
VERTEX
  8
0
 10
619.207980
 20
1437.595828
 42
0.010879
  0
VERTEX
  8
0
 10
672.034979
 20
1445.183064
 42
0.011831
  0
VERTEX
  8
0
 10
720.452003
 20
1454.397580
 42
0.014202
  0
VERTEX
  8
0
 10
765.490223
 20
1465.425367
 42
-0.000987
  0
VERTEX
  8
0
 10
770.508309
 20
1466.795586
 42
-0.001555
  0
VERTEX
  8
0
 10
774.822078
 20
1467.949951
 42
-0.000365
  0
VERTEX
  8
0
 10
778.605873
 20
1468.946943
 42
-0.064315
  0
VERTEX
  8
0
 10
779.016649
 20
1469.000000
 42
-0.381349
  0
VERTEX
  8
0
 10
779.211497
 20
1468.826100
 42
-0.017547
  0
VERTEX
  8
0
 10
779.287050
 20
1467.864452
 42
-0.021684
  0
VERTEX
  8
0
 10
779.286994
 20
1466.616532
 42
-0.012919
  0
VERTEX
  8
0
 10
779.184198
 20
1465.134305
 42
0.106750
  0
VERTEX
  8
0
 10
780.536507
 20
1453.689703
 42
0.050076
  0
VERTEX
  8
0
 10
786.787120
 20
1440.074169
 42
0.040478
  0
VERTEX
  8
0
 10
797.452522
 20
1424.858403
 42
0.023952
  0
VERTEX
  8
0
 10
812.414057
 20
1408.478221
 42
0.022515
  0
VERTEX
  8
0
 10
832.888418
 20
1389.868908
 42
0.016858
  0
VERTEX
  8
0
 10
856.987986
 20
1371.204449
 42
0.013673
  0
VERTEX
  8
0
 10
887.022872
 20
1350.747911
 42
0.006860
  0
VERTEX
  8
0
 10
926.000000
 20
1326.481470
 42
-0.003742
  0
VERTEX
  8
0
 10
948.677005
 20
1312.558679
 42
-0.009790
  0
VERTEX
  8
0
 10
964.689929
 20
1302.120419
 42
-0.011811
  0
VERTEX
  8
0
 10
978.453415
 20
1292.276121
 42
-0.008277
  0
VERTEX
  8
0
 10
993.500000
 20
1280.572788
 42
-0.014624
  0
VERTEX
  8
0
 10
1003.691942
 20
1271.867991
 42
-0.008143
  0
VERTEX
  8
0
 10
1015.615521
 20
1260.706575
 42
-0.008143
  0
VERTEX
  8
0
 10
1027.043888
 20
1249.288069
 42
-0.016245
  0
VERTEX
  8
0
 10
1035.634480
 20
1239.824003
 42
-0.036797
  0
VERTEX
  8
0
 10
1054.898902
 20
1213.458184
 42
-0.045964
  0
VERTEX
  8
0
 10
1068.503354
 20
1186.380397
 42
-0.052465
  0
VERTEX
  8
0
 10
1075.439872
 20
1161.207689
 42
-0.105098
  0
VERTEX
  8
0
 10
1074.508332
 20
1140.693298
 42
-0.030257
  0
VERTEX
  8
0
 10
1072.590335
 20
1134.813151
 42
-0.030918
  0
VERTEX
  8
0
 10
1069.988124
 20
1129.251277
 42
-0.023033
  0
VERTEX
  8
0
 10
1066.088753
 20
1122.826319
 42
-0.008119
  0
VERTEX
  8
0
 10
1059.933074
 20
1113.977109
 42
0.017660
  0
VERTEX
  8
0
 10
1045.129495
 20
1091.805259
 42
0.025064
  0
VERTEX
  8
0
 10
1033.696094
 20
1071.038104
 42
0.028390
  0
VERTEX
  8
0
 10
1025.605921
 20
1051.708517
 42
0.041673
  0
VERTEX
  8
0
 10
1020.937098
 20
1033.894457
 42
0.028527
  0
VERTEX
  8
0
 10
1019.910125
 20
1025.079757
 42
0.020708
  0
VERTEX
  8
0
 10
1019.736882
 20
1015.200769
 42
0.021030
  0
VERTEX
  8
0
 10
1020.359721
 20
1005.767287
 42
0.041716
  0
VERTEX
  8
0
 10
1021.784356
 20
998.413811
 42
0.082157
  0
VERTEX
  8
0
 10
1032.038854
 20
976.557902
 42
0.070205
  0
VERTEX
  8
0
 10
1049.264712
 20
957.798979
 42
0.059068
  0
VERTEX
  8
0
 10
1073.866106
 20
942.037370
 42
0.035376
  0
VERTEX
  8
0
 10
1106.134327
 20
929.108895
 42
0.027043
  0
VERTEX
  8
0
 10
1135.403268
 20
921.439316
 42
0.016287
  0
VERTEX
  8
0
 10
1170.782589
 20
915.379607
 42
0.015761
  0
VERTEX
  8
0
 10
1208.381668
 20
911.396514
 42
0.017977
  0
VERTEX
  8
0
 10
1244.539901
 20
910.019190
 42
-0.014401
  0
VERTEX
  8
0
 10
1248.437350
 20
909.898630
 42
-0.011115
  0
VERTEX
  8
0
 10
1252.675111
 20
909.550554
 42
-0.011270
  0
VERTEX
  8
0
 10
1256.621691
 20
909.047747
 42
-0.026267
  0
VERTEX
  8
0
 10
1259.539901
 20
908.450782
 42
-0.058577
  0
VERTEX
  8
0
 10
1269.092628
 20
904.731060
 42
-0.003308
  0
VERTEX
  8
0
 10
1297.068300
 20
889.630372
 42
-0.001046
  0
VERTEX
  8
0
 10
1327.040138
 20
873.113535
 42
-0.272734
  0
VERTEX
  8
0
 10
1328.500000
 20
870.636263
 42
-0.197009
  0
VERTEX
  8
0
 10
1328.077818
 20
869.606370
 42
-0.004971
  0
VERTEX
  8
0
 10
1324.427631
 20
865.975224
 42
-0.009913
  0
VERTEX
  8
0
 10
1319.949594
 20
861.778210
 42
-0.006509
  0
VERTEX
  8
0
 10
1314.636616
 20
857.116751
 42
0.000000
  0
VERTEX
  8
0
 10
1300.773232
 20
845.269197
 42
0.000000
  0
VERTEX
  8
0
 10
1286.636616
 20
844.562648
 42
0.015599
  0
VERTEX
  8
0
 10
1258.261812
 20
842.255410
 42
0.011916
  0
VERTEX
  8
0
 10
1227.398506
 20
838.026851
 42
0.010254
  0
VERTEX
  8
0
 10
1199.719959
 20
832.975880
 42
0.063395
  0
VERTEX
  8
0
 10
1186.055762
 20
828.331714
 42
0.061962
  0
VERTEX
  8
0
 10
1179.865640
 20
824.293675
 42
0.014895
  0
VERTEX
  8
0
 10
1170.728620
 20
816.090942
 42
0.015939
  0
VERTEX
  8
0
 10
1161.862469
 20
807.084756
 42
0.038608
  0
VERTEX
  8
0
 10
1156.080258
 20
799.763918
 42
0.047379
  0
VERTEX
  8
0
 10
1151.292844
 20
790.930235
 42
0.134799
  0
VERTEX
  8
0
 10
1150.366135
 20
784.054384
 42
0.169023
  0
VERTEX
  8
0
 10
1153.112187
 20
778.633563
 42
0.086052
  0
VERTEX
  8
0
 10
1159.513647
 20
774.297728
 42
0.097813
  0
VERTEX
  8
0
 10
1164.447996
 20
773.149381
 42
0.004515
  0
VERTEX
  8
0
 10
1181.755531
 20
772.723207
 42
0.003116
  0
VERTEX
  8
0
 10
1212.284496
 20
772.437546
 42
0.000254
  0
VERTEX
  8
0
 10
1292.277029
 20
772.228068
 42
0.000000
  0
VERTEX
  8
0
 10
1421.054059
 20
771.956136
 42
0.000000
  0
VERTEX
  8
0
 10
1435.277029
 20
785.228068
 42
0.008276
  0
VERTEX
  8
0
 10
1456.680412
 20
805.873437
 42
0.008508
  0
VERTEX
  8
0
 10
1477.188612
 20
827.029201
 42
0.009001
  0
VERTEX
  8
0
 10
1494.979157
 20
846.716159
 42
0.019447
  0
VERTEX
  8
0
 10
1507.781566
 20
862.614300
 42
0.030606
  0
VERTEX
  8
0
 10
1522.771746
 20
885.600892
 42
0.083339
  0
VERTEX
  8
0
 10
1529.418731
 20
903.788786
 42
0.143320
  0
VERTEX
  8
0
 10
1528.061109
 20
917.236838
 42
0.179843
  0
VERTEX
  8
0
 10
1519.660979
 20
926.414460
 42
0.028590
  0
VERTEX
  8
0
 10
1515.930111
 20
928.065169
 42
0.045206
  0
VERTEX
  8
0
 10
1512.560417
 20
928.994275
 42
0.027063
  0
VERTEX
  8
0
 10
1508.023601
 20
929.562392
 42
0.004494
  0
VERTEX
  8
0
 10
1499.237965
 20
930.103160
 42
-0.011849
  0
VERTEX
  8
0
 10
1468.083668
 20
932.481194
 42
-0.010139
  0
VERTEX
  8
0
 10
1435.407830
 20
936.426493
 42
-0.010444
  0
VERTEX
  8
0
 10
1404.530029
 20
941.451507
 42
-0.017784
  0
VERTEX
  8
0
 10
1379.000000
 20
947.100921
 42
-0.026165
  0
VERTEX
  8
0
 10
1354.629938
 20
954.790812
 42
-0.048155
  0
VERTEX
  8
0
 10
1335.959333
 20
963.906951
 42
-0.064307
  0
VERTEX
  8
0
 10
1323.875423
 20
973.656501
 42
-0.193220
  0
VERTEX
  8
0
 10
1320.000000
 20
983.310598
 42
-0.118809
  0
VERTEX
  8
0
 10
1321.013557
 20
987.515859
 42
-0.060368
  0
VERTEX
  8
0
 10
1324.074947
 20
992.052624
 42
-0.036114
  0
VERTEX
  8
0
 10
1329.735330
 20
997.701744
 42
-0.009741
  0
VERTEX
  8
0
 10
1339.500000
 20
1005.805712
 42
0.012250
  0
VERTEX
  8
0
 10
1357.162763
 20
1020.614842
 42
0.018608
  0
VERTEX
  8
0
 10
1371.689845
 20
1034.407054
 42
0.020878
  0
VERTEX
  8
0
 10
1383.793832
 20
1047.867671
 42
0.024261
  0
VERTEX
  8
0
 10
1394.104504
 20
1061.654869
 42
0.020267
  0
VERTEX
  8
0
 10
1398.427668
 20
1068.657653
 42
0.015775
  0
VERTEX
  8
0
 10
1402.568218
 20
1076.591464
 42
0.016032
  0
VERTEX
  8
0
 10
1405.956877
 20
1084.233026
 42
0.037316
  0
VERTEX
  8
0
 10
1407.870789
 20
1090.192820
 42
0.050413
  0
VERTEX
  8
0
 10
1408.397509
 20
1094.059231
 42
0.003218
  0
VERTEX
  8
0
 10
1408.720042
 20
1105.485462
 42
0.003887
  0
VERTEX
  8
0
 10
1408.936627
 20
1120.944736
 42
0.001539
  0
VERTEX
  8
0
 10
1409.003699
 20
1142.192820
 42
0.000000
  0
VERTEX
  8
0
 10
1409.007397
 20
1189.500000
 42
0.000000
  0
VERTEX
  8
0
 10
1415.274698
 20
1192.740390
 42
0.033716
  0
VERTEX
  8
0
 10
1421.940988
 20
1196.778042
 42
0.025737
  0
VERTEX
  8
0
 10
1428.663219
 20
1202.032531
 42
0.024034
  0
VERTEX
  8
0
 10
1435.282537
 20
1208.361491
 42
0.020514
  0
VERTEX
  8
0
 10
1441.640316
 20
1215.628861
 42
0.013392
  0
VERTEX
  8
0
 10
1446.927750
 20
1222.570654
 42
0.006094
  0
VERTEX
  8
0
 10
1453.482895
 20
1231.910497
 42
0.003458
  0
VERTEX
  8
0
 10
1459.755801
 20
1241.221543
 42
0.066145
  0
VERTEX
  8
0
 10
1461.286448
 20
1244.359343
 42
-0.524567
  0
VERTEX
  8
0
 10
1461.684002
 20
1244.474881
 42
-0.007956
  0
VERTEX
  8
0
 10
1463.850271
 20
1242.652861
 42
-0.013380
  0
VERTEX
  8
0
 10
1466.485849
 20
1240.236817
 42
-0.007556
  0
VERTEX
  8
0
 10
1469.556314
 20
1237.175918
 42
0.000000
  0
VERTEX
  8
0
 10
1477.500000
 20
1229.013950
 42
0.000000
  0
VERTEX
  8
0
 10
1498.954910
 20
1222.491945
 42
0.002054
  0
VERTEX
  8
0
 10
1507.237677
 20
1220.011209
 42
0.003269
  0
VERTEX
  8
0
 10
1514.344599
 20
1217.964832
 42
0.000740
  0
VERTEX
  8
0
 10
1520.581929
 20
1216.222888
 42
0.149246
  0
VERTEX
  8
0
 10
1521.217168
 20
1216.239056
 42
0.542685
  0
VERTEX
  8
0
 10
1521.310079
 20
1216.596027
 42
0.000554
  0
VERTEX
  8
0
 10
1514.746213
 20
1223.771669
 42
0.003528
  0
VERTEX
  8
0
 10
1507.188904
 20
1231.899109
 42
0.002082
  0
VERTEX
  8
0
 10
1498.054659
 20
1241.504086
 42
-0.001873
  0
VERTEX
  8
0
 10
1488.865320
 20
1251.158936
 42
-0.003028
  0
VERTEX
  8
0
 10
1481.126352
 20
1259.451200
 42
-0.000532
  0
VERTEX
  8
0
 10
1474.353165
 20
1266.813011
 42
-0.188199
  0
VERTEX
  8
0
 10
1474.086177
 20
1267.500000
 42
-0.100443
  0
VERTEX
  8
0
 10
1474.227752
 20
1268.192750
 42
-0.002681
  0
VERTEX
  8
0
 10
1475.469602
 20
1271.072285
 42
-0.005500
  0
VERTEX
  8
0
 10
1476.990336
 20
1274.445593
 42
-0.003726
  0
VERTEX
  8
0
 10
1478.793776
 20
1278.256715
 42
0.000000
  0
VERTEX
  8
0
 10
1483.500000
 20
1288.013431
 42
0.000000
  0
VERTEX
  8
0
 10
1525.568198
 20
1244.756715
 42
0.000000
  0
VERTEX
  8
0
 10
1567.636396
 20
1201.500000
 42
0.000000
  0
VERTEX
  8
0
 10
1589.951129
 20
1194.716264
 42
0.001364
  0
VERTEX
  8
0
 10
1598.524043
 20
1192.135597
 42
0.002254
  0
VERTEX
  8
0
 10
1605.779638
 20
1190.008598
 42
0.000222
  0
VERTEX
  8
0
 10
1612.262957
 20
1188.142800
 42
0.298684
  0
VERTEX
  8
0
 10
1612.499833
 20
1188.216264
 42
0.379419
  0
VERTEX
  8
0
 10
1612.491782
 20
1188.441616
 42
0.000023
  0
VERTEX
  8
0
 10
1597.127962
 20
1204.572903
 42
0.000748
  0
VERTEX
  8
0
 10
1580.106177
 20
1222.389928
 42
0.000449
  0
VERTEX
  8
0
 10
1559.841504
 20
1243.500000
 42
-0.000323
  0
VERTEX
  8
0
 10
1539.105643
 20
1265.090051
 42
-0.000450
  0
VERTEX
  8
0
 10
1520.573838
 20
1284.445013
 42
-0.000272
  0
VERTEX
  8
0
 10
1504.988113
 20
1300.770131
 42
-0.005822
  0
VERTEX
  8
0
 10
1500.438636
 20
1305.653237
 42
0.000000
  0
VERTEX
  8
0
 10
1493.928067
 20
1312.806474
 42
0.000000
  0
VERTEX
  8
0
 10
1497.586056
 20
1321.945896
 42
-0.008168
  0
VERTEX
  8
0
 10
1499.046605
 20
1325.429015
 42
-0.013493
  0
VERTEX
  8
0
 10
1500.406412
 20
1328.314644
 42
-0.007095
  0
VERTEX
  8
0
 10
1501.614739
 20
1330.626899
 42
-0.371608
  0
VERTEX
  8
0
 10
1502.050518
 20
1330.792659
 42
-0.114575
  0
VERTEX
  8
0
 10
1502.623076
 20
1330.420586
 42
-0.000020
  0
VERTEX
  8
0
 10
1528.181556
 20
1303.868686
 42
-0.000468
  0
VERTEX
  8
0
 10
1556.451683
 20
1274.442338
 42
-0.000283
  0
VERTEX
  8
0
 10
1589.874752
 20
1239.547549
 42
0.000422
  0
VERTEX
  8
0
 10
1640.959290
 20
1186.243200
 42
0.003868
  0
VERTEX
  8
0
 10
1663.352739
 20
1163.274439
 42
0.004458
  0
VERTEX
  8
0
 10
1676.890605
 20
1149.843665
 42
0.121619
  0
VERTEX
  8
0
 10
1681.196257
 20
1147.318237
 42
-0.001902
  0
VERTEX
  8
0
 10
1683.689977
 20
1146.568052
 42
-0.000323
  0
VERTEX
  8
0
 10
1688.436681
 20
1145.117034
 42
-0.000353
  0
VERTEX
  8
0
 10
1694.010194
 20
1143.405024
 42
-0.000314
  0
VERTEX
  8
0
 10
1699.800956
 20
1141.617820
 42
0.003971
  0
VERTEX
  8
0
 10
1705.264988
 20
1139.975119
 42
0.006974
  0
VERTEX
  8
0
 10
1709.812600
 20
1138.715773
 42
0.002506
  0
VERTEX
  8
0
 10
1713.616516
 20
1137.739628
 42
0.611667
  0
VERTEX
  8
0
 10
1713.800956
 20
1137.950314
 42
0.093331
  0
VERTEX
  8
0
 10
1713.450479
 20
1138.503222
 42
0.000011
  0
VERTEX
  8
0
 10
1683.919656
 20
1170.132460
 42
0.000312
  0
VERTEX
  8
0
 10
1651.248262
 20
1205.080125
 42
0.000189
  0
VERTEX
  8
0
 10
1612.500000
 20
1246.444868
 42
-0.000256
  0
VERTEX
  8
0
 10
1573.748456
 20
1287.824342
 42
-0.000424
  0
VERTEX
  8
0
 10
1541.065005
 20
1322.819487
 42
-0.000018
  0
VERTEX
  8
0
 10
1511.578020
 20
1354.448093
 42
-0.100445
  0
VERTEX
  8
0
 10
1511.146827
 20
1355.151205
 42
-0.172652
  0
VERTEX
  8
0
 10
1511.135814
 20
1356.534075
 42
-0.001693
  0
VERTEX
  8
0
 10
1514.478850
 20
1366.064814
 42
-0.002822
  0
VERTEX
  8
0
 10
1517.791023
 20
1375.241447
 42
-0.090268
  0
VERTEX
  8
0
 10
1518.995920
 20
1377.288127
 42
-0.438804
  0
VERTEX
  8
0
 10
1519.572428
 20
1377.306388
 42
-0.000033
  0
VERTEX
  8
0
 10
1556.126178
 20
1340.013230
 42
-0.000905
  0
VERTEX
  8
0
 10
1596.551001
 20
1298.615656
 42
-0.000542
  0
VERTEX
  8
0
 10
1644.441434
 20
1249.288127
 42
0.000000
  0
VERTEX
  8
0
 10
1769.206614
 20
1120.500000
 42
0.000000
  0
VERTEX
  8
0
 10
1795.839456
 20
1112.319482
 42
0.001051
  0
VERTEX
  8
0
 10
1806.069244
 20
1109.200838
 42
0.001738
  0
VERTEX
  8
0
 10
1814.722420
 20
1106.615511
 42
0.000138
  0
VERTEX
  8
0
 10
1822.483662
 20
1104.328352
 42
0.274526
  0
VERTEX
  8
0
 10
1822.722575
 20
1104.389242
 42
0.406914
  0
VERTEX
  8
0
 10
1822.725181
 20
1104.597767
 42
0.000003
  0
VERTEX
  8
0
 10
1780.721013
 20
1148.754884
 42
0.000266
  0
VERTEX
  8
0
 10
1734.427167
 20
1197.369186
 42
0.000159
  0
VERTEX
  8
0
 10
1679.387078
 20
1255.069760
 42
-0.000021
  0
VERTEX
  8
0
 10
1624.170267
 20
1312.923441
 42
-0.000034
  0
VERTEX
  8
0
 10
1577.297309
 20
1362.045492
 42
-0.000003
  0
VERTEX
  8
0
 10
1535.363741
 20
1405.997663
 42
-0.003306
  0
VERTEX
  8
0
 10
1533.478524
 20
1408.000000
 42
0.000000
  0
VERTEX
  8
0
 10
1531.155744
 20
1410.500000
 42
0.000000
  0
VERTEX
  8
0
 10
1534.262905
 20
1417.858110
 42
-0.017744
  0
VERTEX
  8
0
 10
1535.675831
 20
1420.898341
 42
-0.015866
  0
VERTEX
  8
0
 10
1537.351153
 20
1423.948590
 42
-0.016130
  0
VERTEX
  8
0
 10
1539.031547
 20
1426.592019
 42
-0.046757
  0
VERTEX
  8
0
 10
1540.412841
 20
1428.258994
 42
-0.048579
  0
VERTEX
  8
0
 10
1543.666543
 20
1430.935192
 42
-0.042149
  0
VERTEX
  8
0
 10
1547.529409
 20
1433.080651
 42
-0.043281
  0
VERTEX
  8
0
 10
1551.569853
 20
1434.492778
 42
-0.061079
  0
VERTEX
  8
0
 10
1555.348790
 20
1434.978038
 42
-0.126571
  0
VERTEX
  8
0
 10
1559.578615
 20
1433.915551
 42
-0.111134
  0
VERTEX
  8
0
 10
1563.012275
 20
1430.908483
 42
-0.093381
  0
VERTEX
  8
0
 10
1565.242730
 20
1426.218893
 42
-0.064522
  0
VERTEX
  8
0
 10
1566.000000
 20
1420.375000
 42
0.057680
  0
VERTEX
  8
0
 10
1566.208375
 20
1418.574700
 42
0.384118
  0
VERTEX
  8
0
 10
1566.889071
 20
1418.102130
 42
0.223797
  0
VERTEX
  8
0
 10
1567.834319
 20
1418.703966
 42
0.032978
  0
VERTEX
  8
0
 10
1568.945594
 20
1420.750000
 42
0.101832
  0
VERTEX
  8
0
 10
1570.837245
 20
1428.878033
 42
0.058947
  0
VERTEX
  8
0
 10
1569.911314
 20
1438.907441
 42
0.051072
  0
VERTEX
  8
0
 10
1566.345096
 20
1449.969134
 42
0.038989
  0
VERTEX
  8
0
 10
1560.334272
 20
1461.187839
 42
-0.089584
  0
VERTEX
  8
0
 10
1559.544871
 20
1463.102213
 42
-0.148133
  0
VERTEX
  8
0
 10
1559.686435
 20
1464.830949
 42
-0.049496
  0
VERTEX
  8
0
 10
1560.972548
 20
1467.333360
 42
-0.003199
  0
VERTEX
  8
0
 10
1565.463928
 20
1474.187839
 42
-0.019540
  0
VERTEX
  8
0
 10
1589.243615
 20
1507.110578
 42
-0.016384
  0
VERTEX
  8
0
 10
1616.906031
 20
1540.128628
 42
-0.016826
  0
VERTEX
  8
0
 10
1644.502678
 20
1568.945063
 42
-0.037874
  0
VERTEX
  8
0
 10
1667.673902
 20
1588.369342
 42
-0.055805
  0
VERTEX
  8
0
 10
1678.633023
 20
1594.505943
 42
-0.057010
  0
VERTEX
  8
0
 10
1690.599941
 20
1598.012759
 42
-0.064965
  0
VERTEX
  8
0
 10
1701.145245
 20
1598.449768
 42
-0.185861
  0
VERTEX
  8
0
 10
1707.621408
 20
1595.274498
 42
-0.105125
  0
VERTEX
  8
0
 10
1709.186711
 20
1592.650870
 42
-0.058162
  0
VERTEX
  8
0
 10
1709.976041
 20
1588.988124
 42
-0.051315
  0
VERTEX
  8
0
 10
1709.948337
 20
1584.711205
 42
-0.042596
  0
VERTEX
  8
0
 10
1709.069806
 20
1580.243398
 42
0.033324
  0
VERTEX
  8
0
 10
1708.534758
 20
1577.765658
 42
0.457589
  0
VERTEX
  8
0
 10
1709.065811
 20
1577.150611
 42
0.205140
  0
VERTEX
  8
0
 10
1710.224544
 20
1577.646542
 42
0.015557
  0
VERTEX
  8
0
 10
1712.550586
 20
1580.242487
 42
0.042070
  0
VERTEX
  8
0
 10
1716.109899
 20
1585.276789
 42
0.066782
  0
VERTEX
  8
0
 10
1718.152640
 20
1590.135921
 42
0.050637
  0
VERTEX
  8
0
 10
1719.163376
 20
1596.266137
 42
0.014995
  0
VERTEX
  8
0
 10
1719.470171
 20
1605.780913
 42
0.000000
  0
VERTEX
  8
0
 10
1719.500000
 20
1619.061826
 42
0.000000
  0
VERTEX
  8
0
 10
1730.000000
 20
1622.439284
 42
-0.029114
  0
VERTEX
  8
0
 10
1748.586441
 20
1627.244600
 42
-0.036677
  0
VERTEX
  8
0
 10
1766.223194
 20
1629.397472
 42
-0.037905
  0
VERTEX
  8
0
 10
1783.493807
 20
1628.920181
 42
-0.034960
  0
VERTEX
  8
0
 10
1800.979577
 20
1625.859283
 42
-0.021711
  0
VERTEX
  8
0
 10
1808.116400
 20
1623.755945
 42
-0.014413
  0
VERTEX
  8
0
 10
1816.110146
 20
1620.757641
 42
-0.014515
  0
VERTEX
  8
0
 10
1823.662548
 20
1617.414861
 42
-0.029269
  0
VERTEX
  8
0
 10
1829.360838
 20
1614.270413
 42
0.013675
  0
VERTEX
  8
0
 10
1830.819380
 20
1613.405185
 42
0.030556
  0
VERTEX
  8
0
 10
1831.981558
 20
1612.848118
 42
0.059138
  0
VERTEX
  8
0
 10
1832.698445
 20
1612.651454
 42
0.566741
  0
VERTEX
  8
0
 10
1832.860838
 20
1612.848537
 42
0.084725
  0
VERTEX
  8
0
 10
1831.303667
 20
1615.625444
 42
0.004790
  0
VERTEX
  8
0
 10
1825.012712
 20
1623.252523
 42
0.007964
  0
VERTEX
  8
0
 10
1818.535491
 20
1630.709502
 42
0.023196
  0
VERTEX
  8
0
 10
1813.751104
 20
1635.569948
 42
0.037898
  0
VERTEX
  8
0
 10
1798.125841
 20
1647.978145
 42
0.051217
  0
VERTEX
  8
0
 10
1782.244041
 20
1656.511327
 42
0.052868
  0
VERTEX
  8
0
 10
1765.371235
 20
1661.455614
 42
0.044361
  0
VERTEX
  8
0
 10
1746.796922
 20
1663.145890
 42
0.028924
  0
VERTEX
  8
0
 10
1734.136151
 20
1662.439380
 42
0.032550
  0
VERTEX
  8
0
 10
1722.140916
 20
1660.273287
 42
0.031009
  0
VERTEX
  8
0
 10
1710.046659
 20
1656.456035
 42
0.022331
  0
VERTEX
  8
0
 10
1697.074701
 20
1650.781240
 42
0.036987
  0
VERTEX
  8
0
 10
1683.730954
 20
1642.945410
 42
0.023328
  0
VERTEX
  8
0
 10
1669.359693
 20
1631.984847
 42
0.015988
  0
VERTEX
  8
0
 10
1651.385612
 20
1615.893648
 42
0.005201
  0
VERTEX
  8
0
 10
1625.862297
 20
1591.017585
 42
0.000000
  0
VERTEX
  8
0
 10
1602.224594
 20
1567.494943
 42
0.000000
  0
VERTEX
  8
0
 10
1595.862297
 20
1569.180234
 42
0.038971
  0
VERTEX
  8
0
 10
1588.302073
 20
1570.564077
 42
0.028342
  0
VERTEX
  8
0
 10
1579.757913
 20
1570.961394
 42
0.028863
  0
VERTEX
  8
0
 10
1571.617519
 20
1570.407722
 42
0.058166
  0
VERTEX
  8
0
 10
1565.380202
 20
1568.869294
 42
0.049901
  0
VERTEX
  8
0
 10
1561.117921
 20
1566.769521
 42
0.024751
  0
VERTEX
  8
0
 10
1556.162255
 20
1563.328331
 42
0.071626
  0
VERTEX
  8
0
 10
1554.025821
 20
1561.130970
 42
0.731375
  0
VERTEX
  8
0
 10
1554.500000
 20
1560.486888
 42
-0.031147
  0
VERTEX
  8
0
 10
1555.594105
 20
1560.783216
 42
-0.007936
  0
VERTEX
  8
0
 10
1557.400599
 20
1561.123805
 42
-0.008058
  0
VERTEX
  8
0
 10
1559.479716
 20
1561.447316
 42
-0.008085
  0
VERTEX
  8
0
 10
1561.565868
 20
1561.703261
 42
-0.081074
  0
VERTEX
  8
0
 10
1567.849607
 20
1561.351724
 42
-0.155064
  0
VERTEX
  8
0
 10
1572.178303
 20
1558.842388
 42
-0.143287
  0
VERTEX
  8
0
 10
1574.476362
 20
1554.122759
 42
-0.065597
  0
VERTEX
  8
0
 10
1574.735398
 20
1547.215204
 42
-0.046015
  0
VERTEX
  8
0
 10
1573.382528
 20
1540.005480
 42
-0.047107
  0
VERTEX
  8
0
 10
1570.739855
 20
1533.224218
 42
-0.033262
  0
VERTEX
  8
0
 10
1566.088313
 20
1525.325946
 42
-0.010446
  0
VERTEX
  8
0
 10
1558.116621
 20
1514.150990
 42
0.005427
  0
VERTEX
  8
0
 10
1544.390480
 20
1495.312136
 42
0.009180
  0
VERTEX
  8
0
 10
1533.356800
 20
1479.199966
 42
0.010059
  0
VERTEX
  8
0
 10
1523.657867
 20
1463.797668
 42
0.008609
  0
VERTEX
  8
0
 10
1514.054585
 20
1447.204270
 42
-0.006364
  0
VERTEX
  8
0
 10
1511.586319
 20
1442.894865
 42
-0.010398
  0
VERTEX
  8
0
 10
1509.372441
 20
1439.313531
 42
-0.004323
  0
VERTEX
  8
0
 10
1507.429898
 20
1436.368623
 42
-0.341840
  0
VERTEX
  8
0
 10
1506.934385
 20
1436.204270
 42
-0.117606
  0
VERTEX
  8
0
 10
1506.336984
 20
1436.589420
 42
-0.000006
  0
VERTEX
  8
0
 10
1459.153718
 20
1485.836567
 42
-0.000270
  0
VERTEX
  8
0
 10
1407.111509
 20
1540.215260
 42
-0.000162
  0
VERTEX
  8
0
 10
1345.456364
 20
1604.750000
 42
0.000000
  0
VERTEX
  8
0
 10
1184.818338
 20
1773.000000
 42
0.000000
  0
VERTEX
  8
0
 10
1132.409169
 20
1773.000000
 42
0.000704
  0
VERTEX
  8
0
 10
1112.312836
 20
1772.971692
 42
0.001175
  0
VERTEX
  8
0
 10
1095.395193
 20
1772.884279
 42
0.000056
  0
VERTEX
  8
0
 10
1080.160765
 20
1772.768069
 42
0.411949
  0
VERTEX
  8
0
 10
1080.000000
 20
1772.606055
 42
0.192985
  0
VERTEX
  8
0
 10
1080.112037
 20
1772.326591
 42
0.000001
  0
VERTEX
  8
0
 10
1138.418853
 20
1711.294651
 42
0.000148
  0
VERTEX
  8
0
 10
1202.615513
 20
1644.137691
 42
0.000089
  0
VERTEX
  8
0
 10
1278.872693
 20
1564.439582
 42
0.000000
  0
VERTEX
  8
0
 10
1477.745385
 20
1356.667055
 42
0.000000
  0
VERTEX
  8
0
 10
1475.216168
 20
1347.083527
 42
-0.004266
  0
VERTEX
  8
0
 10
1474.197980
 20
1343.354722
 42
-0.006204
  0
VERTEX
  8
0
 10
1473.231186
 20
1340.085147
 42
-0.003323
  0
VERTEX
  8
0
 10
1472.363482
 20
1337.343880
 42
-0.100168
  0
VERTEX
  8
0
 10
1472.010448
 20
1336.716973
 42
-0.441104
  0
VERTEX
  8
0
 10
1471.437843
 20
1336.701284
 42
-0.000011
  0
VERTEX
  8
0
 10
1410.044068
 20
1400.358037
 42
-0.000532
  0
VERTEX
  8
0
 10
1342.324960
 20
1470.726294
 42
-0.000319
  0
VERTEX
  8
0
 10
1262.011050
 20
1554.466973
 42
0.000000
  0
VERTEX
  8
0
 10
1052.688155
 20
1773.000000
 42
0.000000
  0
VERTEX
  8
0
 10
1007.260744
 20
1773.000000
 42
0.001754
  0
VERTEX
  8
0
 10
989.864287
 20
1772.938963
 42
0.002959
  0
VERTEX
  8
0
 10
975.275552
 20
1772.750256
 42
0.000379
  0
VERTEX
  8
0
 10
962.398805
 20
1772.497724
 42
0.521908
  0
VERTEX
  8
0
 10
962.166667
 20
1772.149809
 42
0.096471
  0
VERTEX
  8
0
 10
962.561767
 20
1771.527932
 42
0.000003
  0
VERTEX
  8
0
 10
1032.902083
 20
1697.275423
 42
0.000153
  0
VERTEX
  8
0
 10
1110.449991
 20
1615.465580
 42
0.000092
  0
VERTEX
  8
0
 10
1202.500000
 20
1518.452168
 42
-0.000299
  0
VERTEX
  8
0
 10
1294.521579
 20
1421.388455
 42
-0.000496
  0
VERTEX
  8
0
 10
1371.984349
 20
1339.420635
 42
-0.000014
  0
VERTEX
  8
0
 10
1442.029806
 20
1265.149867
 42
-0.200175
  0
VERTEX
  8
0
 10
1442.446722
 20
1264.045494
 42
-0.140917
  0
VERTEX
  8
0
 10
1441.257833
 20
1260.386307
 42
-0.010266
  0
VERTEX
  8
0
 10
1435.082946
 20
1251.638619
 42
-0.015324
  0
VERTEX
  8
0
 10
1427.927195
 20
1242.528948
 42
-0.022162
  0
VERTEX
  8
0
 10
1421.019140
 20
1234.975601
 42
-0.016980
  0
VERTEX
  8
0
 10
1414.625923
 20
1228.999165
 42
-0.027594
  0
VERTEX
  8
0
 10
1408.766781
 20
1224.427522
 42
-0.030795
  0
VERTEX
  8
0
 10
1402.951917
 20
1220.895574
 42
-0.030247
  0
VERTEX
  8
0
 10
1396.712974
 20
1218.080973
 42
-0.298182
  0
VERTEX
  8
0
 10
1393.392426
 20
1218.810464
 42
-0.001303
  0
VERTEX
  8
0
 10
1366.710344
 20
1246.197500
 42
-0.002082
  0
VERTEX
  8
0
 10
1321.225872
 20
1293.520401
 42
-0.000124
  0
VERTEX
  8
0
 10
1184.241170
 20
1437.306066
 42
-0.000011
  0
VERTEX
  8
0
 10
1103.133167
 20
1522.486818
 42
-0.000017
  0
VERTEX
  8
0
 10
1033.198826
 20
1595.941196
 42
-0.000005
  0
VERTEX
  8
0
 10
972.232355
 20
1659.981976
 42
-0.000595
  0
VERTEX
  8
0
 10
964.584622
 20
1668.034672
 42
-0.007334
  0
VERTEX
  8
0
 10
952.107289
 20
1681.597067
 42
-0.008363
  0
VERTEX
  8
0
 10
940.577728
 20
1694.947020
 42
-0.008209
  0
VERTEX
  8
0
 10
929.318918
 20
1708.892093
 42
-0.006591
  0
VERTEX
  8
0
 10
917.653013
 20
1724.250000
 42
0.000000
  0
VERTEX
  8
0
 10
908.969529
 20
1736.000000
 42
0.000000
  0
VERTEX
  8
0
 10
919.402537
 20
1736.000000
 42
0.000000
  0
VERTEX
  8
0
 10
929.835545
 20
1736.000000
 42
0.000000
  0
VERTEX
  8
0
 10
1142.167773
 20
1513.814388
 42
-0.000024
  0
VERTEX
  8
0
 10
1223.825908
 20
1428.358684
 42
-0.000039
  0
VERTEX
  8
0
 10
1293.155533
 20
1355.786585
 42
-0.000004
  0
VERTEX
  8
0
 10
1355.158048
 20
1290.873129
 42
-0.003745
  0
VERTEX
  8
0
 10
1358.000000
 20
1287.852727
 42
0.059118
  0
VERTEX
  8
0
 10
1360.771544
 20
1285.493440
 42
0.049122
  0
VERTEX
  8
0
 10
1364.191764
 20
1283.673712
 42
0.021745
  0
VERTEX
  8
0
 10
1369.883382
 20
1281.613446
 42
0.002544
  0
VERTEX
  8
0
 10
1382.798775
 20
1277.636092
 42
0.000000
  0
VERTEX
  8
0
 10
1404.097551
 20
1271.195507
 42
0.000000
  0
VERTEX
  8
0
 10
1400.798775
 20
1275.046427
 42
0.013321
  0
VERTEX
  8
0
 10
1398.053271
 20
1278.083827
 42
0.000011
  0
VERTEX
  8
0
 10
1329.155411
 20
1350.337467
 42
0.000123
  0
VERTEX
  8
0
 10
1252.243105
 20
1430.952694
 42
0.000075
  0
VERTEX
  8
0
 10
1161.538793
 20
1525.948674
 42
0.000000
  0
VERTEX
  8
0
 10
925.577587
 20
1773.000000
 42
0.000000
  0
VERTEX
  8
0
 10
905.514544
 20
1773.000000
 42
0.000000
  0
VERTEX
  8
0
 10
885.451502
 20
1773.000000
 42
0.000000
  0
VERTEX
  8
0
 10
876.850767
 20
1788.750000
 42
-0.014446
  0
VERTEX
  8
0
 10
862.499824
 20
1816.936310
 42
-0.008484
  0
VERTEX
  8
0
 10
846.894788
 20
1851.408985
 42
-0.008479
  0
VERTEX
  8
0
 10
832.434808
 20
1886.471766
 42
-0.014154
  0
VERTEX
  8
0
 10
821.613370
 20
1916.500000
 42
-0.016259
  0
VERTEX
  8
0
 10
813.931074
 20
1942.715084
 42
-0.052125
  0
VERTEX
  8
0
 10
811.243073
 20
1960.695448
 42
-0.065991
  0
VERTEX
  8
0
 10
812.625095
 20
1976.440928
 42
-0.039056
  0
VERTEX
  8
0
 10
818.160242
 20
1994.500000
 42
-0.044147
  0
VERTEX
  8
0
 10
833.441293
 20
2025.056542
 42
-0.032274
  0
VERTEX
  8
0
 10
855.387492
 20
2056.027213
 42
-0.032929
  0
VERTEX
  8
0
 10
879.721670
 20
2082.314064
 42
-0.072647
  0
VERTEX
  8
0
 10
902.044629
 20
2098.018603
 42
-0.030468
  0
VERTEX
  8
0
 10
905.104542
 20
2099.338095
 42
-0.007799
  0
VERTEX
  8
0
 10
910.206788
 20
2101.089223
 42
-0.007915
  0
VERTEX
  8
0
 10
916.103753
 20
2102.908084
 42
-0.007959
  0
VERTEX
  8
0
 10
922.044629
 20
2104.535868
 42
0.007863
  0
VERTEX
  8
0
 10
939.160799
 20
2109.222130
 42
0.057907
  0
VERTEX
  8
0
 10
946.957789
 20
2112.506273
 42
0.063643
  0
VERTEX
  8
0
 10
953.498950
 20
2117.391241
 42
0.010559
  0
VERTEX
  8
0
 10
964.587968
 20
2128.575734
 42
0.005239
  0
VERTEX
  8
0
 10
970.131859
 20
2134.532461
 42
0.008529
  0
VERTEX
  8
0
 10
974.696890
 20
2139.716579
 42
0.002984
  0
VERTEX
  8
0
 10
978.473275
 20
2144.209572
 42
0.322137
  0
VERTEX
  8
0
 10
978.525573
 20
2144.958621
 42
0.262205
  0
VERTEX
  8
0
 10
976.989556
 20
2145.806461
 42
0.005192
  0
VERTEX
  8
0
 10
967.718494
 20
2145.631278
 42
0.002925
  0
VERTEX
  8
0
 10
949.965568
 20
2145.007399
 42
0.000087
  0
SEQEND
  0
POLYLINE
  8
0
 66
1
 70
1
  0
VERTEX
  8
0
 10
594.990231
 20
2114.750000
 42
-0.110468
  0
VERTEX
  8
0
 10
593.777462
 20
2109.436173
 42
-0.039332
  0
VERTEX
  8
0
 10
589.864852
 20
2102.650773
 42
-0.039441
  0
VERTEX
  8
0
 10
584.911737
 20
2096.532155
 42
-0.104291
  0
VERTEX
  8
0
 10
580.297742
 20
2093.351044
 42
-0.070330
  0
VERTEX
  8
0
 10
576.264348
 20
2092.298128
 42
-0.036188
  0
VERTEX
  8
0
 10
571.038255
 20
2092.075472
 42
-0.034894
  0
VERTEX
  8
0
 10
565.488126
 20
2092.629682
 42
-0.042200
  0
VERTEX
  8
0
 10
560.422381
 20
2093.942814
 42
-0.049840
  0
VERTEX
  8
0
 10
552.500057
 20
2097.649120
 42
-0.021668
  0
VERTEX
  8
0
 10
542.769646
 20
2104.031248
 42
-0.012997
  0
VERTEX
  8
0
 10
533.872785
 20
2110.792289
 42
-0.446684
  0
VERTEX
  8
0
 10
533.743821
 20
2113.143821
 42
-0.179523
  0
VERTEX
  8
0
 10
535.389167
 20
2113.898682
 42
-0.000857
  0
VERTEX
  8
0
 10
554.239412
 20
2115.280214
 42
-0.004427
  0
VERTEX
  8
0
 10
572.106130
 20
2116.399970
 42
-0.009806
  0
VERTEX
  8
0
 10
585.750000
 20
2116.865746
 42
-0.003751
  0
VERTEX
  8
0
 10
591.683417
 20
2116.907341
 42
-0.056209
  0
VERTEX
  8
0
 10
593.736813
 20
2116.674748
 42
-0.205023
  0
VERTEX
  8
0
 10
594.645913
 20
2116.012559
 42
-0.136122
  0
SEQEND
  0
POLYLINE
  8
0
 66
1
 70
1
  0
VERTEX
  8
0
 10
869.360009
 20
2084.638148
 42
0.041749
  0
VERTEX
  8
0
 10
857.150898
 20
2073.857988
 42
0.023961
  0
VERTEX
  8
0
 10
844.250267
 20
2059.033298
 42
0.022353
  0
VERTEX
  8
0
 10
831.669713
 20
2041.541005
 42
0.020861
  0
VERTEX
  8
0
 10
820.388600
 20
2022.596179
 42
-0.003427
  0
VERTEX
  8
0
 10
818.170205
 20
2018.556780
 42
-0.005807
  0
VERTEX
  8
0
 10
816.250616
 20
2015.209497
 42
-0.001412
  0
VERTEX
  8
0
 10
814.557777
 20
2012.353957
 42
-0.488692
  0
VERTEX
  8
0
 10
814.339815
 20
2012.326852
 42
-0.301343
  0
VERTEX
  8
0
 10
814.130261
 20
2013.360502
 42
-0.001381
  0
VERTEX
  8
0
 10
818.518908
 20
2024.094487
 42
-0.006683
  0
VERTEX
  8
0
 10
822.974389
 20
2034.509245
 42
-0.011335
  0
VERTEX
  8
0
 10
827.015184
 20
2043.086209
 42
-0.019387
  0
VERTEX
  8
0
 10
834.224587
 20
2056.229196
 42
-0.027107
  0
VERTEX
  8
0
 10
841.730213
 20
2067.326132
 42
-0.030802
  0
VERTEX
  8
0
 10
849.387596
 20
2076.226379
 42
-0.049064
  0
VERTEX
  8
0
 10
857.056743
 20
2082.695031
 42
-0.031067
  0
VERTEX
  8
0
 10
860.945140
 20
2085.028627
 42
-0.025357
  0
VERTEX
  8
0
 10
865.361822
 20
2087.041973
 42
-0.025986
  0
VERTEX
  8
0
 10
869.602533
 20
2088.471086
 42
-0.063299
  0
VERTEX
  8
0
 10
872.860009
 20
2088.952264
 42
-0.191709
  0
VERTEX
  8
0
 10
873.575102
 20
2088.684245
 42
-0.397954
  0
VERTEX
  8
0
 10
873.616502
 20
2088.139802
 42
-0.056605
  0
VERTEX
  8
0
 10
872.447703
 20
2086.992495
 42
-0.005790
  0
SEQEND
  0
POLYLINE
  8
0
 66
1
 70
1
  0
VERTEX
  8
0
 10
346.176885
 20
2061.250000
 42
-0.001804
  0
VERTEX
  8
0
 10
332.842275
 20
2046.976673
 42
-0.005419
  0
VERTEX
  8
0
 10
323.597081
 20
2037.362878
 42
-0.001743
  0
VERTEX
  8
0
 10
316.438270
 20
2030.128935
 42
-0.407296
  0
VERTEX
  8
0
 10
315.581557
 20
2030.117306
 42
-0.206156
  0
VERTEX
  8
0
 10
315.378684
 20
2030.591592
 42
-0.018141
  0
VERTEX
  8
0
 10
315.430324
 20
2031.925310
 42
-0.021400
  0
VERTEX
  8
0
 10
315.625058
 20
2033.571143
 42
-0.014975
  0
VERTEX
  8
0
 10
315.978790
 20
2035.405356
 42
-0.069729
  0
VERTEX
  8
0
 10
319.782455
 20
2045.520004
 42
-0.058578
  0
VERTEX
  8
0
 10
326.404718
 20
2054.875962
 42
-0.056340
  0
VERTEX
  8
0
 10
335.305771
 20
2062.766072
 42
-0.054776
  0
VERTEX
  8
0
 10
345.824941
 20
2068.557332
 42
-0.011149
  0
VERTEX
  8
0
 10
352.399194
 20
2071.118747
 42
-0.505419
  0
VERTEX
  8
0
 10
353.443720
 20
2070.424324
 42
-0.196728
  0
VERTEX
  8
0
 10
352.754307
 20
2068.477660
 42
-0.004735
  0
SEQEND
  0
POLYLINE
  8
0
 66
1
 70
1
  0
VERTEX
  8
0
 10
806.337032
 20
1936.174876
 42
0.021902
  0
VERTEX
  8
0
 10
815.099279
 20
1904.389689
 42
0.015646
  0
VERTEX
  8
0
 10
827.548296
 20
1869.647994
 42
0.015077
  0
VERTEX
  8
0
 10
842.790760
 20
1834.143674
 42
0.015587
  0
VERTEX
  8
0
 10
859.988280
 20
1800.021554
 42
-0.002944
  0
VERTEX
  8
0
 10
864.921510
 20
1790.819888
 42
-0.020545
  0
VERTEX
  8
0
 10
867.117409
 20
1786.217227
 42
-0.052347
  0
VERTEX
  8
0
 10
867.875723
 20
1783.761211
 42
-0.488501
  0
VERTEX
  8
0
 10
867.250000
 20
1783.039000
 42
-0.211701
  0
VERTEX
  8
0
 10
866.449791
 20
1783.444668
 42
-0.007325
  0
VERTEX
  8
0
 10
864.228184
 20
1786.250497
 42
-0.006749
  0
VERTEX
  8
0
 10
860.702847
 20
1790.969986
 42
-0.000883
  0
VERTEX
  8
0
 10
853.358438
 20
1801.121797
 42
-0.017731
  0
VERTEX
  8
0
 10
838.341000
 20
1823.595854
 42
-0.017739
  0
VERTEX
  8
0
 10
824.956116
 20
1847.074225
 42
-0.018662
  0
VERTEX
  8
0
 10
814.059578
 20
1869.902435
 42
-0.029144
  0
VERTEX
  8
0
 10
806.598616
 20
1890.357472
 42
-0.010497
  0
VERTEX
  8
0
 10
803.433783
 20
1901.771211
 42
-0.024217
  0
VERTEX
  8
0
 10
801.656155
 20
1910.492663
 42
-0.025421
  0
VERTEX
  8
0
 10
800.778272
 20
1919.085456
 42
-0.012746
  0
VERTEX
  8
0
 10
800.500000
 20
1930.000000
 42
-0.004864
  0
VERTEX
  8
0
 10
800.645627
 20
1944.969196
 42
-0.186577
  0
VERTEX
  8
0
 10
801.893173
 20
1948.018327
 42
-0.586835
  0
VERTEX
  8
0
 10
803.496985
 20
1947.612477
 42
-0.009097
  0
SEQEND
  0
POLYLINE
  8
0
 66
1
 70
1
  0
VERTEX
  8
0
 10
490.325906
 20
1840.680902
 42
-0.005973
  0
VERTEX
  8
0
 10
489.851506
 20
1839.909267
 42
-0.000431
  0
VERTEX
  8
0
 10
488.511288
 20
1837.790640
 42
-0.000604
  0
VERTEX
  8
0
 10
486.907667
 20
1835.267197
 42
-0.000456
  0
VERTEX
  8
0
 10
485.140894
 20
1832.500000
 42
0.026831
  0
VERTEX
  8
0
 10
471.577364
 20
1808.561134
 42
0.021748
  0
VERTEX
  8
0
 10
459.585969
 20
1781.589771
 42
0.022009
  0
VERTEX
  8
0
 10
450.154837
 20
1754.131866
 42
0.030427
  0
VERTEX
  8
0
 10
444.318690
 20
1728.750000
 42
-0.007168
  0
VERTEX
  8
0
 10
443.640395
 20
1725.012004
 42
-0.011681
  0
VERTEX
  8
0
 10
442.945696
 20
1721.864063
 42
-0.005417
  0
VERTEX
  8
0
 10
442.279599
 20
1719.270523
 42
-0.339334
  0
VERTEX
  8
0
 10
441.926889
 20
1719.000000
 42
-0.309973
  0
VERTEX
  8
0
 10
441.565917
 20
1719.247571
 42
-0.010125
  0
VERTEX
  8
0
 10
440.935997
 20
1720.982812
 42
-0.016143
  0
VERTEX
  8
0
 10
440.272000
 20
1723.162556
 42
-0.010121
  0
VERTEX
  8
0
 10
439.630116
 20
1725.750000
 42
-0.064958
  0
VERTEX
  8
0
 10
437.420851
 20
1749.387526
 42
-0.061252
  0
VERTEX
  8
0
 10
441.252469
 20
1773.298857
 42
-0.057153
  0
VERTEX
  8
0
 10
451.144972
 20
1796.998482
 42
-0.044899
  0
VERTEX
  8
0
 10
466.859073
 20
1820.000000
 42
-0.018293
  0
VERTEX
  8
0
 10
473.045158
 20
1826.973049
 42
-0.011218
  0
VERTEX
  8
0
 10
480.809830
 20
1834.748846
 42
-0.003667
  0
VERTEX
  8
0
 10
488.727536
 20
1842.219356
 42
-0.337668
  0
VERTEX
  8
0
 10
490.217722
 20
1842.365440
 42
-0.141413
  0
VERTEX
  8
0
 10
490.474144
 20
1842.082493
 42
-0.098103
  0
VERTEX
  8
0
 10
490.585648
 20
1841.662857
 42
-0.083432
  0
VERTEX
  8
0
 10
490.535029
 20
1841.169989
 42
-0.067719
  0
SEQEND
  0
POLYLINE
  8
0
 66
1
 70
1
  0
VERTEX
  8
0
 10
1763.566341
 20
1651.906046
 42
-0.011288
  0
VERTEX
  8
0
 10
1768.100558
 20
1650.963802
 42
-0.045453
  0
VERTEX
  8
0
 10
1770.784278
 20
1650.079480
 42
-0.243470
  0
VERTEX
  8
0
 10
1771.389045
 20
1649.337703
 42
-0.389174
  0
VERTEX
  8
0
 10
1771.000000
 20
1648.682643
 42
-0.035688
  0
VERTEX
  8
0
 10
1769.932268
 20
1648.442480
 42
-0.001415
  0
VERTEX
  8
0
 10
1765.975000
 20
1647.856259
 42
-0.002494
  0
VERTEX
  8
0
 10
1761.281042
 20
1647.198366
 42
-0.001760
  0
VERTEX
  8
0
 10
1756.000000
 20
1646.503945
 42
0.011316
  0
VERTEX
  8
0
 10
1742.260888
 20
1644.429517
 42
0.007452
  0
VERTEX
  8
0
 10
1726.554922
 20
1641.451425
 42
0.007467
  0
VERTEX
  8
0
 10
1711.017872
 20
1638.022235
 42
0.011772
  0
VERTEX
  8
0
 10
1697.807456
 20
1634.568664
 42
-0.003133
  0
VERTEX
  8
0
 10
1685.924798
 20
1631.241864
 42
-0.131245
  0
VERTEX
  8
0
 10
1683.298131
 20
1631.226848
 42
-0.655392
  0
VERTEX
  8
0
 10
1683.141182
 20
1632.229974
 42
-0.008891
  0
VERTEX
  8
0
 10
1690.219022
 20
1636.549061
 42
-0.026815
  0
VERTEX
  8
0
 10
1700.164122
 20
1641.682518
 42
-0.018556
  0
VERTEX
  8
0
 10
1711.897009
 20
1646.447648
 42
-0.018750
  0
VERTEX
  8
0
 10
1723.626418
 20
1650.220179
 42
-0.033876
  0
VERTEX
  8
0
 10
1733.500000
 20
1652.282978
 42
-0.028920
  0
VERTEX
  8
0
 10
1739.573868
 20
1652.772422
 42
-0.008780
  0
VERTEX
  8
0
 10
1748.814886
 20
1652.818852
 42
-0.008510
  0
VERTEX
  8
0
 10
1757.983451
 20
1652.547790
 42
-0.033948
  0
SEQEND
  0
POLYLINE
  8
0
 66
1
 70
1
  0
VERTEX
  8
0
 10
498.869189
 20
1465.589333
 42
0.036440
  0
VERTEX
  8
0
 10
512.288728
 20
1458.742881
 42
0.023461
  0
VERTEX
  8
0
 10
528.689948
 20
1452.718754
 42
0.023619
  0
VERTEX
  8
0
 10
545.043213
 20
1448.405929
 42
0.048879
  0
VERTEX
  8
0
 10
558.157084
 20
1446.918426
 42
0.000000
  0
VERTEX
  8
0
 10
563.500000
 20
1446.836852
 42
0.000000
  0
VERTEX
  8
0
 10
560.000000
 20
1445.190542
 42
-0.056797
  0
VERTEX
  8
0
 10
557.625733
 20
1444.387375
 42
-0.028258
  0
VERTEX
  8
0
 10
554.484288
 20
1443.892581
 42
-0.018909
  0
VERTEX
  8
0
 10
550.090614
 20
1443.620237
 42
-0.005936
  0
VERTEX
  8
0
 10
543.500000
 20
1443.539687
 42
-0.005685
  0
VERTEX
  8
0
 10
535.583572
 20
1443.626939
 42
-0.031053
  0
VERTEX
  8
0
 10
531.318772
 20
1443.988084
 42
-0.042544
  0
VERTEX
  8
0
 10
527.743131
 20
1444.831344
 42
-0.016778
  0
VERTEX
  8
0
 10
522.989743
 20
1446.567504
 42
-0.015747
  0
VERTEX
  8
0
 10
519.662356
 20
1448.034455
 42
-0.009853
  0
VERTEX
  8
0
 10
515.859863
 20
1449.948960
 42
-0.009887
  0
VERTEX
  8
0
 10
512.185039
 20
1451.984819
 42
-0.017719
  0
VERTEX
  8
0
 10
509.264128
 20
1453.820634
 42
-0.021764
  0
VERTEX
  8
0
 10
503.979342
 20
1457.755998
 42
-0.011793
  0
VERTEX
  8
0
 10
497.817164
 20
1463.022435
 42
-0.005716
  0
VERTEX
  8
0
 10
492.107354
 20
1468.259061
 42
-0.664512
  0
VERTEX
  8
0
 10
492.369189
 20
1468.963537
 42
-0.124653
  0
VERTEX
  8
0
 10
492.932392
 20
1468.845789
 42
-0.006173
  0
VERTEX
  8
0
 10
494.637105
 20
1467.987406
 42
-0.009650
  0
VERTEX
  8
0
 10
496.648792
 20
1466.893329
 42
-0.006799
  0
SEQEND
  0
POLYLINE
  8
0
 66
1
 70
1
  0
VERTEX
  8
0
 10
816.500000
 20
1450.380983
 42
0.004125
  0
VERTEX
  8
0
 10
849.815963
 20
1423.235865
 42
0.002645
  0
VERTEX
  8
0
 10
888.916480
 20
1392.248891
 42
0.002352
  0
VERTEX
  8
0
 10
925.470235
 20
1363.870302
 42
0.011816
  0
VERTEX
  8
0
 10
946.363828
 20
1348.578202
 42
0.005006
  0
VERTEX
  8
0
 10
950.549100
 20
1345.726104
 42
0.002945
  0
VERTEX
  8
0
 10
955.606874
 20
1342.395950
 42
0.002945
  0
VERTEX
  8
0
 10
960.701425
 20
1339.126948
 42
0.005025
  0
VERTEX
  8
0
 10
965.000000
 20
1336.464450
 42
-0.012768
  0
VERTEX
  8
0
 10
973.492661
 20
1331.020433
 42
-0.016553
  0
VERTEX
  8
0
 10
980.973267
 20
1325.581354
 42
-0.015915
  0
VERTEX
  8
0
 10
988.303351
 20
1319.486993
 42
-0.010483
  0
VERTEX
  8
0
 10
996.354380
 20
1312.040651
 42
-0.011351
  0
VERTEX
  8
0
 10
1002.635600
 20
1305.700530
 42
-0.004649
  0
VERTEX
  8
0
 10
1010.884380
 20
1296.823562
 42
-0.004687
  0
VERTEX
  8
0
 10
1019.226016
 20
1287.503610
 42
-0.008176
  0
VERTEX
  8
0
 10
1025.940086
 20
1279.602194
 42
-0.939548
  0
VERTEX
  8
0
 10
1025.869954
 20
1279.536819
 42
-0.002570
  0
VERTEX
  8
0
 10
1023.076150
 20
1282.209896
 42
-0.002476
  0
VERTEX
  8
0
 10
1019.075143
 20
1286.116113
 42
-0.001203
  0
VERTEX
  8
0
 10
1014.000000
 20
1291.144481
 42
0.010713
  0
VERTEX
  8
0
 10
1004.042844
 20
1300.641481
 42
0.011717
  0
VERTEX
  8
0
 10
993.975108
 20
1309.416357
 42
0.012526
  0
VERTEX
  8
0
 10
984.677579
 20
1316.758324
 42
0.028325
  0
VERTEX
  8
0
 10
977.211539
 20
1321.721917
 42
0.014357
  0
VERTEX
  8
0
 10
974.690419
 20
1323.103730
 42
0.002954
  0
VERTEX
  8
0
 10
970.162342
 20
1325.385408
 42
0.003106
  0
VERTEX
  8
0
 10
964.868109
 20
1327.973175
 42
0.002918
  0
VERTEX
  8
0
 10
959.431249
 20
1330.549983
 42
-0.011966
  0
VERTEX
  8
0
 10
939.891850
 20
1340.247482
 42
-0.007911
  0
VERTEX
  8
0
 10
917.903048
 20
1352.272578
 42
-0.007913
  0
VERTEX
  8
0
 10
896.314603
 20
1364.982218
 42
-0.012007
  0
VERTEX
  8
0
 10
878.000000
 20
1376.771092
 42
-0.020399
  0
VERTEX
  8
0
 10
850.380873
 20
1397.194619
 42
-0.030335
  0
VERTEX
  8
0
 10
828.143350
 20
1417.424983
 42
-0.035433
  0
VERTEX
  8
0
 10
811.820938
 20
1436.758870
 42
-0.070645
  0
VERTEX
  8
0
 10
802.429318
 20
1454.398282
 42
-0.011662
  0
VERTEX
  8
0
 10
801.156099
 20
1458.178615
 42
-0.058598
  0
VERTEX
  8
0
 10
800.747412
 20
1460.368751
 42
-0.161004
  0
VERTEX
  8
0
 10
801.044521
 20
1461.523411
 42
-0.259517
  0
VERTEX
  8
0
 10
801.916667
 20
1461.990675
 42
-0.164981
  0
VERTEX
  8
0
 10
802.326397
 20
1461.844354
 42
-0.000584
  0
VERTEX
  8
0
 10
806.441146
 20
1458.576482
 42
-0.003017
  0
VERTEX
  8
0
 10
811.090907
 20
1454.828777
 42
-0.001879
  0
SEQEND
  0
POLYLINE
  8
0
 66
1
 70
1
  0
VERTEX
  8
0
 10
1044.429293
 20
1063.358787
 42
0.027591
  0
VERTEX
  8
0
 10
1043.661393
 20
1059.208618
 42
0.011057
  0
VERTEX
  8
0
 10
1043.051987
 20
1053.463491
 42
0.009183
  0
VERTEX
  8
0
 10
1042.581208
 20
1046.253095
 42
0.005058
  0
VERTEX
  8
0
 10
1042.256770
 20
1037.421215
 42
0.009720
  0
VERTEX
  8
0
 10
1042.156187
 20
1023.381250
 42
0.016150
  0
VERTEX
  8
0
 10
1042.683500
 20
1011.558563
 42
0.016710
  0
VERTEX
  8
0
 10
1043.954259
 20
1000.082927
 42
0.011404
  0
VERTEX
  8
0
 10
1046.129432
 20
987.140544
 42
-0.005142
  0
VERTEX
  8
0
 10
1046.854520
 20
983.133864
 42
-0.008097
  0
VERTEX
  8
0
 10
1047.385760
 20
979.678607
 42
-0.003119
  0
VERTEX
  8
0
 10
1047.771580
 20
976.730289
 42
-0.231319
  0
VERTEX
  8
0
 10
1047.618863
 20
976.285529
 42
-0.369010
  0
VERTEX
  8
0
 10
1047.273209
 20
976.258381
 42
-0.017937
  0
VERTEX
  8
0
 10
1046.296077
 20
977.023819
 42
-0.022020
  0
VERTEX
  8
0
 10
1045.117030
 20
978.109966
 42
-0.013232
  0
VERTEX
  8
0
 10
1043.811652
 20
979.494746
 42
-0.083363
  0
VERTEX
  8
0
 10
1035.137713
 20
993.235494
 42
-0.071793
  0
VERTEX
  8
0
 10
1030.851409
 20
1009.786805
 42
-0.062914
  0
VERTEX
  8
0
 10
1031.148493
 20
1028.831205
 42
-0.043073
  0
VERTEX
  8
0
 10
1036.028464
 20
1049.924411
 42
-0.013086
  0
VERTEX
  8
0
 10
1038.798950
 20
1057.766015
 42
-0.014114
  0
VERTEX
  8
0
 10
1041.912211
 20
1065.254231
 42
-0.009228
  0
VERTEX
  8
0
 10
1044.810147
 20
1071.398744
 42
-0.654263
  0
VERTEX
  8
0
 10
1045.658090
 20
1071.358787
 42
-0.120596
  0
VERTEX
  8
0
 10
1045.753901
 20
1070.595946
 42
-0.009330
  0
VERTEX
  8
0
 10
1045.477003
 20
1068.538036
 42
-0.012334
  0
VERTEX
  8
0
 10
1045.035184
 20
1066.069090
 42
-0.009096
  0
SEQEND
  0
POLYLINE
  8
0
 66
1
 70
1
  0
VERTEX
  8
0
 10
1513.220356
 20
915.353660
 42
-0.064840
  0
VERTEX
  8
0
 10
1515.453274
 20
913.834844
 42
-0.092032
  0
VERTEX
  8
0
 10
1516.923093
 20
911.942725
 42
-0.080425
  0
VERTEX
  8
0
 10
1517.738393
 20
909.452394
 42
-0.038991
  0
VERTEX
  8
0
 10
1518.000000
 20
906.102762
 42
-0.121353
  0
VERTEX
  8
0
 10
1515.169067
 20
894.610518
 42
-0.033422
  0
VERTEX
  8
0
 10
1505.366436
 20
878.617347
 42
-0.027239
  0
VERTEX
  8
0
 10
1489.975367
 20
859.236407
 42
-0.013810
  0
VERTEX
  8
0
 10
1468.659493
 20
836.503377
 42
-0.002784
  0
VERTEX
  8
0
 10
1461.848928
 20
829.706738
 42
-0.005076
  0
VERTEX
  8
0
 10
1456.202152
 20
824.245941
 42
-0.002254
  0
VERTEX
  8
0
 10
1451.566211
 20
819.892368
 42
-0.769040
  0
VERTEX
  8
0
 10
1451.304152
 20
820.057273
 42
-0.071892
  0
VERTEX
  8
0
 10
1451.807480
 20
821.111177
 42
-0.001878
  0
VERTEX
  8
0
 10
1454.725037
 20
825.441897
 42
-0.003924
  0
VERTEX
  8
0
 10
1458.217882
 20
830.498916
 42
-0.002668
  0
VERTEX
  8
0
 10
1462.268420
 20
836.201099
 42
0.005902
  0
VERTEX
  8
0
 10
1470.912615
 20
848.538300
 42
0.010068
  0
VERTEX
  8
0
 10
1477.800828
 20
859.069664
 42
0.011475
  0
VERTEX
  8
0
 10
1483.577086
 20
868.790736
 42
0.012034
  0
VERTEX
  8
0
 10
1488.806380
 20
878.615292
 42
0.019093
  0
VERTEX
  8
0
 10
1494.062768
 20
890.171637
 42
0.041207
  0
VERTEX
  8
0
 10
1497.007304
 20
899.481379
 42
0.055807
  0
VERTEX
  8
0
 10
1497.840487
 20
906.858598
 42
0.121009
  0
VERTEX
  8
0
 10
1496.493839
 20
912.364307
 42
-0.010752
  0
VERTEX
  8
0
 10
1495.921859
 20
913.521032
 42
-0.013112
  0
VERTEX
  8
0
 10
1495.438815
 20
914.627884
 42
-0.011664
  0
VERTEX
  8
0
 10
1495.081354
 20
915.571983
 42
-0.084858
  0
VERTEX
  8
0
 10
1495.000000
 20
916.047885
 42
-0.398889
  0
VERTEX
  8
0
 10
1496.245571
 20
917.360762
 42
-0.022675
  0
VERTEX
  8
0
 10
1502.357311
 20
917.405131
 42
-0.029570
  0
VERTEX
  8
0
 10
1508.812582
 20
916.775656
 42
-0.078028
  0
SEQEND
  0
POLYLINE
  8
0
 66
1
 70
1
  0
VERTEX
  8
0
 10
1215.000000
 20
821.452548
 42
-0.000185
  0
VERTEX
  8
0
 10
1201.361995
 20
817.844643
 42
-0.000304
  0
VERTEX
  8
0
 10
1189.818719
 20
814.802989
 42
-0.000019
  0
VERTEX
  8
0
 10
1179.425743
 20
812.071632
 42
-0.048517
  0
VERTEX
  8
0
 10
1179.127555
 20
812.023511
 42
-0.676643
  0
VERTEX
  8
0
 10
1178.925539
 20
812.448111
 42
-0.032202
  0
VERTEX
  8
0
 10
1180.513799
 20
813.959925
 42
-0.024564
  0
VERTEX
  8
0
 10
1182.939659
 20
815.793547
 42
-0.027994
  0
VERTEX
  8
0
 10
1185.433102
 20
817.295499
 42
-0.028377
  0
VERTEX
  8
0
 10
1193.417243
 20
820.951794
 42
-0.023851
  0
VERTEX
  8
0
 10
1202.236959
 20
823.923655
 42
-0.020851
  0
VERTEX
  8
0
 10
1212.405076
 20
826.364787
 42
-0.012971
  0
VERTEX
  8
0
 10
1224.500000
 20
828.415842
 42
-0.002083
  0
VERTEX
  8
0
 10
1245.365119
 20
831.310989
 42
-0.777220
  0
VERTEX
  8
0
 10
1245.726144
 20
830.415206
 42
-0.092706
  0
VERTEX
  8
0
 10
1242.160624
 20
828.703252
 42
-0.000940
  0
SEQEND
  0
POLYLINE
  8
0
 66
1
 70
1
  0
VERTEX
  8
0
 10
84.500000
 20
1884.383606
 42
0.068543
  0
VERTEX
  8
0
 10
81.603719
 20
1883.262940
 42
0.088544
  0
VERTEX
  8
0
 10
79.395684
 20
1881.467542
 42
0.093241
  0
VERTEX
  8
0
 10
78.022636
 20
1879.099949
 42
0.085102
  0
VERTEX
  8
0
 10
77.545455
 20
1876.316665
 42
0.109733
  0
VERTEX
  8
0
 10
78.559521
 20
1871.751676
 42
0.052473
  0
VERTEX
  8
0
 10
81.675248
 20
1866.577716
 42
0.038420
  0
VERTEX
  8
0
 10
86.947862
 20
1860.610547
 42
0.016966
  0
VERTEX
  8
0
 10
94.750000
 20
1853.538062
 42
-0.001834
  0
VERTEX
  8
0
 10
98.679743
 20
1850.186736
 42
-0.002983
  0
VERTEX
  8
0
 10
101.989063
 20
1847.308986
 42
-0.000469
  0
VERTEX
  8
0
 10
104.897336
 20
1844.744503
 42
-0.215024
  0
VERTEX
  8
0
 10
105.000000
 20
1844.516813
 42
-0.258847
  0
VERTEX
  8
0
 10
104.887608
 20
1844.314257
 42
-0.001789
  0
VERTEX
  8
0
 10
103.143825
 20
1843.235350
 42
-0.006258
  0
VERTEX
  8
0
 10
101.103531
 20
1842.017946
 42
-0.003889
  0
VERTEX
  8
0
 10
98.681107
 20
1840.638405
 42
0.017234
  0
VERTEX
  8
0
 10
91.817729
 20
1836.483428
 42
0.020797
  0
VERTEX
  8
0
 10
85.687202
 20
1832.102878
 42
0.022375
  0
VERTEX
  8
0
 10
80.806775
 20
1827.935483
 42
0.066529
  0
VERTEX
  8
0
 10
78.024978
 20
1824.540416
 42
0.019578
  0
VERTEX
  8
0
 10
76.861990
 20
1822.482690
 42
0.072859
  0
VERTEX
  8
0
 10
76.381239
 20
1821.078280
 42
0.098593
  0
VERTEX
  8
0
 10
76.396491
 20
1819.828189
 42
0.054748
  0
VERTEX
  8
0
 10
76.875228
 20
1818.374501
 42
0.159332
  0
VERTEX
  8
0
 10
79.645246
 20
1815.362268
 42
0.075110
  0
VERTEX
  8
0
 10
84.644515
 20
1813.473009
 42
0.030808
  0
VERTEX
  8
0
 10
93.769896
 20
1812.095889
 42
0.003932
  0
VERTEX
  8
0
 10
113.557098
 20
1810.503176
 42
-0.005907
  0
VERTEX
  8
0
 10
127.382086
 20
1809.335410
 42
-0.031554
  0
VERTEX
  8
0
 10
134.855126
 20
1808.135794
 42
-0.043326
  0
VERTEX
  8
0
 10
141.026137
 20
1806.166858
 42
-0.017652
  0
VERTEX
  8
0
 10
149.039170
 20
1802.484641
 42
-0.025661
  0
VERTEX
  8
0
 10
163.228146
 20
1794.410233
 42
-0.058630
  0
VERTEX
  8
0
 10
172.743326
 20
1786.624010
 42
-0.088713
  0
VERTEX
  8
0
 10
177.674765
 20
1779.273238
 42
-0.185257
  0
VERTEX
  8
0
 10
177.997658
 20
1772.492904
 42
-0.117077
  0
VERTEX
  8
0
 10
175.025585
 20
1767.665578
 42
-0.066856
  0
VERTEX
  8
0
 10
169.555649
 20
1763.487219
 42
-0.041339
  0
VERTEX
  8
0
 10
160.688348
 20
1759.353979
 42
-0.012222
  0
VERTEX
  8
0
 10
146.500000
 20
1754.508275
 42
0.012393
  0
VERTEX
  8
0
 10
132.093044
 20
1749.582406
 42
0.040624
  0
VERTEX
  8
0
 10
122.977375
 20
1745.341643
 42
0.067784
  0
VERTEX
  8
0
 10
117.709956
 20
1741.320676
 42
0.198402
  0
VERTEX
  8
0
 10
116.000000
 20
1737.180986
 42
0.163948
  0
VERTEX
  8
0
 10
116.998740
 20
1734.216951
 42
0.060135
  0
VERTEX
  8
0
 10
120.116620
 20
1731.002400
 42
0.048003
  0
VERTEX
  8
0
 10
124.874896
 20
1727.853505
 42
0.030161
  0
VERTEX
  8
0
 10
130.946844
 20
1725.080744
 42
0.036988
  0
VERTEX
  8
0
 10
141.933136
 20
1721.752897
 42
0.051546
  0
VERTEX
  8
0
 10
152.127861
 20
1720.552792
 42
0.020619
  0
VERTEX
  8
0
 10
167.645246
 20
1720.972700
 42
0.001566
  0
VERTEX
  8
0
 10
209.500000
 20
1723.966980
 42
-0.001019
  0
VERTEX
  8
0
 10
246.385125
 20
1726.646301
 42
-0.007853
  0
VERTEX
  8
0
 10
263.684210
 20
1727.594685
 42
-0.011188
  0
VERTEX
  8
0
 10
278.618819
 20
1727.843917
 42
-0.003304
  0
VERTEX
  8
0
 10
301.500000
 20
1727.562541
 42
-0.003048
  0
VERTEX
  8
0
 10
327.607275
 20
1726.909720
 42
-0.033480
  0
VERTEX
  8
0
 10
338.030958
 20
1725.884587
 42
-0.079158
  0
VERTEX
  8
0
 10
344.640666
 20
1723.672510
 42
-0.057051
  0
VERTEX
  8
0
 10
351.092720
 20
1719.306368
 42
0.038079
  0
VERTEX
  8
0
 10
362.631828
 20
1710.843828
 42
0.049651
  0
VERTEX
  8
0
 10
374.374113
 20
1705.063560
 42
0.046058
  0
VERTEX
  8
0
 10
387.712119
 20
1701.427150
 42
0.027037
  0
VERTEX
  8
0
 10
404.146935
 20
1699.444532
 42
0.000000
  0
VERTEX
  8
0
 10
414.793870
 20
1698.740870
 42
0.000000
  0
VERTEX
  8
0
 10
411.398598
 20
1712.108818
 42
-0.025008
  0
VERTEX
  8
0
 10
406.524435
 20
1736.312851
 42
-0.043119
  0
VERTEX
  8
0
 10
405.241149
 20
1756.808796
 42
-0.048005
  0
VERTEX
  8
0
 10
407.501337
 20
1775.618135
 42
-0.041597
  0
VERTEX
  8
0
 10
413.350586
 20
1794.616555
 42
0.007321
  0
VERTEX
  8
0
 10
414.603672
 20
1797.874573
 42
0.011940
  0
VERTEX
  8
0
 10
415.559474
 20
1800.677339
 42
0.005643
  0
VERTEX
  8
0
 10
416.269692
 20
1803.027369
 42
0.341750
  0
VERTEX
  8
0
 10
416.117533
 20
1803.412332
 42
0.061882
  0
VERTEX
  8
0
 10
413.520064
 20
1804.547965
 42
0.003876
  0
VERTEX
  8
0
 10
405.465761
 20
1806.871041
 42
0.006324
  0
VERTEX
  8
0
 10
397.240271
 20
1809.062764
 42
0.015073
  0
VERTEX
  8
0
 10
391.065614
 20
1810.428068
 42
0.025452
  0
VERTEX
  8
0
 10
380.905338
 20
1811.824409
 42
0.054135
  0
VERTEX
  8
0
 10
372.982863
 20
1811.646262
 42
0.049019
  0
VERTEX
  8
0
 10
364.804004
 20
1809.743249
 42
0.017612
  0
VERTEX
  8
0
 10
353.608439
 20
1805.506350
 42
-0.016104
  0
VERTEX
  8
0
 10
349.592277
 20
1803.972599
 42
-0.010434
  0
VERTEX
  8
0
 10
344.858345
 20
1802.447157
 42
-0.010492
  0
VERTEX
  8
0
 10
340.167032
 20
1801.149405
 42
-0.019505
  0
VERTEX
  8
0
 10
336.306907
 20
1800.327087
 42
-0.014037
  0
VERTEX
  8
0
 10
331.235116
 20
1799.597803
 42
-0.030049
  0
VERTEX
  8
0
 10
327.287346
 20
1799.381798
 42
-0.024384
  0
VERTEX
  8
0
 10
322.862017
 20
1799.621779
 42
-0.006522
  0
VERTEX
  8
0
 10
315.856725
 20
1800.437893
 42
0.005887
  0
VERTEX
  8
0
 10
310.779321
 20
1801.035938
 42
0.005215
  0
VERTEX
  8
0
 10
305.479793
 20
1801.541131
 42
0.005242
  0
VERTEX
  8
0
 10
300.697886
 20
1801.896248
 42
0.015912
  0
VERTEX
  8
0
 10
297.438531
 20
1802.000000
 42
-0.027000
  0
VERTEX
  8
0
 10
289.274244
 20
1802.441186
 42
-0.013855
  0
VERTEX
  8
0
 10
279.116824
 20
1803.827878
 42
-0.013814
  0
VERTEX
  8
0
 10
268.855338
 20
1805.812182
 42
-0.022618
  0
VERTEX
  8
0
 10
260.308626
 20
1808.121241
 42
-0.023419
  0
VERTEX
  8
0
 10
253.353094
 20
1810.707028
 42
-0.034108
  0
VERTEX
  8
0
 10
247.524963
 20
1813.674457
 42
-0.029769
  0
VERTEX
  8
0
 10
241.609352
 20
1817.709881
 42
-0.013121
  0
VERTEX
  8
0
 10
234.269045
 20
1823.699526
 42
0.033087
  0
VERTEX
  8
0
 10
208.465212
 20
1843.093017
 42
0.027479
  0
VERTEX
  8
0
 10
178.714147
 20
1860.262442
 42
0.027926
  0
VERTEX
  8
0
 10
147.917369
 20
1873.744172
 42
0.038882
  0
VERTEX
  8
0
 10
119.000000
 20
1882.030430
 42
0.022171
  0
VERTEX
  8
0
 10
110.508471
 20
1883.374771
 42
0.011144
  0
VERTEX
  8
0
 10
99.695776
 20
1884.354799
 42
0.008936
  0
VERTEX
  8
0
 10
89.381757
 20
1884.873317
 42
0.066266
  0
SEQEND
  0
POLYLINE
  8
0
 66
1
 70
1
  0
VERTEX
  8
0
 10
788.757994
 20
1406.358576
 42
0.073876
  0
VERTEX
  8
0
 10
788.053869
 20
1404.568952
 42
0.005393
  0
VERTEX
  8
0
 10
786.913473
 20
1399.385957
 42
0.007166
  0
VERTEX
  8
0
 10
785.669157
 20
1392.966345
 42
0.004628
  0
VERTEX
  8
0
 10
784.403896
 20
1385.500000
 42
0.027427
  0
VERTEX
  8
0
 10
783.183577
 20
1373.782338
 42
0.012470
  0
VERTEX
  8
0
 10
782.813825
 20
1358.372359
 42
0.012493
  0
VERTEX
  8
0
 10
783.222922
 20
1342.601261
 42
0.021825
  0
VERTEX
  8
0
 10
784.456960
 20
1329.589967
 42
0.032756
  0
VERTEX
  8
0
 10
790.662571
 20
1299.546618
 42
0.034154
  0
VERTEX
  8
0
 10
800.678552
 20
1271.001462
 42
0.033045
  0
VERTEX
  8
0
 10
814.830771
 20
1243.265227
 42
0.027054
  0
VERTEX
  8
0
 10
833.409324
 20
1215.635518
 42
0.005316
  0
VERTEX
  8
0
 10
837.106407
 20
1210.839254
 42
0.003979
  0
VERTEX
  8
0
 10
841.277153
 20
1205.631643
 42
0.004022
  0
VERTEX
  8
0
 10
845.283623
 20
1200.790005
 42
0.009172
  0
VERTEX
  8
0
 10
848.402828
 20
1197.216885
 42
-0.036868
  0
VERTEX
  8
0
 10
853.694633
 20
1190.430998
 42
-0.170693
  0
VERTEX
  8
0
 10
854.909186
 20
1185.684075
 42
-0.128410
  0
VERTEX
  8
0
 10
853.040939
 20
1180.453635
 42
-0.017443
  0
VERTEX
  8
0
 10
846.099261
 20
1171.000000
 42
-0.029326
  0
VERTEX
  8
0
 10
829.615152
 20
1152.464453
 42
-0.035883
  0
VERTEX
  8
0
 10
812.087286
 20
1137.290514
 42
-0.039007
  0
VERTEX
  8
0
 10
794.040144
 20
1125.879337
 42
-0.051475
  0
VERTEX
  8
0
 10
776.000000
 20
1118.611119
 42
-0.027450
  0
VERTEX
  8
0
 10
763.505592
 20
1115.748156
 42
-0.015819
  0
VERTEX
  8
0
 10
748.215261
 20
1113.613226
 42
-0.015784
  0
VERTEX
  8
0
 10
732.703602
 20
1112.439431
 42
-0.025685
  0
VERTEX
  8
0
 10
719.500000
 20
1112.537098
 42
-0.010296
  0
VERTEX
  8
0
 10
714.559079
 20
1112.929969
 42
-0.003996
  0
VERTEX
  8
0
 10
707.737500
 20
1113.669095
 42
-0.003954
  0
VERTEX
  8
0
 10
700.358426
 20
1114.587555
 42
-0.004888
  0
VERTEX
  8
0
 10
693.500000
 20
1115.564666
 42
0.005802
  0
VERTEX
  8
0
 10
676.685081
 20
1117.928940
 42
0.013870
  0
VERTEX
  8
0
 10
664.147834
 20
1119.191273
 42
0.013262
  0
VERTEX
  8
0
 10
651.232675
 20
1119.786935
 42
0.004892
  0
VERTEX
  8
0
 10
633.000000
 20
1119.965307
 42
0.003165
  0
VERTEX
  8
0
 10
620.846719
 20
1119.888360
 42
0.007764
  0
VERTEX
  8
0
 10
611.913985
 20
1119.636488
 42
0.010093
  0
VERTEX
  8
0
 10
605.297452
 20
1119.213107
 42
0.031206
  0
VERTEX
  8
0
 10
600.868929
 20
1118.559748
 42
0.048685
  0
VERTEX
  8
0
 10
590.885542
 20
1115.403994
 42
0.054974
  0
VERTEX
  8
0
 10
582.129903
 20
1110.468549
 42
0.063634
  0
VERTEX
  8
0
 10
575.983511
 20
1104.740013
 42
0.175127
  0
VERTEX
  8
0
 10
574.000000
 20
1099.250623
 42
0.238088
  0
VERTEX
  8
0
 10
576.334331
 20
1094.626271
 42
0.032038
  0
VERTEX
  8
0
 10
585.774539
 20
1088.551456
 42
0.027525
  0
VERTEX
  8
0
 10
599.847187
 20
1081.706601
 42
0.012359
  0
VERTEX
  8
0
 10
619.000000
 20
1074.212821
 42
0.008714
  0
VERTEX
  8
0
 10
637.046597
 20
1068.015125
 42
0.007614
  0
VERTEX
  8
0
 10
656.125681
 20
1062.151900
 42
0.003711
  0
VERTEX
  8
0
 10
684.854333
 20
1054.030607
 42
0.000497
  0
VERTEX
  8
0
 10
745.500000
 20
1037.436574
 42
0.000000
  0
VERTEX
  8
0
 10
828.500000
 20
1014.814560
 42
0.000000
  0
VERTEX
  8
0
 10
835.000000
 20
1017.034801
 42
0.015527
  0
VERTEX
  8
0
 10
866.788604
 20
1029.007443
 42
0.008426
  0
VERTEX
  8
0
 10
905.121733
 20
1045.581930
 42
0.008425
  0
VERTEX
  8
0
 10
942.933263
 20
1063.466392
 42
0.015302
  0
VERTEX
  8
0
 10
973.113901
 20
1079.535672
 42
0.014659
  0
VERTEX
  8
0
 10
998.030066
 20
1094.783727
 42
0.015830
  0
VERTEX
  8
0
 10
1021.364583
 20
1111.097948
 42
0.016846
  0
VERTEX
  8
0
 10
1040.975927
 20
1126.811423
 42
0.041164
  0
VERTEX
  8
0
 10
1053.970524
 20
1139.964795
 42
0.068761
  0
VERTEX
  8
0
 10
1057.297586
 20
1145.274627
 42
0.081487
  0
VERTEX
  8
0
 10
1058.817054
 20
1150.990625
 42
0.063661
  0
VERTEX
  8
0
 10
1058.608157
 20
1157.964464
 42
0.025795
  0
VERTEX
  8
0
 10
1056.634532
 20
1167.284755
 42
0.038358
  0
VERTEX
  8
0
 10
1050.074369
 20
1186.012768
 42
0.034103
  0
VERTEX
  8
0
 10
1040.510121
 20
1204.304073
 42
0.031422
  0
VERTEX
  8
0
 10
1027.732908
 20
1222.477242
 42
0.023462
  0
VERTEX
  8
0
 10
1011.530900
 20
1240.856121
 42
0.019633
  0
VERTEX
  8
0
 10
992.458089
 20
1259.059895
 42
0.019915
  0
VERTEX
  8
0
 10
972.103976
 20
1275.620879
 42
0.016837
  0
VERTEX
  8
0
 10
947.651822
 20
1292.693081
 42
0.008483
  0
VERTEX
  8
0
 10
915.749969
 20
1312.643829
 42
-0.006151
  0
VERTEX
  8
0
 10
886.323833
 20
1330.855973
 42
-0.008177
  0
VERTEX
  8
0
 10
860.055654
 20
1348.173822
 42
-0.009138
  0
VERTEX
  8
0
 10
837.573045
 20
1364.139491
 42
-0.016351
  0
VERTEX
  8
0
 10
819.792153
 20
1378.182232
 42
-0.008793
  0
VERTEX
  8
0
 10
816.197336
 20
1381.327215
 42
-0.003229
  0
VERTEX
  8
0
 10
811.227556
 20
1385.890626
 42
-0.003199
  0
VERTEX
  8
0
 10
805.860896
 20
1390.947160
 42
-0.003834
  0
VERTEX
  8
0
 10
800.876121
 20
1395.778030
 42
0.005514
  0
VERTEX
  8
0
 10
796.382940
 20
1400.103299
 42
0.009393
  0
VERTEX
  8
0
 10
792.521571
 20
1403.604703
 42
0.003630
  0
VERTEX
  8
0
 10
789.226055
 20
1406.440181
 42
0.468252
  0
SEQEND
  0
POLYLINE
  8
0
 66
1
 70
1
  0
VERTEX
  8
0
 10
804.450282
 20
1344.881091
 42
0.012474
  0
VERTEX
  8
0
 10
809.609657
 20
1325.147836
 42
0.008039
  0
VERTEX
  8
0
 10
816.522185
 20
1302.542053
 42
0.007281
  0
VERTEX
  8
0
 10
825.003272
 20
1277.569586
 42
0.005645
  0
VERTEX
  8
0
 10
834.936888
 20
1250.628201
 42
-0.005627
  0
VERTEX
  8
0
 10
836.501241
 20
1246.385930
 42
-0.008407
  0
VERTEX
  8
0
 10
837.763905
 20
1242.641242
 42
-0.004271
  0
VERTEX
  8
0
 10
838.746637
 20
1239.462751
 42
-0.154478
  0
VERTEX
  8
0
 10
838.735111
 20
1238.705333
 42
-0.598823
  0
VERTEX
  8
0
 10
837.585070
 20
1238.507993
 42
-0.008305
  0
VERTEX
  8
0
 10
832.250265
 20
1245.598619
 42
-0.015300
  0
VERTEX
  8
0
 10
826.821523
 20
1253.571174
 42
-0.022621
  0
VERTEX
  8
0
 10
822.603767
 20
1260.903952
 42
-0.026046
  0
VERTEX
  8
0
 10
815.718857
 20
1276.130078
 42
-0.023563
  0
VERTEX
  8
0
 10
810.193816
 20
1292.502273
 42
-0.021702
  0
VERTEX
  8
0
 10
805.863586
 20
1310.592406
 42
-0.015837
  0
VERTEX
  8
0
 10
802.572757
 20
1331.000000
 42
-0.005835
  0
VERTEX
  8
0
 10
801.339112
 20
1341.537861
 42
-0.007575
  0
VERTEX
  8
0
 10
800.467924
 20
1351.222072
 42
-0.003023
  0
VERTEX
  8
0
 10
799.890548
 20
1359.635092
 42
-0.680320
  0
VERTEX
  8
0
 10
800.415150
 20
1359.881091
 42
-0.137082
  0
VERTEX
  8
0
 10
800.753199
 20
1359.319712
 42
-0.001692
  0
VERTEX
  8
0
 10
801.871071
 20
1355.219540
 42
-0.004858
  0
VERTEX
  8
0
 10
803.107722
 20
1350.437745
 42
-0.003143
  0
SEQEND
  0
POLYLINE
  8
0
 66
1
 70
1
  0
VERTEX
  8
0
 10
668.631374
 20
1108.563298
 42
-0.004343
  0
VERTEX
  8
0
 10
678.175763
 20
1107.083448
 42
-0.004417
  0
VERTEX
  8
0
 10
687.639415
 20
1105.445846
 42
-0.000763
  0
VERTEX
  8
0
 10
696.662058
 20
1103.788113
 42
-0.603844
  0
VERTEX
  8
0
 10
696.770908
 20
1103.437575
 42
-0.215827
  0
VERTEX
  8
0
 10
696.272489
 20
1103.249818
 42
-0.000017
  0
VERTEX
  8
0
 10
653.187124
 20
1106.050069
 42
-0.000050
  0
VERTEX
  8
0
 10
610.632840
 20
1108.821553
 42
-0.065337
  0
VERTEX
  8
0
 10
609.000000
 20
1109.145114
 42
-0.754420
  0
VERTEX
  8
0
 10
609.004693
 20
1109.242889
 42
-0.006674
  0
VERTEX
  8
0
 10
610.115625
 20
1109.487629
 42
-0.008689
  0
VERTEX
  8
0
 10
611.616159
 20
1109.770166
 42
-0.004498
  0
VERTEX
  8
0
 10
613.500000
 20
1110.073671
 42
-0.039319
  0
VERTEX
  8
0
 10
621.873925
 20
1110.678839
 42
-0.005233
  0
VERTEX
  8
0
 10
639.615722
 20
1110.378580
 42
-0.006196
  0
VERTEX
  8
0
 10
657.471250
 20
1109.667894
 42
-0.023245
  0
SEQEND
  0
POLYLINE
  8
0
 66
1
 70
1
  0
VERTEX
  8
0
 10
839.000000
 20
665.533170
 42
0.028809
  0
VERTEX
  8
0
 10
814.008976
 20
660.460281
 42
0.027904
  0
VERTEX
  8
0
 10
789.492405
 20
652.507846
 42
0.026488
  0
VERTEX
  8
0
 10
764.859421
 20
641.435868
 42
0.021051
  0
VERTEX
  8
0
 10
739.513149
 20
627.008236
 42
0.027600
  0
VERTEX
  8
0
 10
705.630524
 20
603.085976
 42
0.043306
  0
VERTEX
  8
0
 10
679.717624
 20
578.628637
 42
0.048927
  0
VERTEX
  8
0
 10
660.721437
 20
552.572268
 42
0.052376
  0
VERTEX
  8
0
 10
647.654539
 20
523.893127
 42
0.047299
  0
VERTEX
  8
0
 10
643.484133
 20
505.947484
 42
0.052168
  0
VERTEX
  8
0
 10
642.957091
 20
488.128515
 42
0.054396
  0
VERTEX
  8
0
 10
646.084959
 20
471.261235
 42
0.060741
  0
VERTEX
  8
0
 10
652.724412
 20
456.125113
 42
0.056440
  0
VERTEX
  8
0
 10
659.985115
 20
446.523768
 42
0.043159
  0
VERTEX
  8
0
 10
669.853802
 20
437.792836
 42
0.043053
  0
VERTEX
  8
0
 10
681.107213
 20
430.862542
 42
0.055227
  0
VERTEX
  8
0
 10
692.500000
 20
426.631544
 42
0.040831
  0
VERTEX
  8
0
 10
707.389212
 20
424.173235
 42
0.024190
  0
VERTEX
  8
0
 10
725.388747
 20
423.567436
 42
0.023443
  0
VERTEX
  8
0
 10
744.290702
 20
424.733357
 42
0.027523
  0
VERTEX
  8
0
 10
762.000000
 20
427.655152
 42
0.017513
  0
VERTEX
  8
0
 10
775.152557
 20
431.063564
 42
0.008079
  0
VERTEX
  8
0
 10
792.020114
 20
436.369157
 42
0.007153
  0
VERTEX
  8
0
 10
811.637423
 20
443.202982
 42
0.005097
  0
VERTEX
  8
0
 10
833.416982
 20
451.393679
 42
-0.002298
  0
VERTEX
  8
0
 10
843.039186
 20
455.073948
 42
-0.003665
  0
VERTEX
  8
0
 10
851.301432
 20
458.121620
 42
-0.000844
  0
VERTEX
  8
0
 10
858.551553
 20
460.721923
 42
-0.167652
  0
VERTEX
  8
0
 10
859.310409
 20
460.729864
 42
-0.549624
  0
VERTEX
  8
0
 10
859.594436
 20
459.588706
 42
-0.003622
  0
VERTEX
  8
0
 10
851.019735
 20
450.717703
 42
-0.010259
  0
VERTEX
  8
0
 10
842.558994
 20
442.437420
 42
-0.034198
  0
VERTEX
  8
0
 10
836.545689
 20
437.517406
 42
-0.013370
  0
VERTEX
  8
0
 10
832.928145
 20
435.091985
 42
-0.002106
  0
VERTEX
  8
0
 10
825.666546
 20
430.542624
 42
-0.002337
  0
VERTEX
  8
0
 10
817.057604
 20
425.255095
 42
-0.002039
  0
VERTEX
  8
0
 10
808.000000
 20
419.800613
 42
0.003698
  0
VERTEX
  8
0
 10
791.979951
 20
410.080812
 42
0.010191
  0
VERTEX
  8
0
 10
780.883749
 20
402.919416
 42
0.013205
  0
VERTEX
  8
0
 10
771.864025
 20
396.481256
 42
0.011668
  0
VERTEX
  8
0
 10
762.809279
 20
389.312578
 42
0.023884
  0
VERTEX
  8
0
 10
752.107410
 20
379.525968
 42
0.015340
  0
VERTEX
  8
0
 10
740.616345
 20
367.230735
 42
0.014978
  0
VERTEX
  8
0
 10
730.532345
 20
355.036846
 42
0.046308
  0
VERTEX
  8
0
 10
724.784146
 20
346.038558
 42
0.092866
  0
VERTEX
  8
0
 10
723.119637
 20
340.475253
 42
0.069046
  0
VERTEX
  8
0
 10
723.327526
 20
334.052621
 42
0.067489
  0
VERTEX
  8
0
 10
725.302018
 20
327.780972
 42
0.080048
  0
VERTEX
  8
0
 10
728.803048
 20
322.658417
 42
0.082345
  0
VERTEX
  8
0
 10
734.895524
 20
318.053883
 42
0.091777
  0
VERTEX
  8
0
 10
741.925892
 20
315.880489
 42
0.074712
  0
VERTEX
  8
0
 10
750.412981
 20
316.155271
 42
0.036327
  0
VERTEX
  8
0
 10
760.936216
 20
318.888684
 42
0.043093
  0
VERTEX
  8
0
 10
776.241124
 20
325.593308
 42
0.058383
  0
VERTEX
  8
0
 10
788.554226
 20
334.303251
 42
0.028653
  0
VERTEX
  8
0
 10
803.746875
 20
349.623551
 42
0.003451
  0
VERTEX
  8
0
 10
835.015416
 20
385.489645
 42
-0.002485
  0
VERTEX
  8
0
 10
854.199807
 20
407.580772
 42
-0.014845
  0
VERTEX
  8
0
 10
864.593772
 20
418.743518
 42
-0.024605
  0
VERTEX
  8
0
 10
873.213272
 20
426.648058
 42
-0.015848
  0
VERTEX
  8
0
 10
883.914296
 20
434.974869
 42
0.001215
  0
VERTEX
  8
0
 10
889.327000
 20
438.937961
 42
0.001498
  0
VERTEX
  8
0
 10
894.354114
 20
442.660788
 42
0.001233
  0
VERTEX
  8
0
 10
898.560811
 20
445.811779
 42
0.011002
  0
VERTEX
  8
0
 10
900.376304
 20
447.242320
 42
0.000000
  0
VERTEX
  8
0
 10
903.252608
 20
449.613154
 42
0.000000
  0
VERTEX
  8
0
 10
897.508963
 20
455.816976
 42
0.014523
  0
VERTEX
  8
0
 10
895.135254
 20
458.235991
 42
0.017227
  0
VERTEX
  8
0
 10
892.752608
 20
460.374090
 42
0.016207
  0
VERTEX
  8
0
 10
890.641758
 20
462.027592
 42
0.096846
  0
VERTEX
  8
0
 10
889.382659
 20
462.618807
 42
-0.018245
  0
VERTEX
  8
0
 10
888.469692
 20
462.883699
 42
-0.027620
  0
VERTEX
  8
0
 10
887.699906
 20
463.185909
 42
-0.026244
  0
VERTEX
  8
0
 10
887.128151
 20
463.484884
 42
-0.265089
  0
VERTEX
  8
0
 10
887.000000
 20
463.709610
 42
-0.152621
  0
VERTEX
  8
0
 10
887.447634
 20
465.141940
 42
-0.000154
  0
VERTEX
  8
0
 10
906.692029
 20
492.905365
 42
-0.001093
  0
VERTEX
  8
0
 10
924.128998
 20
517.927697
 42
-0.016130
  0
VERTEX
  8
0
 10
930.552274
 20
526.500000
 42
0.025032
  0
VERTEX
  8
0
 10
933.143702
 20
530.089830
 42
0.078498
  0
VERTEX
  8
0
 10
934.349149
 20
532.799845
 42
0.108481
  0
VERTEX
  8
0
 10
934.460423
 20
535.230984
 42
0.076869
  0
VERTEX
  8
0
 10
933.588510
 20
537.828840
 42
0.051984
  0
VERTEX
  8
0
 10
932.220143
 20
539.912303
 42
0.101790
  0
VERTEX
  8
0
 10
930.686706
 20
541.159748
 42
0.088211
  0
VERTEX
  8
0
 10
928.633788
 20
541.803952
 42
0.032036
  0
VERTEX
  8
0
 10
925.577143
 20
542.000000
 42
0.073890
  0
VERTEX
  8
0
 10
918.642813
 20
540.969621
 42
0.069755
  0
VERTEX
  8
0
 10
912.157738
 20
537.961555
 42
0.040271
  0
VERTEX
  8
0
 10
904.220557
 20
531.876297
 42
0.008574
  0
VERTEX
  8
0
 10
891.500000
 20
519.984577
 42
-0.038971
  0
VERTEX
  8
0
 10
852.722828
 20
487.916419
 42
-0.047577
  0
VERTEX
  8
0
 10
811.838955
 20
464.616522
 42
-0.051552
  0
VERTEX
  8
0
 10
770.372931
 20
450.879630
 42
-0.063619
  0
VERTEX
  8
0
 10
729.848707
 20
447.229779
 42
-0.019937
  0
VERTEX
  8
0
 10
719.645346
 20
448.018145
 42
-0.040909
  0
VERTEX
  8
0
 10
711.790520
 20
449.600205
 42
-0.045375
  0
VERTEX
  8
0
 10
704.831332
 20
452.309127
 42
-0.031032
  0
VERTEX
  8
0
 10
697.482938
 20
456.555109
 42
-0.056959
  0
VERTEX
  8
0
 10
689.302248
 20
463.442600
 42
-0.046558
  0
VERTEX
  8
0
 10
682.247179
 20
472.455155
 42
-0.046321
  0
VERTEX
  8
0
 10
676.946936
 20
482.672256
 42
-0.054772
  0
VERTEX
  8
0
 10
673.976755
 20
493.137813
 42
-0.152403
  0
VERTEX
  8
0
 10
679.398106
 20
532.938454
 42
-0.079179
  0
VERTEX
  8
0
 10
707.809070
 20
574.835511
 42
-0.069266
  0
VERTEX
  8
0
 10
752.745462
 20
611.067891
 42
-0.066411
  0
VERTEX
  8
0
 10
806.500000
 20
634.280276
 42
-0.010506
  0
VERTEX
  8
0
 10
817.943884
 20
637.251142
 42
-0.020359
  0
VERTEX
  8
0
 10
827.218758
 20
639.056752
 42
-0.020106
  0
VERTEX
  8
0
 10
836.685230
 20
640.115260
 42
-0.009973
  0
VERTEX
  8
0
 10
848.753756
 20
640.733733
 42
-0.015558
  0
VERTEX
  8
0
 10
865.810967
 20
640.736166
 42
-0.043155
  0
VERTEX
  8
0
 10
877.712433
 20
639.334562
 42
-0.060768
  0
VERTEX
  8
0
 10
886.615953
 20
636.335811
 42
-0.072238
  0
VERTEX
  8
0
 10
893.976213
 20
631.402525
 42
-0.024537
  0
VERTEX
  8
0
 10
895.675001
 20
629.709241
 42
-0.018995
  0
VERTEX
  8
0
 10
897.358335
 20
627.710599
 42
-0.019357
  0
VERTEX
  8
0
 10
898.788974
 20
625.720467
 42
-0.043058
  0
VERTEX
  8
0
 10
899.680594
 20
624.082554
 42
-0.071006
  0
VERTEX
  8
0
 10
900.834996
 20
619.922241
 42
-0.034828
  0
VERTEX
  8
0
 10
901.161370
 20
614.422114
 42
-0.034759
  0
VERTEX
  8
0
 10
900.716637
 20
608.864197
 42
-0.063714
  0
VERTEX
  8
0
 10
899.477770
 20
604.500000
 42
-0.051302
  0
VERTEX
  8
0
 10
893.836958
 20
594.328928
 42
-0.029882
  0
VERTEX
  8
0
 10
885.179120
 20
583.369862
 42
-0.029521
  0
VERTEX
  8
0
 10
875.038231
 20
573.269402
 42
-0.041999
  0
VERTEX
  8
0
 10
864.844563
 20
565.672984
 42
-0.022293
  0
VERTEX
  8
0
 10
857.155107
 20
561.352606
 42
-0.019550
  0
VERTEX
  8
0
 10
848.771766
 20
557.525808
 42
-0.019381
  0
VERTEX
  8
0
 10
840.033219
 20
554.332295
 42
-0.020823
  0
VERTEX
  8
0
 10
831.278619
 20
551.909621
 42
-0.028428
  0
VERTEX
  8
0
 10
822.608747
 20
550.408024
 42
-0.103277
  0
VERTEX
  8
0
 10
817.069685
 20
550.914411
 42
-0.139762
  0
VERTEX
  8
0
 10
813.132323
 20
553.464416
 42
-0.070640
  0
VERTEX
  8
0
 10
809.879408
 20
558.458696
 42
0.176677
  0
VERTEX
  8
0
 10
806.499143
 20
561.834849
 42
0.081310
  0
VERTEX
  8
0
 10
800.421950
 20
563.534969
 42
0.073747
  0
VERTEX
  8
0
 10
793.444366
 20
563.278708
 42
0.092673
  0
VERTEX
  8
0
 10
787.420608
 20
560.950933
 42
0.150797
  0
VERTEX
  8
0
 10
780.857918
 20
553.436369
 42
0.148229
  0
VERTEX
  8
0
 10
779.614034
 20
543.475040
 42
0.133829
  0
VERTEX
  8
0
 10
784.157896
 20
533.726437
 42
0.115128
  0
VERTEX
  8
0
 10
793.258357
 20
526.960542
 42
0.124333
  0
VERTEX
  8
0
 10
807.980898
 20
524.544376
 42
0.040256
  0
VERTEX
  8
0
 10
829.925017
 20
528.202916
 42
0.038669
  0
VERTEX
  8
0
 10
853.735483
 20
536.171973
 42
0.043508
  0
VERTEX
  8
0
 10
875.062024
 20
547.471502
 42
0.024108
  0
VERTEX
  8
0
 10
886.354235
 20
555.574061
 42
0.019784
  0
VERTEX
  8
0
 10
897.612758
 20
565.254382
 42
0.019981
  0
VERTEX
  8
0
 10
907.928806
 20
575.659327
 42
0.026648
  0
VERTEX
  8
0
 10
916.375995
 20
585.938752
 42
0.094265
  0
VERTEX
  8
0
 10
927.858087
 20
609.915741
 42
0.146448
  0
VERTEX
  8
0
 10
927.125335
 20
632.668431
 42
0.143325
  0
VERTEX
  8
0
 10
913.945340
 20
651.617440
 42
0.088868
  0
VERTEX
  8
0
 10
890.000000
 20
664.732486
 42
0.068587
  0
VERTEX
  8
0
 10
882.811483
 20
666.091533
 42
0.008549
  0
VERTEX
  8
0
 10
866.891777
 20
666.613828
 42
0.010754
  0
VERTEX
  8
0
 10
850.571595
 20
666.519027
 42
0.028846
  0
SEQEND
  0
POLYLINE
  8
0
 66
1
 70
1
  0
VERTEX
  8
0
 10
818.783779
 20
396.250000
 42
-0.008565
  0
VERTEX
  8
0
 10
803.816186
 20
376.835238
 42
-0.027501
  0
VERTEX
  8
0
 10
792.945877
 20
364.661206
 42
-0.039259
  0
VERTEX
  8
0
 10
783.187615
 20
356.300003
 42
-0.040533
  0
VERTEX
  8
0
 10
772.342008
 20
349.666193
 42
-0.027248
  0
VERTEX
  8
0
 10
767.519881
 20
347.550583
 42
-0.016193
  0
VERTEX
  8
0
 10
761.575918
 20
345.537342
 42
-0.007995
  0
VERTEX
  8
0
 10
755.770322
 20
343.879207
 42
-0.268060
  0
VERTEX
  8
0
 10
754.428114
 20
344.238553
 42
-0.256574
  0
VERTEX
  8
0
 10
754.306105
 20
344.657974
 42
-0.021966
  0
VERTEX
  8
0
 10
754.607583
 20
345.777050
 42
-0.024727
  0
VERTEX
  8
0
 10
755.120333
 20
347.153799
 42
-0.016447
  0
VERTEX
  8
0
 10
755.836178
 20
348.678882
 42
-0.045658
  0
VERTEX
  8
0
 10
760.972244
 20
356.816747
 42
-0.024244
  0
VERTEX
  8
0
 10
768.682349
 20
365.919975
 42
-0.023339
  0
VERTEX
  8
0
 10
777.816999
 20
374.829444
 42
-0.026623
  0
VERTEX
  8
0
 10
787.365157
 20
382.441030
 42
-0.015495
  0
VERTEX
  8
0
 10
793.754626
 20
386.708016
 42
-0.001821
  0
VERTEX
  8
0
 10
808.310455
 20
395.715943
 42
-0.000312
  0
VERTEX
  8
0
 10
824.528475
 20
405.657064
 42
-0.138189
  0
VERTEX
  8
0
 10
825.745607
 20
406.000000
 42
-0.609319
  0
VERTEX
  8
0
 10
825.794463
 20
405.905306
 42
-0.000477
  0
VERTEX
  8
0
 10
823.821023
 20
403.135938
 42
-0.003082
  0
VERTEX
  8
0
 10
821.544714
 20
399.989171
 42
-0.001808
  0
SEQEND
  0
POLYLINE
  8
0
 66
1
 70
1
  0
VERTEX
  8
0
 10
1297.500000
 20
653.957319
 42
0.038103
  0
VERTEX
  8
0
 10
1280.959843
 20
651.063273
 42
0.034231
  0
VERTEX
  8
0
 10
1264.426491
 20
645.624252
 42
0.034638
  0
VERTEX
  8
0
 10
1249.000854
 20
638.067819
 42
0.041839
  0
VERTEX
  8
0
 10
1235.771039
 20
628.853082
 42
0.011019
  0
VERTEX
  8
0
 10
1221.132578
 20
616.167520
 42
0.004216
  0
VERTEX
  8
0
 10
1201.309654
 20
597.902533
 42
0.003755
  0
VERTEX
  8
0
 10
1177.917832
 20
575.649229
 42
0.002608
  0
VERTEX
  8
0
 10
1151.809611
 20
550.170978
 42
-0.004000
  0
VERTEX
  8
0
 10
1144.066844
 20
542.657017
 42
-0.008284
  0
VERTEX
  8
0
 10
1137.877873
 20
536.939375
 42
-0.003399
  0
VERTEX
  8
0
 10
1132.788258
 20
532.453180
 42
-0.287277
  0
VERTEX
  8
0
 10
1131.809611
 20
532.299080
 42
-0.003396
  0
VERTEX
  8
0
 10
1130.905958
 20
532.691943
 42
-0.000154
  0
VERTEX
  8
0
 10
1127.816268
 20
534.061347
 42
-0.000258
  0
VERTEX
  8
0
 10
1124.151182
 20
535.689387
 42
-0.000184
  0
VERTEX
  8
0
 10
1120.054279
 20
537.513578
 42
0.030891
  0
VERTEX
  8
0
 10
1095.059989
 20
546.850578
 42
0.048146
  0
VERTEX
  8
0
 10
1072.544899
 20
551.403663
 42
0.054876
  0
VERTEX
  8
0
 10
1051.918011
 20
551.273190
 42
0.061259
  0
VERTEX
  8
0
 10
1032.604009
 20
546.580877
 42
0.021016
  0
VERTEX
  8
0
 10
1025.314075
 20
543.475326
 42
0.029520
  0
VERTEX
  8
0
 10
1019.122175
 20
540.062290
 42
0.030427
  0
VERTEX
  8
0
 10
1013.518643
 20
536.031091
 42
0.024550
  0
VERTEX
  8
0
 10
1008.009254
 20
531.065267
 42
0.049911
  0
VERTEX
  8
0
 10
1000.275984
 20
521.665068
 42
0.054962
  0
VERTEX
  8
0
 10
994.846351
 20
511.206620
 42
0.055146
  0
VERTEX
  8
0
 10
991.838509
 20
499.848045
 42
0.050832
  0
VERTEX
  8
0
 10
991.269785
 20
487.784757
 42
0.095779
  0
VERTEX
  8
0
 10
995.311686
 20
471.648867
 42
0.084794
  0
VERTEX
  8
0
 10
1005.184670
 20
457.389541
 42
0.062896
  0
VERTEX
  8
0
 10
1022.013071
 20
444.046527
 42
0.027039
  0
VERTEX
  8
0
 10
1047.332746
 20
430.518593
 42
-0.004285
  0
VERTEX
  8
0
 10
1052.188956
 20
428.201439
 42
-0.006911
  0
VERTEX
  8
0
 10
1056.278994
 20
426.136200
 42
-0.002099
  0
VERTEX
  8
0
 10
1059.761717
 20
424.298131
 42
-0.277023
  0
VERTEX
  8
0
 10
1060.000000
 20
423.901058
 42
-0.191627
  0
VERTEX
  8
0
 10
1059.485608
 20
422.608171
 42
-0.000143
  0
VERTEX
  8
0
 10
1034.212111
 20
395.889566
 42
-0.001419
  0
VERTEX
  8
0
 10
1011.697331
 20
372.235794
 42
-0.011779
  0
VERTEX
  8
0
 10
1001.204471
 20
361.779154
 42
-0.014242
  0
VERTEX
  8
0
 10
996.629614
 20
357.671583
 42
-0.023952
  0
VERTEX
  8
0
 10
992.538076
 20
354.527121
 42
-0.023144
  0
VERTEX
  8
0
 10
988.066510
 20
351.716938
 42
-0.012273
  0
VERTEX
  8
0
 10
982.291476
 20
348.634699
 42
0.013396
  0
VERTEX
  8
0
 10
973.514436
 20
343.924883
 42
0.026166
  0
VERTEX
  8
0
 10
966.838444
 20
339.630578
 42
0.032968
  0
VERTEX
  8
0
 10
961.905589
 20
335.560600
 42
0.060017
  0
VERTEX
  8
0
 10
958.564282
 20
331.554374
 42
0.045297
  0
VERTEX
  8
0
 10
956.812874
 20
328.228700
 42
0.086765
  0
VERTEX
  8
0
 10
956.153343
 20
325.294481
 42
0.081918
  0
VERTEX
  8
0
 10
956.512418
 20
322.198651
 42
0.036838
  0
VERTEX
  8
0
 10
957.929804
 20
318.346637
 42
0.059407
  0
VERTEX
  8
0
 10
959.734823
 20
315.368607
 42
0.119683
  0
VERTEX
  8
0
 10
961.875923
 20
313.675840
 42
0.088889
  0
VERTEX
  8
0
 10
964.991536
 20
312.868860
 42
0.023076
  0
VERTEX
  8
0
 10
970.189369
 20
312.712948
 42
0.030283
  0
VERTEX
  8
0
 10
975.309846
 20
313.106482
 42
0.044405
  0
VERTEX
  8
0
 10
979.709721
 20
314.118153
 42
0.046693
  0
VERTEX
  8
0
 10
983.695044
 20
315.841180
 42
0.038772
  0
VERTEX
  8
0
 10
987.563545
 20
318.369612
 42
0.035064
  0
VERTEX
  8
0
 10
990.304008
 20
320.804896
 42
0.001057
  0
VERTEX
  8
0
 10
1000.954518
 20
331.742949
 42
0.002092
  0
VERTEX
  8
0
 10
1013.425458
 20
344.713014
 42
0.001443
  0
VERTEX
  8
0
 10
1027.443581
 20
359.500000
 42
-0.001109
  0
VERTEX
  8
0
 10
1057.287461
 20
391.022916
 42
-0.004517
  0
VERTEX
  8
0
 10
1075.648128
 20
409.984595
 42
-0.005044
  0
VERTEX
  8
0
 10
1088.113307
 20
422.374706
 42
-0.058955
  0
VERTEX
  8
0
 10
1093.546147
 20
426.543619
 42
-0.053843
  0
VERTEX
  8
0
 10
1099.850498
 20
429.428515
 42
-0.003363
  0
VERTEX
  8
0
 10
1119.360440
 20
435.782613
 42
-0.004602
  0
VERTEX
  8
0
 10
1144.004953
 20
443.376944
 42
-0.002609
  0
VERTEX
  8
0
 10
1173.978358
 20
452.142151
 42
-0.048810
  0
VERTEX
  8
0
 10
1182.071091
 20
453.629330
 42
-0.094917
  0
VERTEX
  8
0
 10
1188.579885
 20
452.942916
 42
-0.046253
  0
VERTEX
  8
0
 10
1197.001033
 20
449.513040
 42
-0.004724
  0
VERTEX
  8
0
 10
1216.035882
 20
439.392678
 42
0.003960
  0
VERTEX
  8
0
 10
1242.520999
 20
425.259232
 42
0.002785
  0
VERTEX
  8
0
 10
1272.532213
 20
409.760586
 42
0.001419
  0
VERTEX
  8
0
 10
1301.071863
 20
395.324545
 42
0.035145
  0
VERTEX
  8
0
 10
1309.216556
 20
391.927047
 42
0.019586
  0
VERTEX
  8
0
 10
1312.288923
 20
391.024359
 42
0.006309
  0
VERTEX
  8
0
 10
1316.908175
 20
389.923373
 42
0.006281
  0
VERTEX
  8
0
 10
1322.082881
 20
388.826906
 42
0.007001
  0
VERTEX
  8
0
 10
1327.100140
 20
387.902313
 42
0.013638
  0
VERTEX
  8
0
 10
1335.597695
 20
386.696486
 42
0.054536
  0
VERTEX
  8
0
 10
1340.846208
 20
386.671699
 42
0.090402
  0
VERTEX
  8
0
 10
1344.518536
 20
387.745832
 42
0.092856
  0
VERTEX
  8
0
 10
1347.536548
 20
390.040385
 42
0.228837
  0
VERTEX
  8
0
 10
1348.681473
 20
393.939097
 42
0.094608
  0
VERTEX
  8
0
 10
1346.731887
 20
399.231587
 42
0.078213
  0
VERTEX
  8
0
 10
1342.438128
 20
404.353099
 42
0.086226
  0
VERTEX
  8
0
 10
1336.909911
 20
407.704205
 42
-0.036033
  0
VERTEX
  8
0
 10
1330.868795
 20
410.584942
 42
-0.000222
  0
VERTEX
  8
0
 10
1278.183722
 20
440.571537
 42
-0.000035
  0
VERTEX
  8
0
 10
1223.257534
 20
471.871105
 42
-0.533480
  0
VERTEX
  8
0
 10
1223.212974
 20
472.483557
 42
-0.025177
  0
VERTEX
  8
0
 10
1223.454592
 20
472.653487
 42
-0.000012
  0
VERTEX
  8
0
 10
1231.493811
 20
477.722501
 42
-0.000175
  0
VERTEX
  8
0
 10
1240.435569
 20
483.355917
 42
-0.000107
  0
VERTEX
  8
0
 10
1251.000000
 20
490.003319
 42
0.001531
  0
VERTEX
  8
0
 10
1272.894665
 20
503.867223
 42
0.004603
  0
VERTEX
  8
0
 10
1287.722989
 20
513.513544
 42
0.006334
  0
VERTEX
  8
0
 10
1299.451284
 20
521.513657
 42
0.006575
  0
VERTEX
  8
0
 10
1310.826637
 20
529.711192
 42
0.047942
  0
VERTEX
  8
0
 10
1339.808527
 20
555.825916
 42
0.076117
  0
VERTEX
  8
0
 10
1358.345072
 20
583.532466
 42
0.098826
  0
VERTEX
  8
0
 10
1364.806878
 20
609.859790
 42
0.153804
  0
VERTEX
  8
0
 10
1358.812844
 20
632.252497
 42
0.088673
  0
VERTEX
  8
0
 10
1348.752800
 20
643.189752
 42
0.077664
  0
VERTEX
  8
0
 10
1335.072755
 20
650.579072
 42
0.066618
  0
VERTEX
  8
0
 10
1317.891693
 20
654.190742
 42
0.042827
  0
SEQEND
  0
POLYLINE
  8
0
 66
1
 70
1
  0
VERTEX
  8
0
 10
1314.530011
 20
623.450168
 42
-0.080017
  0
VERTEX
  8
0
 10
1325.465763
 20
618.638542
 42
-0.131817
  0
VERTEX
  8
0
 10
1332.193209
 20
611.188602
 42
-0.141709
  0
VERTEX
  8
0
 10
1334.009311
 20
601.786817
 42
-0.098700
  0
VERTEX
  8
0
 10
1330.926198
 20
591.359699
 42
-0.059449
  0
VERTEX
  8
0
 10
1320.034389
 20
575.541634
 42
-0.020132
  0
VERTEX
  8
0
 10
1300.705701
 20
555.287765
 42
-0.020205
  0
VERTEX
  8
0
 10
1278.040713
 20
535.081748
 42
-0.026912
  0
VERTEX
  8
0
 10
1255.814995
 20
518.743889
 42
-0.009894
  0
VERTEX
  8
0
 10
1244.877643
 20
511.882292
 42
-0.004144
  0
VERTEX
  8
0
 10
1229.892993
 20
503.057910
 42
-0.003081
  0
VERTEX
  8
0
 10
1215.210197
 20
494.694638
 42
-0.028964
  0
VERTEX
  8
0
 10
1208.684999
 20
491.512851
 42
-0.095203
  0
VERTEX
  8
0
 10
1202.615903
 20
490.244971
 42
-0.098797
  0
VERTEX
  8
0
 10
1196.594160
 20
491.345985
 42
-0.042058
  0
VERTEX
  8
0
 10
1187.996372
 20
495.625719
 42
-0.004887
  0
VERTEX
  8
0
 10
1169.713265
 20
506.979161
 42
0.000000
  0
VERTEX
  8
0
 10
1153.200365
 20
517.458323
 42
0.000000
  0
VERTEX
  8
0
 10
1158.985233
 20
523.979161
 42
-0.015530
  0
VERTEX
  8
0
 10
1169.551061
 20
535.169102
 42
-0.001149
  0
VERTEX
  8
0
 10
1199.454175
 20
564.793857
 42
-0.001065
  0
VERTEX
  8
0
 10
1229.668648
 20
594.463090
 42
-0.017468
  0
VERTEX
  8
0
 10
1240.139397
 20
604.009074
 42
-0.024515
  0
VERTEX
  8
0
 10
1249.427145
 20
611.147354
 42
-0.033973
  0
VERTEX
  8
0
 10
1258.441239
 20
616.530368
 42
-0.034943
  0
VERTEX
  8
0
 10
1267.895491
 20
620.533846
 42
-0.028321
  0
VERTEX
  8
0
 10
1278.500000
 20
623.515338
 42
-0.039310
  0
VERTEX
  8
0
 10
1286.225793
 20
624.595173
 42
-0.015526
  0
VERTEX
  8
0
 10
1296.959702
 20
624.909132
 42
-0.015184
  0
VERTEX
  8
0
 10
1307.540652
 20
624.568585
 42
-0.048104
  0
SEQEND
  0
POLYLINE
  8
0
 66
1
 70
1
  0
VERTEX
  8
0
 10
1070.500000
 20
525.424236
 42
-0.019245
  0
VERTEX
  8
0
 10
1076.663976
 20
523.019756
 42
-0.001058
  0
VERTEX
  8
0
 10
1095.669395
 20
514.702144
 42
-0.000268
  0
VERTEX
  8
0
 10
1116.270064
 20
505.621229
 42
-0.092684
  0
VERTEX
  8
0
 10
1117.673174
 20
504.660160
 42
-0.355783
  0
VERTEX
  8
0
 10
1117.712765
 20
504.272456
 42
-0.002024
  0
VERTEX
  8
0
 10
1115.540959
 20
500.999980
 42
-0.007077
  0
VERTEX
  8
0
 10
1112.941435
 20
497.233646
 42
-0.004294
  0
VERTEX
  8
0
 10
1109.765553
 20
492.848991
 42
0.001816
  0
VERTEX
  8
0
 10
1106.001541
 20
487.706187
 42
0.001105
  0
VERTEX
  8
0
 10
1101.588815
 20
481.602516
 42
0.001108
  0
VERTEX
  8
0
 10
1097.240039
 20
475.530882
 42
0.001959
  0
VERTEX
  8
0
 10
1093.683184
 20
470.500000
 42
-0.009735
  0
VERTEX
  8
0
 10
1087.882766
 20
462.560629
 42
-0.047881
  0
VERTEX
  8
0
 10
1084.120685
 20
458.490777
 42
-0.082480
  0
VERTEX
  8
0
 10
1080.709618
 20
456.331252
 42
-0.072017
  0
VERTEX
  8
0
 10
1076.619510
 20
455.260581
 42
-0.114540
  0
VERTEX
  8
0
 10
1068.561228
 20
456.198300
 42
-0.012494
  0
VERTEX
  8
0
 10
1051.030123
 20
462.976188
 42
-0.016015
  0
VERTEX
  8
0
 10
1033.614168
 20
470.877945
 42
-0.048469
  0
VERTEX
  8
0
 10
1022.558143
 20
477.730026
 42
-0.077499
  0
VERTEX
  8
0
 10
1016.827731
 20
483.706012
 42
-0.086688
  0
VERTEX
  8
0
 10
1013.456575
 20
490.926829
 42
-0.090477
  0
VERTEX
  8
0
 10
1012.815143
 20
498.601532
 42
-0.093941
  0
VERTEX
  8
0
 10
1014.948450
 20
505.898953
 42
-0.072130
  0
VERTEX
  8
0
 10
1019.464599
 20
512.282029
 42
-0.049034
  0
VERTEX
  8
0
 10
1026.206069
 20
518.112260
 42
-0.045184
  0
VERTEX
  8
0
 10
1034.605533
 20
522.974547
 42
-0.040217
  0
VERTEX
  8
0
 10
1044.071613
 20
526.473446
 42
-0.051522
  0
VERTEX
  8
0
 10
1049.852844
 20
527.470036
 42
-0.026864
  0
VERTEX
  8
0
 10
1057.172715
 20
527.572789
 42
-0.026808
  0
VERTEX
  8
0
 10
1064.541568
 20
526.883406
 42
-0.046674
  0
SEQEND
  0
POLYLINE
  8
0
 66
1
 70
1
  0
VERTEX
  8
0
 10
1150.050853
 20
480.314656
 42
-0.005783
  0
VERTEX
  8
0
 10
1155.587978
 20
476.532921
 42
-0.015888
  0
VERTEX
  8
0
 10
1159.375672
 20
473.697775
 42
-0.014869
  0
VERTEX
  8
0
 10
1161.871948
 20
471.577812
 42
-0.517809
  0
VERTEX
  8
0
 10
1161.794502
 20
470.927786
 42
-0.047246
  0
VERTEX
  8
0
 10
1159.820816
 20
470.088195
 42
-0.000184
  0
VERTEX
  8
0
 10
1136.533329
 20
462.694930
 42
-0.000115
  0
VERTEX
  8
0
 10
1112.896940
 20
455.206432
 42
-0.076797
  0
VERTEX
  8
0
 10
1111.560854
 20
455.000000
 42
-0.608175
  0
VERTEX
  8
0
 10
1111.473723
 20
455.168192
 42
-0.000496
  0
VERTEX
  8
0
 10
1114.888451
 20
459.993750
 42
-0.003148
  0
VERTEX
  8
0
 10
1118.831326
 20
465.480407
 42
-0.001846
  0
VERTEX
  8
0
 10
1123.615972
 20
472.000000
 42
-0.001467
  0
VERTEX
  8
0
 10
1128.466170
 20
478.517931
 42
-0.002404
  0
VERTEX
  8
0
 10
1132.616596
 20
484.006250
 42
-0.000290
  0
VERTEX
  8
0
 10
1136.335160
 20
488.868827
 42
-0.233446
  0
VERTEX
  8
0
 10
1136.600799
 20
489.000000
 42
-0.143976
  0
VERTEX
  8
0
 10
1136.901939
 20
488.911451
 42
-0.000352
  0
VERTEX
  8
0
 10
1140.721663
 20
486.448680
 42
-0.002202
  0
VERTEX
  8
0
 10
1145.022715
 20
483.644372
 42
-0.001364
  0
SEQEND
  0
ENDSEC
  0
EOF
