G04 #@! TF.GenerationSoftware,KiCad,Pcbnew,(5.1.10)-1*
G04 #@! TF.CreationDate,2022-04-05T17:30:23-07:00*
G04 #@! TF.ProjectId,RacingTeam,52616369-6e67-4546-9561-6d2e6b696361,rev?*
G04 #@! TF.SameCoordinates,Original*
G04 #@! TF.FileFunction,Paste,Top*
G04 #@! TF.FilePolarity,Positive*
%FSLAX46Y46*%
G04 Gerber Fmt 4.6, Leading zero omitted, Abs format (unit mm)*
G04 Created by KiCad (PCBNEW (5.1.10)-1) date 2022-04-05 17:30:23*
%MOMM*%
%LPD*%
G01*
G04 APERTURE LIST*
%ADD10R,0.950000X1.075000*%
%ADD11R,1.000000X0.850000*%
%ADD12R,1.600000X3.000000*%
%ADD13R,0.950000X0.975000*%
%ADD14R,0.800000X1.100000*%
%ADD15R,1.100000X0.800000*%
%ADD16R,0.975000X0.950000*%
%ADD17R,1.780000X1.520000*%
%ADD18R,1.570000X0.410000*%
%ADD19R,1.200000X1.400000*%
%ADD20R,1.075000X0.950000*%
%ADD21R,1.970000X0.600000*%
%ADD22R,4.240000X3.810000*%
%ADD23R,1.300000X1.325000*%
%ADD24R,1.400000X1.200000*%
%ADD25R,1.325000X1.300000*%
%ADD26R,0.850000X1.000000*%
G04 APERTURE END LIST*
D10*
G04 #@! TO.C,C10*
X134250000Y-115862500D03*
X134250000Y-114137500D03*
G04 #@! TD*
D11*
G04 #@! TO.C,Q4*
X122750000Y-39720000D03*
X122750000Y-41680000D03*
X120650000Y-40700000D03*
G04 #@! TD*
D12*
G04 #@! TO.C,U4*
X131590000Y-119910000D03*
X127010000Y-119910000D03*
G04 #@! TD*
D13*
G04 #@! TO.C,R32*
X162400000Y-103300000D03*
X162400000Y-101475000D03*
G04 #@! TD*
D14*
G04 #@! TO.C,D8*
X159100000Y-103300000D03*
X157200000Y-103300000D03*
G04 #@! TD*
D13*
G04 #@! TO.C,R26*
X165600000Y-92800000D03*
X165600000Y-94625000D03*
G04 #@! TD*
D11*
G04 #@! TO.C,Q5*
X160800000Y-93750000D03*
X158700000Y-92770000D03*
X158700000Y-94730000D03*
G04 #@! TD*
D13*
G04 #@! TO.C,R27*
X152700000Y-94112500D03*
X152700000Y-92287500D03*
G04 #@! TD*
D11*
G04 #@! TO.C,Q8*
X147250000Y-110280000D03*
X147250000Y-108320000D03*
X149350000Y-109300000D03*
G04 #@! TD*
G04 #@! TO.C,Q7*
X144150000Y-104280000D03*
X144150000Y-102320000D03*
X146250000Y-103300000D03*
G04 #@! TD*
D13*
G04 #@! TO.C,R31*
X149500000Y-103250000D03*
X149500000Y-101425000D03*
G04 #@! TD*
D10*
G04 #@! TO.C,C9*
X124300000Y-114137500D03*
X124300000Y-115862500D03*
G04 #@! TD*
D15*
G04 #@! TO.C,D6*
X136250000Y-108500000D03*
X136250000Y-106600000D03*
G04 #@! TD*
D16*
G04 #@! TO.C,R28*
X131750000Y-106500000D03*
X129925000Y-106500000D03*
G04 #@! TD*
D11*
G04 #@! TO.C,Q6*
X156800000Y-98500000D03*
X154700000Y-97520000D03*
X154700000Y-99480000D03*
G04 #@! TD*
D17*
G04 #@! TO.C,U3*
X165660000Y-77495000D03*
X170740000Y-77495000D03*
X168200000Y-77495000D03*
X165660000Y-86505000D03*
X170740000Y-86505000D03*
X168200000Y-86505000D03*
G04 #@! TD*
D10*
G04 #@! TO.C,C3*
X172950000Y-63125000D03*
X172950000Y-64850000D03*
G04 #@! TD*
D18*
G04 #@! TO.C,U2*
X175830000Y-63025000D03*
X175830000Y-63675000D03*
X175830000Y-64325000D03*
X175830000Y-64975000D03*
X181570000Y-64975000D03*
X181570000Y-64325000D03*
X181570000Y-63675000D03*
X181570000Y-63025000D03*
G04 #@! TD*
D19*
G04 #@! TO.C,R36*
X180250000Y-61000000D03*
X178250000Y-61000000D03*
G04 #@! TD*
D13*
G04 #@! TO.C,R5*
X170250000Y-57412500D03*
X170250000Y-55587500D03*
G04 #@! TD*
D20*
G04 #@! TO.C,C8*
X137300000Y-92000000D03*
X135575000Y-92000000D03*
G04 #@! TD*
D21*
G04 #@! TO.C,U6*
X143800000Y-97905000D03*
X143800000Y-96635000D03*
X143800000Y-95365000D03*
X143800000Y-94095000D03*
X149200000Y-94095000D03*
X149200000Y-95365000D03*
X149200000Y-96635000D03*
X149200000Y-97905000D03*
G04 #@! TD*
D20*
G04 #@! TO.C,C5*
X143837500Y-100300000D03*
X145562500Y-100300000D03*
G04 #@! TD*
D10*
G04 #@! TO.C,C6*
X140500000Y-92000000D03*
X140500000Y-93725000D03*
G04 #@! TD*
D13*
G04 #@! TO.C,R30*
X137300000Y-96800000D03*
X137300000Y-94975000D03*
G04 #@! TD*
G04 #@! TO.C,R29*
X137300000Y-100600000D03*
X137300000Y-98775000D03*
G04 #@! TD*
D16*
G04 #@! TO.C,R4*
X165662500Y-55500000D03*
X163837500Y-55500000D03*
G04 #@! TD*
G04 #@! TO.C,R18*
X165700000Y-59500000D03*
X163875000Y-59500000D03*
G04 #@! TD*
D19*
G04 #@! TO.C,R34*
X164650000Y-65750000D03*
X162650000Y-65750000D03*
G04 #@! TD*
D22*
G04 #@! TO.C,F2*
X160420000Y-70200000D03*
X166800000Y-70200000D03*
G04 #@! TD*
D13*
G04 #@! TO.C,R19*
X171450000Y-68425000D03*
X171450000Y-70250000D03*
G04 #@! TD*
D20*
G04 #@! TO.C,C4*
X177562500Y-68750000D03*
X175837500Y-68750000D03*
G04 #@! TD*
D16*
G04 #@! TO.C,R24*
X185187500Y-72400000D03*
X187012500Y-72400000D03*
G04 #@! TD*
D13*
G04 #@! TO.C,R22*
X190000000Y-64850000D03*
X190000000Y-63025000D03*
G04 #@! TD*
D11*
G04 #@! TO.C,Q1*
X201550000Y-54300000D03*
X199450000Y-53320000D03*
X199450000Y-55280000D03*
G04 #@! TD*
D19*
G04 #@! TO.C,R21*
X209400000Y-58800000D03*
X207400000Y-58800000D03*
G04 #@! TD*
D23*
G04 #@! TO.C,D3*
X207400000Y-56250000D03*
X207400000Y-54325000D03*
G04 #@! TD*
D19*
G04 #@! TO.C,R23*
X201300000Y-50000000D03*
X203300000Y-50000000D03*
G04 #@! TD*
D23*
G04 #@! TO.C,D4*
X210800000Y-46875000D03*
X210800000Y-48800000D03*
G04 #@! TD*
D11*
G04 #@! TO.C,Q2*
X200850000Y-45000000D03*
X198750000Y-44020000D03*
X198750000Y-45980000D03*
G04 #@! TD*
D22*
G04 #@! TO.C,F5*
X176220000Y-55600000D03*
X182600000Y-55600000D03*
G04 #@! TD*
D20*
G04 #@! TO.C,C2*
X191387500Y-54500000D03*
X193112500Y-54500000D03*
G04 #@! TD*
D13*
G04 #@! TO.C,R20*
X193800000Y-44825000D03*
X193800000Y-46650000D03*
G04 #@! TD*
D18*
G04 #@! TO.C,U1*
X196370000Y-49125000D03*
X196370000Y-49775000D03*
X196370000Y-50425000D03*
X196370000Y-51075000D03*
X190630000Y-51075000D03*
X190630000Y-50425000D03*
X190630000Y-49775000D03*
X190630000Y-49125000D03*
G04 #@! TD*
D13*
G04 #@! TO.C,R16*
X186550000Y-45287500D03*
X186550000Y-47112500D03*
G04 #@! TD*
D10*
G04 #@! TO.C,C1*
X186500000Y-51000000D03*
X186500000Y-49275000D03*
G04 #@! TD*
D16*
G04 #@! TO.C,R17*
X182575000Y-51050000D03*
X184400000Y-51050000D03*
G04 #@! TD*
D22*
G04 #@! TO.C,F6*
X184880000Y-40000000D03*
X178500000Y-40000000D03*
G04 #@! TD*
D19*
G04 #@! TO.C,R11*
X169500000Y-39750000D03*
X171500000Y-39750000D03*
G04 #@! TD*
G04 #@! TO.C,R35*
X182700000Y-45700000D03*
X180700000Y-45700000D03*
G04 #@! TD*
D24*
G04 #@! TO.C,R10*
X171500000Y-45500000D03*
X171500000Y-43500000D03*
G04 #@! TD*
D19*
G04 #@! TO.C,R9*
X171500000Y-49500000D03*
X169500000Y-49500000D03*
G04 #@! TD*
G04 #@! TO.C,R8*
X165500000Y-49500000D03*
X163500000Y-49500000D03*
G04 #@! TD*
D24*
G04 #@! TO.C,R6*
X148250000Y-57000000D03*
X148250000Y-59000000D03*
G04 #@! TD*
D19*
G04 #@! TO.C,R12*
X142500000Y-59000000D03*
X144500000Y-59000000D03*
G04 #@! TD*
G04 #@! TO.C,R33*
X145750000Y-62500000D03*
X143750000Y-62500000D03*
G04 #@! TD*
D13*
G04 #@! TO.C,R3*
X149300000Y-73500000D03*
X149300000Y-71675000D03*
G04 #@! TD*
D16*
G04 #@! TO.C,R2*
X145825000Y-71700000D03*
X144000000Y-71700000D03*
G04 #@! TD*
G04 #@! TO.C,R1*
X139675000Y-71700000D03*
X141500000Y-71700000D03*
G04 #@! TD*
D22*
G04 #@! TO.C,F1*
X148130000Y-66500000D03*
X141750000Y-66500000D03*
G04 #@! TD*
D24*
G04 #@! TO.C,R14*
X137000000Y-64500000D03*
X137000000Y-66500000D03*
G04 #@! TD*
G04 #@! TO.C,R15*
X133000000Y-66500000D03*
X133000000Y-64500000D03*
G04 #@! TD*
D19*
G04 #@! TO.C,R13*
X137000000Y-59000000D03*
X139000000Y-59000000D03*
G04 #@! TD*
D24*
G04 #@! TO.C,R7*
X133000000Y-58750000D03*
X133000000Y-56750000D03*
G04 #@! TD*
D25*
G04 #@! TO.C,D5*
X128737500Y-43600000D03*
X130662500Y-43600000D03*
G04 #@! TD*
D19*
G04 #@! TO.C,R25*
X130700000Y-50550000D03*
X132700000Y-50550000D03*
G04 #@! TD*
D26*
G04 #@! TO.C,Q3*
X121720000Y-33750000D03*
X123680000Y-33750000D03*
X122700000Y-35850000D03*
G04 #@! TD*
M02*
